<svg width="336" height="280" viewBox="0 0 336 280" fill="none" xmlns="http://www.w3.org/2000/svg">
<g clip-path="url(#clip0_2270_17299)">
<path d="M39.767 210.98C45.2611 202.197 54.7509 210.98 65.739 213.558C95.7067 221.573 146.227 232.48 149.649 231.951C153.07 231.421 173.123 227.532 199.595 206.525C207.904 206.525 212.581 197.869 232.285 193C238.394 204.918 232.285 207.007 232.285 210.98C232.285 214.158 227.804 219.366 225.564 221.573C217.011 230.18 165.165 254.046 159.637 256.865C153.646 259.92 146.293 259.122 141.625 257.988C128.773 254.866 75.476 237.243 48.3908 227.532C41.0595 225.943 37.2697 218.426 39.767 210.98Z" fill="#0B0C0D"/>
<ellipse cx="185.5" cy="242.5" rx="11.5" ry="5.5" fill="#0B0C0D"/>
<ellipse cx="200.5" cy="235.5" rx="11.5" ry="5.5" transform="rotate(-11.1889 200.5 235.5)" fill="#0B0C0D"/>
<path d="M46.0443 180.202C46.0443 167.94 49.9743 164.875 51.9393 164.875C82.5933 150.727 144.726 122.313 148.028 121.841C151.329 121.37 199.314 153.085 222.894 169.001H228.789C234.684 179.612 229.379 197.887 229.379 201.424C229.379 204.253 225.056 208.89 222.894 210.855C214.641 218.519 164.615 239.768 159.281 242.278C153.5 244.998 146.406 244.288 141.901 243.278C129.5 240.498 78.0738 224.807 51.9393 216.161C44.8653 214.746 45.0618 191.599 46.0443 180.202Z" fill="#FED585" stroke="black" stroke-width="5" stroke-linecap="round" stroke-linejoin="round"/>
<path d="M46.0445 144.834C46.0445 132.573 49.9745 129.507 51.9395 129.507C82.5935 115.359 144.727 86.9456 148.028 86.474C151.329 86.0024 199.314 117.717 222.894 133.634H228.789C234.684 144.245 229.379 162.519 229.379 166.056C229.379 168.886 225.056 173.523 222.894 175.488C214.641 183.152 161.439 205.057 156.281 207.911C152.5 210.002 147 209.267 142.901 208.911C132.087 207.97 76.4031 189.549 50.171 180.87L49.9395 180.794C42.8655 179.379 45.062 156.231 46.0445 144.834Z" fill="#FFFDF2" stroke="black" stroke-width="5" stroke-linecap="round" stroke-linejoin="round"/>
<path d="M46.0443 107.108C46.0443 94.8462 49.9743 91.7808 51.9393 91.7808C82.5933 77.6328 144.726 49.219 148.028 48.7474C151.329 48.2758 199.314 79.9908 222.894 95.9073H228.789C234.684 106.518 229.379 124.793 229.379 128.33C229.379 131.159 225.056 135.797 222.894 137.762C214.641 145.425 161.308 167.105 156.281 170.184C152.5 172.5 147.5 170.497 143.901 170.184C133.054 169.241 78.0738 151.713 51.9393 143.067C44.8653 141.652 45.0618 118.505 46.0443 107.108Z" fill="#FED585" stroke="black" stroke-width="5" stroke-linecap="round" stroke-linejoin="round"/>
<path d="M152 129.5C152 117.238 168.035 119 170 119C200.654 104.852 191.199 111.973 194.5 111.501C197.801 111.029 199.314 79.9915 222.894 95.9079H228.789C234.684 106.519 229.379 121.793 229.379 125.33C229.379 128.16 225.056 132.797 222.894 134.762C214.641 142.426 162.5 164 157 167C155.167 168 152 169.504 152 168.5C152 167 152 161.5 151.5 153.5C151.5 144 151.018 140.897 152 129.5Z" fill="#FCBC64"/>
<path d="M151.5 211.698C155.5 211.698 174.535 201.498 176.5 201.498C187.5 195.498 191.199 184.971 194.5 184.499C197.801 184.028 213 174.498 222.894 168.906H228.789C234.684 179.517 229.378 194.792 229.378 198.329C229.378 201.158 225.055 205.796 222.894 207.761C217 215.498 166.5 236.498 159 239.998C157.108 240.881 152 241.998 152 241.498C152 239.998 152 234.498 151.5 226.498L151.5 211.698Z" fill="#FCBC64"/>
<path d="M152 173.498C157.025 173.498 180.535 160.498 182.5 160.498C213.154 146.35 206.699 148.969 210 148.497C213.301 148.026 220 140.498 222.894 133.906H228.789C234.684 144.517 229.379 159.792 229.379 163.329C229.379 166.158 225.056 170.796 222.894 172.761C214.641 180.424 162.5 201.998 157 204.998C155.167 205.998 152 207.502 152 206.498C152 204.998 152.5 202.498 152 194.498L152 173.498Z" fill="#FFE9CE"/>
<path d="M192.414 185.126C201.125 178.598 198.726 174.94 197.304 172.308C195.654 169.254 188.325 165.663 184.322 165.529C170.511 165.068 165.981 174.476 164.98 180.28C163.555 188.534 165.192 194.897 170.026 195.174C176.24 195.531 186.676 189.803 192.414 185.126Z" fill="#DA1425"/>
<path d="M190.78 186.962C199.447 181.342 196.306 177.649 194.886 176.069C192.911 173.874 188.315 172.261 184.54 172.423C174.069 172.871 171.759 177.572 170.428 182.121C168.535 188.591 167.975 194.689 171.191 195.276C176.919 196.321 185.047 190.954 190.78 186.962Z" fill="#F6BABC"/>
<path d="M64.4458 177.608C54.7257 172.706 56.446 168.685 57.3852 165.845C58.475 162.549 65.0619 157.729 68.9795 156.896C82.4955 154.023 88.6034 162.492 90.6064 168.03C93.4548 175.907 92.9584 182.458 88.247 183.578C82.1921 185.018 70.9136 181.207 64.4458 177.608Z" fill="#DA1425"/>
<path d="M66.3758 179.13C56.8585 175.116 59.3031 170.929 60.4252 169.126C61.9851 166.619 66.2267 164.225 69.9719 163.723C80.3595 162.33 83.4579 166.553 85.5653 170.799C88.5623 176.837 90.1819 182.743 87.118 183.884C81.6623 185.916 72.7194 182.056 66.3758 179.13Z" fill="#F6BABC"/>
<path d="M70.3364 174.22C70.5817 176.263 72.3004 175.508 72.8758 174.863C73.2553 173.366 73.6325 172.314 73.6325 172.314C73.6802 170.743 72.1099 170.973 71.5275 171.559C70.4977 171.683 70.2341 173.369 70.3364 174.22Z" fill="#FF8D9E"/>
<path d="M76.3706 176.45C74.824 177.806 74.0753 176.127 74.0869 175.273C74.8123 173.915 75.2418 172.888 75.2418 172.888C76.2586 171.691 77.2505 172.885 77.2831 173.699C77.9519 174.462 77.0151 175.885 76.3706 176.45Z" fill="#FF8D9E"/>
<path d="M122.601 196.569C133.326 198.432 134.344 194.178 135.284 191.338C136.375 188.042 133.963 180.245 131.315 177.24C122.18 166.873 112.226 170.027 107.315 173.278C100.331 177.902 96.8221 183.456 99.9355 187.165C103.937 191.933 115.263 195.6 122.601 196.569Z" fill="#DA1425"/>
<path d="M107.984 192.501C98.3049 188.895 101.38 184.357 102.78 182.759C104.809 180.442 108.933 177.723 112.088 176.955C121.717 174.611 124.516 179.21 126.802 183.362C130.053 189.268 131.922 195.099 128.91 196.369C123.545 198.632 114.446 195.155 107.984 192.501Z" fill="#F6BABC"/>
<path d="M112.336 188.22C112.582 190.263 114.3 189.508 114.876 188.863C115.255 187.366 115.632 186.314 115.632 186.314C115.68 184.743 114.11 184.973 113.527 185.559C112.498 185.683 112.234 187.369 112.336 188.22Z" fill="#FF8D9E"/>
<path d="M118.372 190.45C116.825 191.806 116.076 190.127 116.088 189.273C116.813 187.915 117.243 186.888 117.243 186.888C118.26 185.691 119.251 186.885 119.284 187.699C119.953 188.462 119.016 189.885 118.372 190.45Z" fill="#FF8D9E"/>
<path d="M313.744 212.17C330.263 200.128 317.012 197.455 308.321 197.624C290.687 198.12 243.574 203.371 222.221 205.934C200.721 208.009 206.5 223.002 216.5 228.502C218.281 231.344 228.698 238.486 240 239.003C251.302 239.519 270.256 223.747 277.975 216.974C287.095 212.577 288.609 214.162 297.047 216.467C304.5 218.503 308.477 214.855 313.744 212.17Z" fill="#0B0C0D"/>
<path d="M317.621 193.375C318.672 190.358 317.325 184.211 310.968 182.028C300.385 178.393 293.727 173.312 287.924 163.242L257.823 177.747C257.823 177.747 268.952 200.526 287.402 204.962C305.852 209.399 313.88 204.117 317.621 193.375Z" fill="#FFFC56"/>
<path d="M288.849 163.944C289.876 167.13 293.755 172.947 300.141 177.467C306.527 181.986 315.02 182.334 316.807 188.039C319.131 195.457 316.08 204.774 296.461 206.765C286.51 207.775 277.664 201.459 270.894 194.603C267.761 191.894 262.195 185.227 259.022 180.228" stroke="black" stroke-width="5" stroke-linecap="round" stroke-linejoin="round"/>
<path d="M297.036 182.024C291.074 196.463 277.393 220.626 243.254 216.5C227.677 214.273 218.774 210.653 190.706 208.738C175.257 208.738 174.423 190.929 179.437 182.024C194.317 139.58 174.454 108.342 192.996 114.476C202.678 117.679 210.881 121.279 215.52 121.192C229.042 120.938 256.673 106.668 283.141 127.696C294.03 136.346 307.697 150.384 297.036 182.024Z" fill="#FFFC56" stroke="black" stroke-width="5"/>
<path d="M243.537 214.29C261.284 215.304 268.889 211.755 275.988 206.712C280.045 203.165 279.03 196.543 278.523 195.022C277.509 191.979 270.572 184.882 257.734 184.882C228.833 184.882 222.579 200.345 209.058 200.599C201.452 200.599 202.491 202.984 179.501 196.5C179.278 196.437 180.001 200.5 181.501 202C184.001 205.5 187.205 206.007 189.705 206.177C219.437 208.205 227.96 212.062 243.537 214.29Z" fill="white"/>
<path d="M264.192 156.144C269.071 165.354 280.468 168.873 289.641 164.024C298.813 159.175 302.31 147.782 297.431 138.572C292.551 129.361 281.155 125.842 271.982 130.691C262.81 135.54 259.312 146.933 264.192 156.144Z" fill="white" stroke="black" stroke-width="5"/>
<path d="M225.469 158.194C230.641 167.957 242.437 171.705 251.753 166.78C261.068 161.856 264.601 150.004 259.429 140.241C254.257 130.478 242.46 126.73 233.145 131.655C223.83 136.58 220.297 148.431 225.469 158.194Z" fill="white" stroke="black" stroke-width="5"/>
<path d="M278.571 152.803C282.496 154.177 286.844 151.963 288.284 147.856C289.723 143.75 287.708 139.307 283.783 137.933C279.858 136.559 275.51 138.774 274.071 142.88C272.631 146.986 274.646 151.429 278.571 152.803Z" fill="black"/>
<path d="M238.712 152.498C241.619 155.896 246.856 156.185 250.411 153.144C253.965 150.102 254.491 144.882 251.585 141.484C248.679 138.087 243.442 137.798 239.887 140.839C236.332 143.88 235.806 149.1 238.712 152.498Z" fill="black"/>
<path d="M262.743 174.994C262.743 174.994 236.592 176.248 245.772 165.929C252.158 158.75 262.006 152.688 267.043 153.363C274.117 154.311 283.342 160.673 285.848 167.974C286.265 176.079 276.127 175.004 262.743 174.994Z" fill="#FFD336" stroke="black" stroke-width="5"/>
<path d="M275.61 206.135C276.313 202.875 273.932 196.719 266.662 195.353C254.558 193.078 246.529 188.763 238.699 179.18L207.94 198.348C207.94 198.348 223.47 219.29 244.292 221.295C265.113 223.3 273.962 213.78 275.61 206.135Z" fill="#FFFC56"/>
<path d="M242.83 184.875C245.386 187.629 249.244 190.747 254.154 193.169C261.802 196.942 271.136 196.116 273.932 201.755C277.568 209.086 269.904 217.837 256.488 220.876C248.608 222.662 235.159 222.078 226.746 215.947C222.922 213.589 213.824 206.471 209.618 201.755C208.755 201.03 207.537 199.072 203.48 199.072" stroke="black" stroke-width="5" stroke-linecap="round" stroke-linejoin="round"/>
<path d="M255.577 192.41L255.577 192.41C253.722 193.846 252.037 195.989 252.589 198.566C253.116 201.022 255.465 202.707 258.536 203.868C262.437 205.602 263.902 207.338 264.561 208.518C264.907 209.139 265.082 209.695 265.249 210.253C265.256 210.275 265.263 210.299 265.27 210.324C265.343 210.568 265.44 210.893 265.555 211.179C265.616 211.33 265.705 211.529 265.835 211.742C266.032 212.648 266.36 213.478 266.881 214.157C267.542 215.018 268.439 215.536 269.454 215.682C271.259 215.942 273.041 214.98 274.328 214.067C275.73 213.074 277.094 211.74 278.204 210.451C279.261 209.226 280.192 207.921 280.722 206.855C282.526 204.001 282.394 200.94 282.001 199.381C281.7 192.278 276.339 188.523 271.312 187.623C267.374 186.919 264.287 187.402 261.696 188.488C259.365 189.466 257.501 190.915 255.943 192.126C255.819 192.223 255.697 192.317 255.577 192.41Z" fill="#FFF8E8" stroke="black" stroke-width="4"/>
<path d="M312.776 197.082C318.491 200.02 320.033 196.437 320.221 191.999C320.383 188.193 316.445 183.576 314.63 181.065C310.523 176.807 305.998 181.896 303.263 185.207C299.582 189.663 308.197 194.595 312.776 197.082Z" fill="#FFF8E8" stroke="black" stroke-width="3"/>
<path d="M207.701 221.065L207.701 221.065C206.906 218.384 205.321 216.544 203.146 216.107C201.045 215.686 199.106 216.734 198.002 218.25C197.189 219.367 196.041 220.679 194.88 221.747C194.301 222.28 193.749 222.724 193.259 223.048C192.744 223.388 192.415 223.517 192.268 223.549C190.178 223.999 188.414 223.729 185.787 222.633L185.763 222.623L185.738 222.613C185.06 222.351 184.25 222.155 183.427 222.301C182.467 222.472 181.718 223.071 181.33 223.915C180.998 224.637 180.993 225.393 181.055 225.964C181.121 226.569 181.288 227.187 181.5 227.772C181.925 228.945 182.611 230.201 183.42 231.315C184.22 232.415 185.231 233.503 186.368 234.225L187.441 232.536L186.368 234.225C189.301 236.086 192.824 236.309 195.945 235.893C199.091 235.474 202.091 234.375 204.237 233.269C206.809 231.943 207.799 229.329 208.114 227.123C208.435 224.886 208.149 222.578 207.701 221.065Z" fill="#FCBC64" stroke="black" stroke-width="4"/>
<path d="M240.726 215.645C238.635 215.689 236.739 216.505 235.34 217.383C232.368 218.801 230.983 221.837 230.783 224.222C230.683 225.413 230.844 226.817 231.624 227.882C232.042 228.452 232.654 228.936 233.46 229.139C234.255 229.339 235.045 229.217 235.748 228.933C236.759 228.524 237.62 228.666 238.338 229.068C239.091 229.491 239.667 230.2 239.94 230.855C240.266 231.883 240.768 232.819 241.583 233.448C242.491 234.149 243.514 234.264 244.395 234.116C245.206 233.98 245.936 233.621 246.484 233.309C246.905 233.07 247.342 232.784 247.693 232.554C247.797 232.486 247.894 232.423 247.98 232.367C250.828 230.535 250.938 227.353 250.398 224.992C249.846 222.577 248.492 220.19 247.194 218.683L245.68 220.015L247.194 218.683C245.273 216.45 242.971 215.598 240.726 215.645Z" fill="#F6BABC" stroke="black" stroke-width="4"/>
<path d="M178.784 230.416C179.871 230.137 180.892 229.874 181.827 229.541L178.784 230.416ZM178.784 230.416C178.713 230.435 178.643 230.453 178.573 230.471M178.784 230.416L178.573 230.471M178.573 230.471C177.465 230.756 176.24 231.076 175.208 231.512M178.573 230.471L175.208 231.512M175.208 231.512C174.224 231.926 172.991 232.613 172.348 233.892M175.208 231.512L172.348 233.892M172.348 233.892C171.634 235.31 171.936 236.819 172.646 238.17M172.348 233.892L172.646 238.17M172.646 238.17C173.514 239.82 174.807 240.808 176.292 241.322M172.646 238.17L176.292 241.322M176.292 241.322C177.69 241.807 179.192 241.848 180.517 241.798M176.292 241.322L180.517 241.798M180.517 241.798C181.189 241.773 181.87 241.721 182.509 241.672M180.517 241.798L182.509 241.672M182.509 241.672L182.515 241.671M182.509 241.672L182.515 241.671M182.515 241.671C183.169 241.621 183.781 241.574 184.376 241.551M182.515 241.671L184.376 241.551M184.376 241.551C185.587 241.503 186.544 241.564 187.304 241.807M184.376 241.551L187.304 241.807M187.304 241.807C188.664 242.242 190.142 242.338 191.377 241.52M187.304 241.807L191.377 241.52M191.377 241.52C192.586 240.718 192.984 239.417 193.115 238.453M191.377 241.52L193.115 238.453M193.115 238.453C193.374 236.56 192.837 234.23 192.547 233.008M193.115 238.453L192.547 233.008M192.547 233.008C192.253 231.767 191.683 230.71 190.801 229.924M192.547 233.008L190.801 229.924M190.801 229.924C189.924 229.143 188.88 228.757 187.849 228.609M190.801 229.924L187.849 228.609M187.849 228.609C185.878 228.326 183.685 228.878 181.828 229.541L187.849 228.609Z" fill="#FFFDF2" stroke="black" stroke-width="4"/>
<path d="M171 201C175.5 198.5 176.5 198.5 176.5 192" stroke="black" stroke-width="4" stroke-linecap="round"/>
<path d="M177.5 160C182 157.5 185 155 185 148.5" stroke="black" stroke-width="4" stroke-linecap="round"/>
<path d="M179.501 204.003C176.501 199.502 175.001 200.003 170.981 201.253" stroke="black" stroke-width="4" stroke-linecap="round"/>
<path d="M183.5 164.001C184 160.5 182.5 158 178 160" stroke="black" stroke-width="4" stroke-linecap="round"/>
<path d="M63.2309 77.1629C43.8953 79.5209 40.7774 94.0793 43.1354 100.564C39.8342 118.485 45.5109 123.607 48.2619 122.428C48.7335 115.825 57.5673 110.264 62.1044 111.048C68 112.068 71.6978 120.301 73.0733 124.428C78.4308 140.5 91.9198 137.755 97.4218 135.986C104.5 133.711 108.076 132.094 115.054 134.986C120 137.036 122.5 143.5 128.076 146.008C134.884 149.069 137.237 140.494 141.045 135.986C152.5 122.428 159.909 139.631 159.909 146.008C159.909 160 170 162 171.109 151.008C171.576 146.386 172.288 135.986 175.236 130.681C178.183 125.375 183.677 122.311 184.205 127.144C185.5 139 187 146.008 191.742 141.986C195 137.986 194.5 128 195.279 122.428C203.296 120.541 205.323 130.681 210.606 130.681C213.5 130.681 254 121.5 233.933 106.048C235.5 100.564 234.451 98.0301 230.933 92.4898C223 80 178.773 54.5829 156.372 43.3824C145.997 34.8936 89.9548 62.0324 63.2309 77.1629Z" fill="#FFF8E8" stroke="black" stroke-width="5" stroke-linecap="round" stroke-linejoin="round"/>
<path d="M228.999 109.002C230.139 105.032 230.558 101.512 227.999 97.5016C224.642 94.4688 216.368 99.3075 213.499 103.001C208.299 107.401 183.333 116.335 173.499 117.501C159.499 119.162 160.499 121.002 159.999 122.002C159.499 124.502 159.829 127.16 160.499 128.502C161.499 130.502 161.499 131.002 162.5 133.367C164.856 138.939 164.195 143.921 166.5 143.502C168.804 143.083 164 132.002 172 124.183C180 116.365 188.499 119.984 188.499 123.002C188.499 128.502 190.999 132.703 190.999 127.002C190.999 123.002 190.999 117.002 195.499 117.002C201.33 115.636 209.676 124.545 213.499 124.183C225.999 123.002 239.499 114.5 228.999 109.002Z" fill="#FAE8C0"/>
<path d="M178.02 87.1242C178.227 78.6509 163.262 68.7615 159.49 66.3008C184.564 73.9692 187.199 91.6924 182.994 96.0267C181.582 98.1636 176.061 98.9645 173.477 99.0978C176.4 97.7344 177.723 90.5473 178.02 87.1242Z" fill="#FAE8C0"/>
<path d="M145.385 97.7192C153 86.0039 145.031 73.3559 143.839 69.0136C157.529 91.3754 147.755 106.393 141.733 106.85C136.486 107.249 131.716 104.087 129.849 100.925C136.5 105.004 143.964 99.9055 145.385 97.7192Z" fill="#FAE8C0"/>
<path d="M167.435 91.8286C170.196 83.8151 165.186 74.8394 162.336 71.3533C180.821 88.8633 177.817 98.6865 169.484 101.819C167.492 103.428 162.552 104.64 151.628 104.221C154.826 103.805 165.906 100.455 167.435 91.8286Z" fill="#FAE8C0"/>
<path d="M159.89 79.5421C159.964 79.6808 160.026 79.8442 160.075 80.0303C164.438 91.7071 161.675 100.111 154.498 103.708C152.632 103.952 150.179 105.015 143.969 102.647C146.507 103.399 150.5 101.041 152.18 99.7677C157.759 94.6412 160.994 83.4708 160.075 80.0303C160.015 79.8682 159.953 79.7055 159.89 79.5421Z" fill="#FAE8C0"/>
<path d="M100.203 81.4615C101.825 72.851 116.347 63.3595 120 60.9995C97.5551 67.8652 91.613 85.7628 94.1873 90.3177C97 96.5 107.383 100.77 109.5 101C107.362 99.5085 97.5001 90.3177 100.203 81.4615Z" fill="#FAE8C0"/>
<path d="M112.5 91.9988C110.97 83.3727 127.65 75.4861 130.5 72C110.598 75.5 97.5 94.4988 110.598 100.531C114 102.098 116.076 104.419 127 104C123.802 103.584 114.03 100.625 112.5 91.9988Z" fill="#FAE8C0"/>
<path d="M130.125 100.772C126.498 95.4957 133.284 86.4885 142.095 75.5991C128.052 82.6003 113.871 97.9365 125.463 104.47C127.694 105.728 134.434 107.451 142.095 105.5C138.935 104.854 133.753 106.048 130.125 100.772Z" fill="#FAE8C0"/>
<path d="M169.746 12.1467C165.876 13.5065 160.323 24.5587 159.458 29.0944C154.58 43.1019 166.479 52.4266 171.597 58.8904C175.649 64.2373 188.114 61.1091 191.033 57.2624C189.369 52.5271 182.498 49.1778 179.271 48.0951C182.26 45.1105 184.207 36.8605 183.668 32.0121C177.823 32.052 177.823 32.052 171.597 33.1868C170.265 24.5605 169.279 16.3412 169.746 12.1467Z" fill="#60B534" stroke="black" stroke-width="5" stroke-linecap="round" stroke-linejoin="round"/>
<path d="M123.658 37.1548C139.277 19.7721 153.552 26.6133 159.72 31.2948C165.968 38.5168 175.157 51.3841 174.34 61.8208C173.216 76.181 158.948 82.0266 146.314 84.5707C123.083 89.2488 109.987 82.1565 106.969 78.3566C100.971 73.2936 114.469 47.3821 123.658 37.1548Z" fill="#DA1425" stroke="black" stroke-width="5" stroke-linecap="round" stroke-linejoin="round"/>
<path d="M118.391 69C114.061 69.6767 116.587 73.7935 118.391 75.7672C119.835 76.444 120.797 75.4853 121.098 74.9213C121.82 74.2446 122 71.8197 122 70.6918C122 69.3384 119.594 69 118.391 69Z" fill="#AC001A"/>
<path d="M147.196 74C145.03 74.29 146.293 76.0543 147.196 76.9002C147.917 77.1903 148.399 76.7794 148.549 76.5377C148.91 76.2477 149 75.2084 149 74.7251C149 74.145 147.797 74 147.196 74Z" fill="#AC001A"/>
<path d="M125.196 55C123.03 55.29 124.293 57.0543 125.196 57.9002C125.917 58.1903 126.399 57.7794 126.549 57.5377C126.91 57.2477 127 56.2084 127 55.7251C127 55.145 125.797 55 125.196 55Z" fill="#AC001A"/>
<path d="M133.314 56.0583C131.639 55.794 131.795 53.5401 132.082 52.4462C132.183 50.7816 135.199 51.7315 136.694 52.4145C138.03 53.2328 137.515 54.8225 137.091 55.515C136.412 56.6231 134.29 56.3389 133.314 56.0583Z" fill="#AC001A"/>
<path d="M140.031 67.2195C140.979 68.5734 142.739 66.2213 143.501 64.876C143.296 63.418 143.247 63.0532 143.247 63.0532C142.298 61.6993 140.988 62.7496 140.452 63.444C139.268 65.8395 139.678 66.9591 140.031 67.2195Z" fill="#AC001A"/>
<path d="M132.016 75.6836C131.572 76.5691 133.363 77.5659 134.314 77.9536C134.607 78.0826 135.335 77.1307 135.662 76.6386C136.74 75.585 135.107 74.5449 134.156 74.1565C133.332 73.6072 132.386 74.9457 132.016 75.6836Z" fill="#AC001A"/>
<path d="M127.51 67.1462C127.756 69.1886 129.474 68.4335 130.05 67.7888C130.429 66.2919 130.806 65.2394 130.806 65.2394C130.854 63.6687 129.284 63.899 128.701 64.4851C127.672 64.6088 127.408 66.2951 127.51 67.1462Z" fill="#AC001A"/>
<path opacity="0.7" d="M116.411 70.4379C119.552 59.1959 128.493 47.173 135.283 39.6637" stroke="white" stroke-width="6" stroke-linecap="round"/>
<path opacity="0.6" d="M145.723 35.8894C147.052 35.1933 147.516 36.0789 149.309 36.2683" stroke="white" stroke-width="6" stroke-linecap="round"/>
</g>
<defs>
<clipPath id="clip0_2270_17299">
<rect width="336" height="280" fill="white"/>
</clipPath>
</defs>
</svg>
