<svg width="336" height="280" viewBox="0 0 336 280" fill="none" xmlns="http://www.w3.org/2000/svg">
<g clip-path="url(#clip0_2270_17249)">
<path d="M253.01 249.458C252.668 258.19 251.584 269.708 188.162 271.951C124.74 274.195 104.495 268.9 90.7336 247.719C82.5998 235.2 105.547 225.414 172.577 227.401C223.373 228.906 253.643 233.298 253.01 249.458Z" fill="#0B0C0D"/>
<path d="M81.5703 190.461H93.1187V222.631H81.5703V190.461Z" fill="#935143"/>
<path d="M104.922 161.326C106.346 171.201 99.712 180.33 90.1039 181.716C80.4958 183.102 71.5523 176.22 70.1279 166.345C68.7035 156.47 75.3377 147.341 84.9458 145.955C94.5538 144.57 103.497 151.451 104.922 161.326Z" fill="#77DB6E"/>
<path d="M118.943 179.471C120.368 189.346 113.733 198.475 104.125 199.86C94.5173 201.246 85.5738 194.365 84.1494 184.49C82.725 174.615 89.3592 165.486 98.9673 164.1C108.575 162.714 117.519 169.596 118.943 179.471Z" fill="#77DB6E"/>
<path d="M93.373 181.123C94.7973 190.998 88.1632 200.127 78.5551 201.513C68.947 202.899 60.0035 196.017 58.5791 186.142C57.1547 176.267 63.7889 167.138 73.3969 165.752C83.005 164.366 91.9486 171.248 93.373 181.123Z" fill="#77DB6E"/>
<path d="M104.922 187.721C106.346 197.596 99.712 206.725 90.1039 208.11C80.4958 209.496 71.5523 202.615 70.1279 192.74C68.7035 182.865 75.3377 173.736 84.9458 172.35C94.5538 170.964 103.497 177.846 104.922 187.721Z" fill="#77DB6E"/>
<path d="M254.048 190.57H265.596V222.741H254.048V190.57Z" fill="#935143"/>
<path d="M277.398 161.436C278.823 171.311 272.189 180.439 262.58 181.825C252.972 183.211 244.029 176.329 242.604 166.454C241.18 156.579 247.814 147.451 257.422 146.065C267.03 144.679 275.974 151.561 277.398 161.436Z" fill="#77DB6E"/>
<path d="M291.421 179.58C292.845 189.455 286.211 198.584 276.603 199.97C266.995 201.356 258.051 194.474 256.627 184.599C255.203 174.724 261.837 165.595 271.445 164.209C281.053 162.824 289.996 169.705 291.421 179.58Z" fill="#77DB6E"/>
<path d="M265.85 181.233C267.274 191.108 260.64 200.236 251.032 201.622C241.424 203.008 232.48 196.126 231.056 186.251C229.631 176.376 236.265 167.248 245.874 165.862C255.482 164.476 264.425 171.358 265.85 181.233Z" fill="#77DB6E"/>
<path d="M277.398 187.83C278.823 197.705 272.189 206.834 262.58 208.22C252.972 209.606 244.029 202.724 242.604 192.849C241.18 182.974 247.814 173.845 257.422 172.459C267.03 171.074 275.974 177.955 277.398 187.83Z" fill="#77DB6E"/>
<path d="M92.2855 102.13C105.8 112.617 131.161 108.677 142.152 105.395C156.327 128.572 137.709 155.393 125.871 162.105C110.939 168.17 89.8715 151.281 81.164 140.804C73.8808 132.042 65.8621 116.134 69.2862 107.548C74.445 94.6123 87.6178 98.5192 92.2855 102.13Z" fill="#FFFC56"/>
<path fill-rule="evenodd" clip-rule="evenodd" d="M143.774 101.153L145.217 103.512C153.08 116.37 151.744 130.151 147.081 141.311C142.472 152.344 134.378 161.415 127.64 165.236L127.437 165.351L127.22 165.439C118.138 169.128 107.831 165.678 99.3793 160.77C90.7513 155.761 82.9917 148.63 78.4006 143.106C74.5326 138.452 70.5108 131.966 67.8781 125.461C66.5591 122.202 65.5469 118.836 65.1111 115.618C64.6791 112.428 64.7804 109.139 65.9477 106.212C67.4644 102.409 69.6691 99.6188 72.3672 97.7658C75.0523 95.9217 78.0113 95.1527 80.8208 95.0353C86.2869 94.8068 91.5617 97.019 94.4825 99.2781L94.487 99.2816C100.284 103.78 109.005 105.406 118.134 105.324C127.152 105.243 135.903 103.502 141.126 101.943L143.774 101.153ZM140.387 109.611C134.612 111.08 126.536 112.449 118.195 112.524C108.518 112.61 97.803 110.963 90.0855 104.976C88.3379 103.625 84.6937 102.079 81.118 102.229C79.4059 102.3 77.8128 102.754 76.4312 103.703C75.0626 104.643 73.6862 106.216 72.6235 108.88C72.0787 110.246 71.8984 112.166 72.2345 114.647C72.5667 117.1 73.3724 119.868 74.5405 122.755C76.8819 128.54 80.5111 134.39 83.9262 138.499C88.0426 143.451 95.1706 150.003 102.986 154.541C110.88 159.124 118.484 161.095 124.306 158.852C129.39 155.873 136.39 148.252 140.45 138.534C144.207 129.541 145.247 119.268 140.387 109.611Z" fill="black"/>
<path d="M148.191 235.036C159.215 232.42 153.869 228.726 167.375 233.218C173.773 235.346 178.967 235.116 177.712 242.938C176.051 253.289 166.354 255.558 156.219 255.213C144.057 254.798 137.962 251.729 135.848 249.835C131.416 245.863 131.839 237.731 148.191 235.036Z" fill="#FFFC56"/>
<path fill-rule="evenodd" clip-rule="evenodd" d="M168.564 229.664C165.176 228.537 162.72 227.836 160.815 227.539L168.564 229.664ZM160.815 227.539C158.761 227.219 157.112 227.331 155.476 227.983L160.815 227.539ZM155.476 227.983C154.772 228.263 154.155 228.612 153.689 228.879L155.476 227.983ZM153.689 228.879C153.607 228.926 153.526 228.973 153.448 229.018L153.689 228.879ZM153.448 229.018C153.045 229.25 152.686 229.457 152.244 229.683L153.448 229.018ZM152.244 229.683C151.275 230.178 149.857 230.785 147.458 231.363L152.244 229.683ZM147.458 231.363C139.006 232.778 133.393 235.766 130.958 240.14C128.3 244.914 130.184 249.788 133.348 252.622C136.372 255.333 143.472 258.52 156.082 258.95C161.367 259.13 167.025 258.663 171.718 256.475C176.656 254.172 180.364 250.017 181.407 243.519C181.776 241.214 181.752 239.049 181.037 237.112C180.281 235.065 178.909 233.686 177.37 232.745C175.944 231.874 174.318 231.348 172.925 230.94C172.398 230.786 171.901 230.648 171.415 230.512C170.472 230.25 169.57 229.999 168.564 229.664M155.636 236.345C154.102 237.13 152.086 237.953 149.047 238.675L148.92 238.705L148.791 238.726C140.966 240.015 138.238 242.432 137.494 243.768C136.96 244.727 137.081 245.905 138.349 247.042L138.35 247.042C139.552 248.12 144.644 251.071 156.357 251.47C161.207 251.635 165.464 251.141 168.569 249.693C171.428 248.36 173.399 246.205 174.017 242.352C174.275 240.746 174.121 240.006 174.015 239.72C173.95 239.544 173.859 239.381 173.457 239.135C172.942 238.82 172.148 238.517 170.807 238.124C170.456 238.022 170.054 237.909 169.618 237.788C168.585 237.5 167.364 237.159 166.186 236.767L166.186 236.767C162.821 235.648 160.881 235.127 159.645 234.934C158.615 234.774 158.349 234.885 158.245 234.929C158.239 234.931 158.234 234.933 158.229 234.935C158.068 234.999 157.859 235.106 157.4 235.369C157.338 235.405 157.272 235.443 157.202 235.483C156.798 235.716 156.26 236.026 155.636 236.345Z" fill="black"/>
<path d="M205.313 240.074C215.429 233.559 220.669 232.878 226.92 224.616C236.715 226.531 240.622 229.481 240.73 238.065C240.838 246.648 233.654 252.698 223.478 256.241C215.927 258.609 205.288 260.29 200.292 255.184C193.952 248.705 201.423 241.747 205.313 240.074Z" fill="#FFFC56"/>
<path fill-rule="evenodd" clip-rule="evenodd" d="M225.222 220.147L227.706 220.633C232.707 221.611 237.114 222.988 240.213 225.857C243.548 228.944 244.72 233.102 244.782 238.002C244.926 249.373 235.37 256.391 224.801 260.071L224.742 260.092L224.681 260.11C220.702 261.358 215.747 262.482 210.992 262.57C206.365 262.656 201.057 261.77 197.393 258.025C195.247 255.832 194.034 253.329 193.815 250.665C193.602 248.06 194.373 245.719 195.441 243.832C197.41 240.354 200.773 237.714 203.384 236.497C205.916 234.877 208.146 233.611 210.129 232.518C210.653 232.229 211.15 231.957 211.627 231.697C213.054 230.917 214.292 230.239 215.485 229.522C218.48 227.722 220.934 225.815 223.692 222.17L225.222 220.147ZM228.495 229.113C225.598 232.484 222.772 234.597 219.646 236.475C218.298 237.286 216.856 238.074 215.389 238.876C214.936 239.124 214.482 239.372 214.027 239.623C212.053 240.711 209.919 241.925 207.5 243.483L207.216 243.666L206.906 243.799C205.667 244.332 203.56 245.931 202.491 247.819C201.998 248.69 201.847 249.408 201.894 249.982C201.936 250.498 202.166 251.294 203.19 252.341L203.19 252.341C204.522 253.701 207.032 254.528 210.862 254.458C214.542 254.39 218.657 253.498 222.214 252.387C231.957 248.982 236.75 243.909 236.677 238.124C236.631 234.441 235.795 232.832 234.702 231.82C233.61 230.81 231.769 229.918 228.495 229.113Z" fill="black"/>
<path d="M111.512 120.606C115.191 77.8896 156.278 60.2386 175.421 56.6478C216.756 51.7143 237.794 77.6162 245.572 93.1131C267.371 136.545 263.976 182.434 260.215 198.871C256.454 215.308 245.127 238.655 191.44 239.261C166.048 237.951 159.147 236.892 145.373 234.091C114.604 227.834 111.72 203.775 113.893 188.137C118.72 153.394 110.255 140.184 111.512 120.606Z" fill="#FFFC56"/>
<path fill-rule="evenodd" clip-rule="evenodd" d="M174.998 53.0733C218.404 47.8927 240.626 75.2407 248.784 91.4955C271.057 135.872 267.611 182.665 263.719 199.674C261.741 208.322 257.68 219.153 246.786 227.821C235.938 236.453 218.805 242.552 191.48 242.861L191.367 242.862L191.255 242.856C165.73 241.539 158.646 240.464 144.657 237.619C128.29 234.291 118.888 226.069 114.055 216.221C109.32 206.575 109.194 195.837 110.333 187.642C112.691 170.671 111.804 159.022 110.48 149.166C110.205 147.12 109.904 145.117 109.606 143.134C108.484 135.664 107.405 128.484 107.926 120.376L107.928 120.337L107.932 120.298C109.877 97.7106 121.75 81.7718 135.465 71.1112C149.111 60.5051 164.721 54.9929 174.761 53.1095L174.879 53.0875L174.998 53.0733ZM175.966 60.2084C166.856 61.9375 152.421 67.0443 139.871 76.7986C127.346 86.5339 116.841 100.766 115.097 120.875C114.636 128.125 115.567 134.35 116.663 141.676C116.973 143.748 117.296 145.907 117.604 148.204C118.992 158.533 119.923 170.86 117.453 188.632C116.419 196.075 116.65 205.186 120.506 213.043C124.264 220.698 131.688 227.635 146.09 230.563C159.629 233.317 166.347 234.359 191.514 235.66C217.808 235.347 233.151 229.477 242.315 222.184C251.447 214.919 254.93 205.858 256.712 198.069C260.342 182.204 263.686 137.218 242.361 94.731C234.971 80.007 215.15 55.5859 175.966 60.2084Z" fill="black"/>
<path d="M124.73 219.725C133.014 214.684 135.166 208.393 139.469 195.813L139.47 195.812C142.411 187.215 141.701 172.849 149.53 161.888C150.974 154.975 172.446 146.99 193.18 151.207C198.283 152.865 211.567 155.012 218.717 173.36C221.429 180.32 220.478 191.608 226.134 202.269C229.478 207.264 234.157 214.13 244.508 218.906C242.667 221.195 235.234 228.123 227.034 230.93C218.237 235.032 200.463 237.503 179.384 236.252C174.826 236.152 164.695 235.438 160.196 234.305C151.219 232.674 149.268 231.46 146.064 230.923C142.859 230.386 128.727 227.005 124.73 219.725Z" fill="white"/>
<path d="M170.003 105.151C163.245 118.215 147.201 123.352 134.169 116.624C121.137 109.896 116.051 93.8518 122.81 80.7876C129.568 67.7234 145.612 62.5868 158.644 69.3146C171.676 76.0424 176.762 92.0869 170.003 105.151Z" fill="white"/>
<path fill-rule="evenodd" clip-rule="evenodd" d="M137.475 110.234C146.959 115.13 158.669 111.404 163.61 101.851C168.552 92.2983 164.822 80.6005 155.338 75.7044C145.854 70.8082 134.144 74.5352 129.202 84.0878C124.26 93.6404 127.991 105.338 137.475 110.234ZM134.169 116.624C147.201 123.352 163.245 118.215 170.003 105.151C176.762 92.0869 171.676 76.0424 158.644 69.3146C145.612 62.5868 129.568 67.7234 122.81 80.7876C116.051 93.8518 121.137 109.896 134.169 116.624Z" fill="black"/>
<path d="M218.306 107.233C211.227 120.917 194.721 126.452 181.439 119.595C168.157 112.739 163.129 96.0868 170.208 82.4026C177.287 68.7183 193.793 63.1834 207.075 70.0401C220.357 76.8967 225.385 93.5485 218.306 107.233Z" fill="white"/>
<path fill-rule="evenodd" clip-rule="evenodd" d="M184.745 113.205C194.315 118.146 206.564 114.272 211.913 103.933C217.262 93.5934 213.34 81.3704 203.769 76.4299C194.199 71.4894 181.95 75.3636 176.601 85.7027C171.252 96.0419 175.175 108.265 184.745 113.205ZM181.439 119.595C194.721 126.452 211.227 120.917 218.306 107.233C225.385 93.5485 220.357 76.8967 207.075 70.0401C193.793 63.1834 177.287 68.7183 170.208 82.4026C163.129 96.0868 168.157 112.739 181.439 119.595Z" fill="black"/>
<path d="M152.613 91.0194C150.232 95.625 144.394 97.3401 139.574 94.8503C134.754 92.3605 132.777 86.6087 135.158 82.0031C137.539 77.3976 143.377 75.6824 148.197 78.1722C153.017 80.662 154.994 86.4139 152.613 91.0194Z" fill="black"/>
<path fill-rule="evenodd" clip-rule="evenodd" d="M142.878 88.4597C144.444 89.2685 145.804 88.5239 146.221 87.7176C146.638 86.9114 146.459 85.3717 144.893 84.5629C143.327 83.754 141.967 84.4986 141.55 85.3049C141.133 86.1112 141.312 87.6508 142.878 88.4597ZM139.574 94.8503C144.394 97.3401 150.232 95.625 152.613 91.0194C154.994 86.4139 153.017 80.662 148.197 78.1722C143.377 75.6824 137.539 77.3976 135.158 82.0031C132.777 86.6087 134.754 92.3605 139.574 94.8503Z" fill="black"/>
<path d="M198.152 94.1979C194.821 98.1708 188.751 98.5652 184.595 95.0788C180.438 91.5924 179.77 85.5454 183.101 81.5725C186.432 77.5996 192.502 77.2052 196.658 80.6916C200.815 84.178 201.483 90.225 198.152 94.1979Z" fill="black"/>
<path fill-rule="evenodd" clip-rule="evenodd" d="M189.217 89.5661C190.567 90.6985 192.057 90.2702 192.64 89.5744C193.224 88.8786 193.386 87.3368 192.036 86.2043C190.686 85.0719 189.196 85.5003 188.613 86.196C188.029 86.8918 187.867 88.4336 189.217 89.5661ZM184.595 95.0788C188.751 98.5652 194.821 98.1708 198.152 94.1979C201.483 90.225 200.815 84.178 196.658 80.6916C192.502 77.2052 186.432 77.5996 183.101 81.5725C179.77 85.5454 180.438 91.5924 184.595 95.0788Z" fill="black"/>
<path d="M168.269 127.212C168.269 127.212 200.888 128.457 189.317 115.704C181.268 106.831 168.917 99.3937 162.645 100.296C153.836 101.564 142.413 109.608 139.378 118.741C138.956 128.851 151.583 127.388 168.269 127.212Z" fill="#FFD336"/>
<path fill-rule="evenodd" clip-rule="evenodd" d="M162.719 123.703C164.462 123.67 166.301 123.635 168.234 123.615L168.322 123.614L168.409 123.617L168.409 123.617L168.41 123.617L168.41 123.617L168.422 123.618L168.481 123.62C168.535 123.621 168.618 123.624 168.727 123.627C168.947 123.632 169.274 123.639 169.689 123.643C170.521 123.652 171.702 123.651 173.085 123.611C175.881 123.531 179.378 123.296 182.459 122.707C183.999 122.412 185.335 122.048 186.384 121.619C187.476 121.173 187.987 120.767 188.173 120.548C188.186 120.533 188.196 120.523 188.202 120.518C188.199 120.517 188.196 120.512 188.195 120.503C188.149 120.251 187.879 119.472 186.651 118.119C182.877 113.959 178.064 110.111 173.494 107.436C171.212 106.1 169.065 105.1 167.204 104.491C165.287 103.863 163.945 103.74 163.155 103.854C159.5 104.38 155.004 106.389 151.03 109.424C147.223 112.33 144.282 115.88 142.967 119.378C142.995 120.733 143.404 121.334 143.813 121.713C144.441 122.294 145.679 122.893 148.01 123.286C151.718 123.912 156.635 123.819 162.719 123.703ZM168.224 130.807C166.582 130.825 164.945 130.857 163.331 130.889C157.11 131.012 151.245 131.127 146.806 130.378C143.947 129.895 141.065 128.975 138.922 126.992C136.608 124.851 135.643 121.941 135.783 118.593L135.804 118.088L135.963 117.609C137.783 112.131 141.976 107.29 146.663 103.711C151.361 100.123 156.982 97.4767 162.135 96.7353C164.481 96.3977 167.035 96.8659 169.449 97.6561C171.919 98.4648 174.539 99.7096 177.135 101.229C182.321 104.265 187.708 108.572 191.984 113.285C193.649 115.121 194.89 117.093 195.275 119.213C195.698 121.539 195.011 123.614 193.647 125.213C192.402 126.671 190.701 127.623 189.101 128.277C187.457 128.948 185.619 129.424 183.806 129.771C180.178 130.465 176.244 130.716 173.286 130.8C171.792 130.843 170.515 130.845 169.608 130.835C169.154 130.83 168.791 130.823 168.539 130.816C168.412 130.813 168.313 130.81 168.244 130.808L168.224 130.807Z" fill="black"/>
<path d="M63.5395 48.0564C64.7907 38.2258 80.9128 36.4733 90.2344 42.28C109.395 54.2154 103.007 75.5949 98.8373 83.0054C96.7524 86.7106 90.9053 93.4714 90.5261 101.061C90.0836 109.915 87.5976 110.242 81.04 112.214C75.7939 113.792 78.0963 102.693 79.9033 96.9457C82.3446 90.6708 77.0546 85.527 74.1045 83.7394C66.2775 80.7074 66.3434 75.5753 61.5012 69.8313C57.6274 65.2361 61.246 53.4 63.5395 48.0564Z" fill="#D26D34"/>
<path fill-rule="evenodd" clip-rule="evenodd" d="M73.2402 35.7627C79.3751 34.6839 86.6521 35.8089 92.1408 39.2279C102.886 45.9213 106.568 55.4393 106.881 64.207C107.186 72.7669 104.309 80.6143 101.974 84.764C101.437 85.7174 100.702 86.8195 99.984 87.8968C99.8919 88.035 99.8 88.1728 99.7089 88.3098C98.8664 89.576 97.9873 90.918 97.1682 92.3537C95.5079 95.2638 94.2686 98.2685 94.1204 101.236C93.8931 105.783 93.1374 109.345 90.5667 111.81C89.3292 112.997 87.8915 113.711 86.5146 114.24C85.4197 114.66 84.1496 115.038 82.8781 115.416C82.6096 115.496 82.3411 115.576 82.0741 115.656C80.9131 116.005 79.5271 116.133 78.1404 115.612C76.717 115.077 75.7893 114.046 75.2316 113.02C74.2403 111.195 74.1539 108.921 74.2312 107.171C74.3972 103.416 75.5304 98.8588 76.4698 95.871L76.5056 95.7571L76.5489 95.6457C77.2637 93.8085 76.916 92.1282 75.944 90.5198C74.9885 88.9385 73.5405 87.6602 72.4677 86.9597C67.9511 85.1354 65.5317 82.5978 63.6761 79.7799C63.0973 78.9009 62.5219 77.9075 61.9939 76.9958C61.7587 76.5897 61.5329 76.1999 61.3203 75.8436C60.5727 74.5901 59.7819 73.3757 58.7473 72.1484C57.1213 70.2195 56.4839 67.7952 56.2791 65.5749C56.0709 63.3181 56.2754 60.9077 56.6585 58.6314C57.3867 54.3045 58.849 49.9576 60.0468 47.0801C61.1987 40.2169 67.363 36.7961 73.2402 35.7627ZM74.4806 42.8445C69.8018 43.6672 67.4424 45.8899 67.1095 48.5055L67.0458 49.0059L66.8468 49.4696C65.7817 51.9513 64.4045 55.9662 63.7566 59.8163C63.4325 61.7414 63.3153 63.4856 63.4465 64.9074C63.581 66.3658 63.944 67.1442 64.2548 67.5129C65.6413 69.1577 66.6581 70.7387 67.5046 72.1578C67.8292 72.702 68.1084 73.185 68.3666 73.6318C68.8278 74.4296 69.2224 75.1123 69.6907 75.8235C70.9245 77.6973 72.3128 79.1872 75.4086 80.3865L75.7031 80.5005L75.9731 80.6641C77.8358 81.7928 80.3613 83.9096 82.1071 86.7986C83.8908 89.7504 84.9641 93.733 83.3042 98.1224C82.4463 100.874 81.5458 104.679 81.422 107.481C81.4072 107.816 81.4054 108.104 81.4116 108.351C82.435 108.045 83.2335 107.799 83.9381 107.528C84.8854 107.164 85.3265 106.873 85.5854 106.625C86.0078 106.22 86.7163 105.192 86.9315 100.885C87.1625 96.2625 89.0365 92.092 90.9158 88.7981C91.8664 87.1318 92.8637 85.6145 93.7158 84.3338C93.8053 84.1992 93.8924 84.0685 93.9772 83.9412C94.7377 82.7995 95.3071 81.9446 95.7005 81.2455C97.5353 77.9847 99.9364 71.4371 99.6879 64.4708C99.4468 57.7122 96.7429 50.5728 88.3277 45.3308L88.3277 45.3308C84.4948 42.9432 79.0499 42.041 74.4806 42.8445Z" fill="black"/>
<path d="M118.813 158.172C108.906 157.931 104.75 173.607 109.089 183.695C118.009 204.432 140.105 201.331 148.059 198.323C152.035 196.819 159.598 192.054 167.158 192.82C175.979 193.714 176.675 191.305 179.611 185.119C181.96 180.17 170.64 180.777 164.687 181.7C158.116 183.17 153.826 177.167 152.503 173.981C150.682 165.788 145.598 165.081 140.647 159.43C136.687 154.91 124.441 156.708 118.813 158.172Z" fill="#D26D34"/>
<path fill-rule="evenodd" clip-rule="evenodd" d="M105.202 165.916C103.213 171.819 103.231 179.183 105.786 185.123C110.788 196.752 119.644 201.824 128.265 203.451C136.682 205.04 144.873 203.375 149.326 201.69C150.35 201.303 151.55 200.742 152.723 200.194C152.873 200.123 153.023 200.053 153.172 199.984C154.551 199.341 156.01 198.674 157.552 198.08C160.679 196.876 163.836 196.102 166.792 196.402C171.321 196.861 174.957 196.649 177.78 194.478C179.139 193.433 180.061 192.119 180.791 190.838C181.371 189.818 181.936 188.619 182.501 187.419C182.62 187.166 182.74 186.912 182.859 186.66C183.379 185.565 183.713 184.214 183.406 182.765C183.092 181.277 182.212 180.205 181.281 179.499C179.627 178.245 177.391 177.818 175.65 177.631C171.913 177.231 167.236 177.666 164.141 178.145L164.023 178.164L163.907 178.19C161.983 178.62 160.374 178.024 158.93 176.821C157.51 175.639 156.464 174.015 155.933 172.849C154.808 168.11 152.663 165.336 150.156 163.078C149.374 162.374 148.479 161.656 147.657 160.996C147.291 160.703 146.939 160.421 146.619 160.157C145.492 159.23 144.41 158.265 143.353 157.058C141.69 155.161 139.389 154.166 137.225 153.63C135.025 153.085 132.611 152.924 130.303 152.961C125.916 153.03 121.399 153.823 118.374 154.574C111.416 154.681 107.107 160.261 105.202 165.916ZM112.017 168.207C113.533 163.705 116.085 161.707 118.721 161.771L119.226 161.783L119.714 161.656C122.328 160.976 126.504 160.218 130.408 160.156C132.36 160.126 134.102 160.272 135.488 160.615C136.909 160.967 137.624 161.443 137.942 161.806C139.359 163.424 140.77 164.667 142.045 165.717C142.535 166.12 142.97 166.469 143.373 166.791C144.092 167.367 144.708 167.86 145.341 168.43C147.008 169.931 148.272 171.528 148.992 174.768L149.061 175.077L149.182 175.368C150.018 177.379 151.731 180.194 154.325 182.355C156.975 184.562 160.751 186.222 165.34 185.241C168.189 184.806 172.086 184.488 174.875 184.787C175.208 184.822 175.493 184.864 175.736 184.907C175.28 185.873 174.917 186.625 174.543 187.281C174.041 188.163 173.687 188.556 173.403 188.774C172.939 189.131 171.816 189.677 167.525 189.242C162.921 188.776 158.516 190.001 154.977 191.364C153.187 192.053 151.537 192.811 150.143 193.461C149.996 193.529 149.854 193.596 149.715 193.66C148.472 194.241 147.541 194.675 146.791 194.959C143.291 196.283 136.457 197.672 129.607 196.379C122.962 195.125 116.31 191.378 112.393 182.271L112.393 182.271C110.609 178.122 110.535 172.604 112.017 168.207Z" fill="black"/>
<path d="M172.824 190.006C169.838 186.26 167.804 177.663 176.224 168.887C184.643 160.11 184.058 147.288 185.507 143.063L247.913 139.168C247.913 139.168 231.884 173.452 215.997 186.155C200.109 198.858 183.456 203.347 172.824 190.006Z" fill="#FFFC56"/>
<path fill-rule="evenodd" clip-rule="evenodd" d="M247.26 142.987C249.045 143.855 249.79 146.009 248.923 147.797L245.861 146.309C248.923 147.797 248.923 147.797 248.923 147.797L248.909 147.826L248.873 147.899C248.842 147.962 248.797 148.054 248.738 148.173C248.621 148.411 248.448 148.758 248.223 149.202C247.774 150.089 247.119 151.364 246.285 152.93C244.619 156.059 242.236 160.363 239.362 165.06C233.689 174.335 225.845 185.589 217.651 192.14C209.726 198.477 201.198 203.002 192.925 203.969C184.392 204.968 176.396 202.129 170.211 194.369C166.151 189.274 163.852 178.648 173.253 168.718C176.729 165.046 178.296 161.083 179.152 157.44C179.586 155.592 179.833 153.85 180.064 152.196C180.075 152.119 180.086 152.04 180.097 151.962C180.301 150.496 180.53 148.844 180.953 147.513C181.555 145.618 183.577 144.571 185.469 145.173C187.36 145.776 188.405 147.8 187.803 149.695C187.586 150.377 187.431 151.418 187.184 153.19C186.955 154.829 186.669 156.876 186.149 159.088C185.097 163.566 183.067 168.813 178.469 173.671C171.72 180.799 173.836 187.375 175.83 189.877C180.427 195.644 185.96 197.536 192.094 196.818C198.488 196.07 205.764 192.434 213.167 186.514C220.302 180.81 227.598 170.513 233.233 161.301C236.013 156.755 238.326 152.581 239.942 149.544C240.75 148.027 241.382 146.797 241.811 145.949C242.025 145.526 242.189 145.198 242.297 144.978C242.352 144.868 242.392 144.785 242.419 144.731L242.448 144.671L242.456 144.655C242.456 144.655 242.456 144.655 242.456 144.655C243.323 142.866 245.474 142.119 247.26 142.987Z" fill="black"/>
</g>
<defs>
<clipPath id="clip0_2270_17249">
<rect width="336" height="280" fill="white"/>
</clipPath>
</defs>
</svg>
