<svg width="336" height="280" viewBox="0 0 336 280" fill="none" xmlns="http://www.w3.org/2000/svg">
<g clip-path="url(#clip0_2447_20257)">
<path d="M265.082 220.338C264.613 232.336 263.224 248.163 186.181 251.641C109.138 255.119 84.5828 247.972 68.0007 218.962C58.2 201.816 86.1312 188.231 167.531 190.542C229.215 192.292 265.952 198.135 265.082 220.338Z" fill="#0B0C0D"/>
<path d="M285.521 222.13C285.254 228.955 284.605 239.965 254.857 242.495C238 242.495 220.497 232.5 220.497 222.761C216.838 213.082 216.712 205.157 248.099 205.887C271.885 206.44 286.016 209.499 285.521 222.13Z" fill="#0B0C0D"/>
<path d="M62.2327 99.1698C77.8807 106.273 101.747 96.5177 111.724 90.7524C130.97 110.101 119.02 140.646 109.015 149.96C95.8351 159.363 71.3157 147.763 60.3679 139.553C51.2106 132.685 39.6715 119.006 41.0188 109.819C43.0487 95.977 56.8309 96.7283 62.2327 99.1698Z" fill="#FFFC56"/>
<path fill-rule="evenodd" clip-rule="evenodd" d="M112.322 86.2321L114.281 88.2018C124.959 98.9358 126.861 112.714 124.902 124.706C122.966 136.56 117.169 147.309 111.474 152.611L111.302 152.771L111.111 152.907C103.094 158.627 92.2192 157.654 82.8172 154.826C73.2196 151.939 63.9769 146.777 58.2045 142.448C53.3412 138.801 47.9011 133.399 43.8141 127.655C41.7665 124.777 39.9937 121.723 38.8186 118.679C37.6538 115.663 36.9873 112.425 37.4466 109.293C38.0434 105.224 39.5484 101.984 41.7537 99.5452C43.9483 97.1181 46.6609 95.6778 49.379 94.909C54.6674 93.4133 60.337 94.3471 63.7171 95.8749L63.7224 95.8772C70.4344 98.9238 79.3351 98.4824 88.2368 96.2772C97.0307 94.0988 105.178 90.3605 109.918 87.6211L112.322 86.2321ZM110.981 95.2861C105.679 98.0659 98.1061 101.284 89.9733 103.298C80.5368 105.636 69.6821 106.521 60.7467 102.466C58.7244 101.553 54.8034 100.891 51.344 101.869C49.6876 102.338 48.2364 103.153 47.1072 104.401C45.9886 105.638 45.0096 107.496 44.5915 110.347C44.3771 111.809 44.6478 113.726 45.5538 116.073C46.4496 118.393 47.8812 120.91 49.6946 123.459C53.3296 128.568 58.2377 133.439 62.5317 136.659C67.7071 140.541 76.198 145.284 84.892 147.899C93.6731 150.54 101.562 150.696 106.729 147.149C111.004 143.054 116.07 133.977 117.776 123.535C119.354 113.872 117.978 103.592 110.981 95.2861Z" fill="black"/>
<path d="M107.288 214.119C118.09 210.534 114.081 210.807 127.991 214.119C134.58 215.687 139.757 215.002 139.187 222.939C138.432 233.443 128.927 236.564 118.754 237.107C106.547 237.758 100.178 235.221 97.8972 233.51C93.1132 229.924 91.1604 218.249 107.288 214.119Z" fill="#FFFC56" stroke="black" stroke-width="7"/>
<path d="M181.185 218.977C191.956 213.492 197.262 213.343 204.348 205.719C213.942 208.627 217.548 211.971 216.786 220.561C216.023 229.15 208.23 234.468 197.7 236.977C189.914 238.578 179.11 239.18 174.634 233.57C168.955 226.452 177.128 220.255 181.185 218.977Z" fill="#FFFC56" stroke="black" stroke-width="7"/>
<path d="M94.9856 96.8752C98.6813 53.9641 137.962 36.2326 157.192 32.6254C198.716 27.6694 218.86 53.6895 226.673 69.257C248.572 112.887 238.235 158.986 234.457 175.498C230.678 192.01 227.216 215.463 173.284 216.072C147.776 214.755 140.843 213.692 127.007 210.878C96.0977 204.592 90.1711 180.424 92.3541 164.714C97.2037 129.813 92.3541 110.705 94.9856 96.8752Z" fill="#FFFC56" stroke="black" stroke-width="7"/>
<path d="M106.27 196.448C114.591 191.384 116.753 185.065 121.076 172.427L121.077 172.427C124.031 163.79 123.319 149.358 131.183 138.348C132.634 131.403 154.203 123.381 175.032 127.618C180.158 129.283 193.503 131.44 200.685 149.872C203.41 156.863 202.454 168.203 208.136 178.912C211.496 183.93 216.196 190.828 226.594 195.625C224.745 197.925 217.278 204.884 209.04 207.705C200.203 211.825 182.348 214.307 161.173 213.051C156.594 212.95 146.417 212.233 141.898 211.094C132.88 209.456 130.92 208.237 127.701 207.697C124.482 207.158 110.285 203.761 106.27 196.448Z" fill="white"/>
<path d="M151.749 81.3506C144.959 94.4744 128.843 99.6345 115.751 92.876C102.659 86.1175 97.5504 69.9998 104.34 56.876C111.129 43.7522 127.246 38.5921 140.337 45.3506C153.429 52.1091 158.538 68.2269 151.749 81.3506Z" fill="white"/>
<path fill-rule="evenodd" clip-rule="evenodd" d="M119.072 86.457C128.599 91.3755 140.362 87.6316 145.327 78.0354C150.291 68.4392 146.544 56.6881 137.017 51.7696C127.489 46.8511 115.726 50.595 110.762 60.1912C105.797 69.7875 109.544 81.5386 119.072 86.457ZM115.751 92.876C128.843 99.6345 144.959 94.4744 151.749 81.3506C158.538 68.2269 153.429 52.1091 140.337 45.3506C127.246 38.5921 111.129 43.7522 104.34 56.876C97.5504 69.9998 102.659 86.1175 115.751 92.876Z" fill="black"/>
<path d="M200.271 83.4395C193.16 97.1862 176.579 102.746 163.236 95.8584C149.894 88.9704 144.843 72.2428 151.954 58.4961C159.066 44.7494 175.647 39.1892 188.99 46.0772C202.332 52.9651 207.383 69.6928 200.271 83.4395Z" fill="white"/>
<path fill-rule="evenodd" clip-rule="evenodd" d="M166.557 89.4394C176.171 94.4024 188.476 90.5106 193.85 80.1243C199.223 69.738 195.282 57.4592 185.669 52.4962C176.055 47.5331 163.749 51.425 158.376 61.8113C153.003 72.1976 156.943 84.4764 166.557 89.4394ZM163.236 95.8584C176.579 102.746 193.16 97.1862 200.271 83.4395C207.383 69.6928 202.332 52.9651 188.99 46.0772C175.647 39.1892 159.066 44.7494 151.954 58.4961C144.843 72.2428 149.894 88.9704 163.236 95.8584Z" fill="black"/>
<path d="M137.293 72.1767C134.901 76.8033 129.037 78.5262 124.195 76.0251C119.353 73.524 117.367 67.7458 119.759 63.1193C122.151 58.4927 128.015 56.7698 132.857 59.2709C137.699 61.772 139.685 67.5502 137.293 72.1767Z" fill="black"/>
<path d="M183.041 75.3665C179.694 79.3575 173.597 79.7537 169.422 76.2514C165.246 72.749 164.575 66.6745 167.921 62.6834C171.268 58.6924 177.365 58.2962 181.54 61.7985C185.716 65.3009 186.387 71.3754 183.041 75.3665Z" fill="black"/>
<path d="M153.021 103.514C153.021 103.514 185.789 104.765 174.165 91.9534C166.079 83.0402 153.672 75.569 147.371 76.4756C138.523 77.7488 127.047 85.8298 123.998 95.0048C123.574 105.16 136.259 103.691 153.021 103.514Z" fill="#FFD336"/>
<path fill-rule="evenodd" clip-rule="evenodd" d="M147.446 99.9882C149.197 99.955 151.044 99.9199 152.987 99.8994L153.075 99.8985L153.161 99.9018L153.162 99.9018L153.163 99.9019L153.163 99.9019L153.175 99.9023L153.234 99.9043C153.288 99.906 153.371 99.9085 153.482 99.9113C153.702 99.9169 154.031 99.9238 154.448 99.9281C155.283 99.9369 156.47 99.9358 157.859 99.8959C160.668 99.8153 164.181 99.5793 167.276 98.9875C168.823 98.6915 170.165 98.3251 171.219 97.8949C172.316 97.4466 172.829 97.0385 173.016 96.8191C173.03 96.8034 173.039 96.794 173.045 96.7887C173.042 96.787 173.039 96.7826 173.038 96.7735C172.992 96.5198 172.72 95.7376 171.487 94.3783C167.696 90.2 162.861 86.3345 158.27 83.6468C155.978 82.3048 153.821 81.3005 151.951 80.6884C150.025 80.0579 148.677 79.9342 147.884 80.0484C144.212 80.5767 139.696 82.5952 135.703 85.644C131.88 88.5636 128.925 92.1292 127.604 95.6433C127.632 97.0043 128.042 97.6082 128.454 97.9892C129.084 98.5724 130.329 99.1741 132.67 99.5693C136.395 100.198 141.334 100.104 147.446 99.9882ZM152.976 107.125C151.326 107.143 149.682 107.175 148.061 107.207C141.812 107.33 135.92 107.446 131.46 106.693C128.588 106.209 125.693 105.285 123.54 103.292C121.216 101.142 120.247 98.2175 120.387 94.8543L120.408 94.3474L120.568 93.8659C122.397 88.3634 126.608 83.5003 131.317 79.9044C136.036 76.3007 141.682 73.6421 146.859 72.8973C149.216 72.5582 151.782 73.0284 154.207 73.8223C156.688 74.6347 159.32 75.8852 161.928 77.4119C167.137 80.4614 172.549 84.7881 176.844 89.523C178.517 91.3666 179.764 93.3479 180.151 95.478C180.575 97.8146 179.885 99.899 178.515 101.505C177.265 102.97 175.556 103.926 173.948 104.583C172.297 105.257 170.451 105.735 168.629 106.084C164.985 106.781 161.033 107.033 158.061 107.118C156.56 107.161 155.277 107.162 154.366 107.153C153.91 107.148 153.546 107.14 153.292 107.134C153.165 107.131 153.066 107.128 152.997 107.125L152.976 107.125Z" fill="black"/>
<path d="M93.4721 120.246C82.221 123.059 79.9105 128.617 77.9014 130.794L91.9652 142.346L93.4721 120.246Z" fill="#794037" stroke="black" stroke-width="6" stroke-linejoin="round"/>
<path d="M77.9065 184.042C76.3997 157.923 76.3997 140.846 77.9064 131.805C106.034 139.841 147.222 145.366 178.865 143.859C178.865 143.859 222.563 141.85 251.696 125.777V183.037C251.696 192.078 247.175 200.617 230.098 208.654C230.098 208.654 201.468 219.704 171.833 219.704C171.833 219.704 116.296 219.704 94.4819 210.161C86.4452 206.645 78.8338 200.115 77.9065 184.042Z" fill="#CB8E5E" stroke="black" stroke-width="6" stroke-linejoin="round"/>
<path d="M79.9102 156.41L79.9102 152.391C108.038 160.427 147.222 163.445 178.865 161.938C178.865 161.938 219.545 158.921 248.677 142.848V147.87C248.677 149.88 229.59 156.912 218.038 159.926C218.038 159.926 195.435 166.957 163.289 166.957C163.289 166.957 130.641 165.953 101.006 161.934C95.9303 161.246 79.9102 157.92 79.9102 156.41Z" fill="#A97455"/>
<path d="M81.9193 192.577C81.6681 192.074 81.417 189.563 81.417 188.558C109.545 196.595 147.222 199.612 178.865 198.106C178.865 198.106 219.545 196.093 248.677 180.02V184.038C248.677 187.055 232.604 193.078 218.037 196.595C218.037 196.595 191.919 203.124 165.8 203.124C165.8 203.124 123.609 203.124 102.011 198.102C93.3883 196.096 82.1704 193.079 81.9193 192.577Z" fill="#A97455"/>
<path d="M80.4123 173.991C80.0909 173.351 80.4125 173.488 80.4124 169.972C108.709 178.009 147.116 181.026 178.949 179.52C178.949 179.52 219.37 177.507 248.677 161.434V165.954C248.677 168.466 233.01 174.492 218.356 178.009C218.356 178.009 192.081 184.539 165.806 184.539C165.806 184.539 123.362 184.539 101.635 179.516C92.9607 177.511 80.7338 174.63 80.4123 173.991Z" fill="#A97455"/>
<path d="M193.928 144.355C195.677 148.99 197.651 154.903 198.267 163.442M193.928 215.177C195.801 206.937 197.598 194.701 198.267 186.547M198.267 163.442C200.839 164.279 208.594 162.438 213.014 160.428M198.267 163.442C198.49 169.545 198.969 177.985 198.267 186.547M198.267 186.547C200.876 187.049 207.992 185.944 214.019 183.533" stroke="black" stroke-width="4" stroke-linecap="round"/>
<path d="M190.412 148.375C192.161 153.009 193.928 159.425 193.928 171.982C194.152 178.085 194.193 187.051 192.924 195.087C192.244 199.394 191.417 204.63 189.91 212.667" stroke="#E4B178" stroke-width="5" stroke-linecap="round"/>
<path d="M26.9377 92.3213C28.3112 86.3793 34.0034 81.3688 40.2016 77.5389L44.3957 75.3579C46.5828 73.7171 44.9421 70.4357 44.3957 69.3456C47.1968 68.993 49.4909 72.8354 49.8636 74.8043C49.7504 69.1468 54.2594 66.1762 55.8801 67.1538C54.2395 72.0764 55.974 74.2869 56.4264 75.8981C59.3102 76.2024 67.508 78.6327 71.1929 84.6486C75.8926 92.3213 75.6523 101.603 68.4584 106.525C58.0672 113.635 48.9174 113.256 41.8137 112.343C26.6164 110.587 25.5641 98.2634 26.9377 92.3213Z" fill="#FCF1D3" stroke="black" stroke-width="4" stroke-linejoin="round"/>
<path d="M35.0977 108.173C64.8493 108.173 71.3758 95.4118 71.1934 89.5781C74.4749 99.4224 69.2914 103.898 64.6306 106.532C52.0517 113.642 38.3791 109.814 35.0977 108.173Z" fill="#F1CEBA"/>
<path d="M50.4115 83.0158C50.4253 85.1339 49.7185 87.6689 48.224 90.1268M57.5214 83.5639C58.6152 84.1108 59.709 85.7516 58.6152 87.3923M44.3956 83.016C44.1255 84.1984 42.7548 86.2978 40.5672 86.8447" stroke="#E7BBA1" stroke-width="2" stroke-linecap="round" stroke-linejoin="round"/>
<path d="M49.8638 82.4688C49.6815 84.4741 49.3169 86.2971 47.6762 88.4847M55.8797 82.4688C56.9736 83.198 58.5049 84.6564 58.0674 86.844M44.3947 82.4688C44.0301 83.5626 42.4259 84.8751 41.1133 85.7502" stroke="black" stroke-width="2" stroke-linecap="round" stroke-linejoin="round"/>
<path d="M229.726 207.316C233.241 202.293 237.762 199.781 242.283 197.773L245.946 196.265C245.296 193.753 245.946 190.739 247.808 189.232C249.314 192.748 249.315 194.256 251.324 195.617C251.21 189.959 255.81 185.894 257.43 186.871C255.79 191.794 257.524 194.005 257.977 195.616C260.86 195.92 269.908 199.781 274.429 205.808C279.827 213.006 279.111 222.486 271.917 227.408C262.876 233.594 250.821 233.422 240.273 231.426C221.689 227.908 226.21 212.339 229.726 207.316Z" fill="#FCF1D3" stroke="black" stroke-width="4" stroke-linejoin="round"/>
<path d="M233.241 226.404C258.858 232.934 276.117 220.685 275.935 214.852C276.265 225.399 267.502 227.879 262.374 229.418C252.328 232.431 236.757 229.418 233.241 226.404Z" fill="#F1CEBA"/>
<path d="M257.147 200.967C257.161 203.086 260.161 203.981 258.152 205.991M252.124 201.407C251.854 202.589 249.613 204.987 247.101 204.987" stroke="#E7BBA1" stroke-width="2" stroke-linecap="round" stroke-linejoin="round"/>
<path d="M255.843 199.895C256.047 202.398 258.214 202.726 257.313 204.815M250.566 200.827C250.268 201.949 249.174 203.46 247.046 203.633" stroke="black" stroke-width="2" stroke-linecap="round" stroke-linejoin="round"/>
<path d="M269.191 101.232C269.627 100.876 270.193 100.721 270.75 100.804C271.306 100.888 271.802 101.201 272.115 101.669L278.587 111.327C279.176 112.205 278.979 113.39 278.138 114.031L116.502 237.184C115.682 237.809 114.521 237.708 113.821 236.951L110.423 233.274C110.049 232.869 109.858 232.326 109.897 231.776C109.936 231.225 110.201 230.715 110.629 230.366L269.191 101.232Z" fill="#DB2929" stroke="#7C1F1B" stroke-width="4" stroke-linecap="round" stroke-linejoin="round"/>
<path d="M272.697 99.2394C256.07 103.583 242.243 89.9198 233.389 82.545C211.138 98.3468 214.279 121.924 222.558 132.802C239.134 141.844 254.494 143.577 266.677 137.344C276.867 132.13 291.564 122.617 291.796 113.334C292.144 99.3487 278.435 97.7501 272.697 99.2394Z" fill="#FFFC56"/>
<path d="M233.389 82.5438C242.243 89.9187 255.066 103.582 271.692 99.2383C278.814 97.3777 292.21 96.1348 290.791 113.333C290.014 122.756 278.456 132.108 268.266 137.322C255.29 142.826 240.139 142.344 220.55 132.299" stroke="black" stroke-width="7" stroke-linecap="round"/>
<path d="M257.732 95.1359C259.067 89.3615 264.641 85.5632 270.664 81.8413L274.74 79.7218C277.397 78.1286 276.865 75.999 276.334 74.9397C280.586 71.7509 280.755 77.8084 281.117 79.7218C282.18 76.5347 287.514 71.8632 289.089 72.8132C287.495 77.597 288.118 78.6881 288.558 80.2539C290.684 80.7853 299.121 83.9742 302.376 89.289C306.944 96.7452 305.647 106.297 298.656 111.08C288.558 117.989 281.117 116.678 272.082 114.268C256.138 110.017 256.397 100.91 257.732 95.1359Z" fill="#FCF1D3" stroke="black" stroke-width="4" stroke-linejoin="round"/>
<path d="M266.768 110.022C295.68 110.022 302.554 100.81 302.377 95.1406C304.502 104.707 299.188 108.381 294.404 111.085C282.18 117.994 271.019 112.148 266.768 110.022Z" fill="#F1CEBA"/>
<path d="M278.992 85.0387C281.118 86.6341 280.055 90.8841 278.46 91.4169M286.433 85.5702C287.495 86.1016 284.838 85.04 288.027 88.7596M274.74 86.6341C274.478 87.7832 273.677 89.2899 271.551 90.8844" stroke="#E7BBA1" stroke-width="2" stroke-linecap="round" stroke-linejoin="round"/>
<path d="M278.46 85.0391C279.523 86.6314 279.523 88.7594 278.46 90.3538M285.901 85.0391C284.307 86.6314 285.901 87.6964 286.964 88.7594M275.271 86.6335C275.271 88.7594 274.421 89.5035 273.146 90.3538" stroke="black" stroke-width="2" stroke-linecap="round" stroke-linejoin="round"/>
<path d="M236.154 57.547C236.45 57.0761 236.928 56.7493 237.474 56.6452C238.02 56.541 238.585 56.6689 239.033 56.998L248.212 63.7418C249.074 64.3752 249.285 65.5749 248.69 66.4645L134.834 236.923C134.502 237.42 133.964 237.743 133.369 237.802C132.774 237.861 132.184 237.651 131.76 237.229L127.773 233.259C127.111 232.6 126.993 231.571 127.49 230.779L236.154 57.547Z" fill="#DB2929" stroke="#7C1F1B" stroke-width="4" stroke-linecap="round" stroke-linejoin="round"/>
</g>
<defs>
<clipPath id="clip0_2447_20257">
<rect width="336" height="280" fill="white"/>
</clipPath>
</defs>
</svg>
