<svg width="336" height="280" viewBox="0 0 336 280" fill="none" xmlns="http://www.w3.org/2000/svg">
<g clip-path="url(#clip0_2270_17406)">
<path d="M222.475 238.376C222.133 247.108 215.897 258.132 152.475 260.376C77.4747 260.376 65.5269 256.875 59.9747 242.217C53.9748 226.376 70.4054 218.173 137.436 220.16C188.232 221.665 223.004 224.875 222.475 238.376Z" fill="#0B0C0D"/>
<path d="M108.693 104.998C121.424 99.7433 128.804 80.4423 130.903 71.4487C152.767 70.8032 164.073 94.5345 164.034 105.491C162.306 118.351 142.083 126.327 131.28 128.227C122.245 129.815 107.922 129.063 103.289 123.239C96.3093 114.464 104.304 106.818 108.693 104.998Z" fill="#FFFC56"/>
<path fill-rule="evenodd" clip-rule="evenodd" d="M128.587 68.6208L130.813 68.5551C142.942 68.1971 152.041 74.6384 157.978 82.3572C163.847 89.9881 166.953 99.2696 166.931 105.506L166.93 105.694L166.905 105.881C165.854 113.703 159.324 119.528 152.516 123.475C145.567 127.503 137.482 130.077 131.787 131.079C126.988 131.923 120.848 132.142 115.249 131.383C112.444 131.002 109.686 130.364 107.263 129.383C104.86 128.41 102.602 127.025 101.023 125.039C98.9708 122.46 97.9017 119.804 97.6847 117.177C97.4689 114.564 98.1138 112.188 99.1544 110.177C101.179 106.266 104.833 103.463 107.579 102.324L107.584 102.322C113.044 100.068 117.666 94.6225 121.257 88.2092C124.804 81.8736 127.085 75.061 128.082 70.7876L128.587 68.6208ZM133.146 74.3682C131.864 78.9919 129.594 85.1836 126.313 91.043C122.507 97.8415 117.074 104.673 109.805 107.674C108.162 108.356 105.626 110.285 104.301 112.844C103.667 114.07 103.348 115.365 103.459 116.709C103.569 118.042 104.118 119.632 105.556 121.44C106.293 122.366 107.562 123.259 109.431 124.016C111.278 124.764 113.535 125.307 116.019 125.644C120.999 126.32 126.538 126.121 130.774 125.376C135.881 124.478 143.309 122.114 149.604 118.464C155.962 114.778 160.377 110.251 161.136 105.286C161.086 100.542 158.556 92.6038 153.386 85.8823C148.602 79.6622 141.838 74.8308 133.146 74.3682Z" fill="black"/>
<path d="M185.152 175.102C193.049 170.537 188.072 168.923 199.527 169.268C204.953 169.43 208.906 168.052 209.745 174.375C210.856 182.742 203.902 186.733 196.005 188.809C186.53 191.299 181.119 190.34 179.051 189.368C174.715 187.329 173.162 180.959 185.152 175.102Z" fill="#FFFC56"/>
<path fill-rule="evenodd" clip-rule="evenodd" d="M199.623 166.254C196.749 166.167 194.693 166.194 193.155 166.405L199.623 166.254ZM193.155 166.405C191.497 166.633 190.251 167.1 189.14 167.981L193.155 166.405ZM189.14 167.981C188.662 168.36 188.267 168.771 187.969 169.085L189.14 167.981ZM187.969 169.085C187.916 169.141 187.865 169.195 187.815 169.248L187.969 169.085ZM187.815 169.248C187.558 169.52 187.329 169.763 187.04 170.039L187.815 169.248ZM187.04 170.039C186.407 170.645 185.454 171.441 183.737 172.441L187.04 170.039ZM183.737 172.441C177.545 175.485 173.907 179.087 173.039 183.023C172.093 187.319 174.672 190.642 177.767 192.098C180.726 193.489 186.938 194.307 196.763 191.725C200.881 190.643 205.137 188.975 208.25 186.203C211.527 183.285 213.426 179.224 212.729 173.972C212.482 172.108 211.962 170.444 210.963 169.116C209.907 167.711 208.531 166.965 207.127 166.595C205.825 166.253 204.45 166.222 203.281 166.23C202.839 166.233 202.424 166.241 202.017 166.249C201.23 166.264 200.476 166.279 199.623 166.254M191.196 174.394C190.194 175.353 188.83 176.454 186.652 177.713L186.561 177.765L186.466 177.812C180.729 180.614 179.184 183.109 178.919 184.311C178.728 185.174 179.094 186.055 180.335 186.638L180.335 186.638C181.512 187.192 186.12 188.291 195.246 185.892C199.025 184.899 202.195 183.534 204.255 181.7C206.152 180.011 207.174 177.893 206.76 174.779C206.588 173.481 206.298 172.946 206.151 172.75C206.06 172.629 205.952 172.524 205.585 172.427C205.115 172.304 204.433 172.253 203.308 172.26C203.013 172.262 202.677 172.268 202.313 172.275C201.45 172.292 200.429 172.311 199.43 172.281L199.43 172.281C196.576 172.196 194.959 172.242 193.962 172.379C193.13 172.493 192.951 172.64 192.881 172.698C192.877 172.701 192.873 172.704 192.87 172.707C192.761 172.793 192.624 172.924 192.33 173.233C192.291 173.275 192.249 173.32 192.204 173.367C191.947 173.64 191.604 174.003 191.196 174.394Z" fill="black"/>
<path d="M222.549 173.633C224.153 164.409 226.843 160.949 224.912 153.177C232.139 148.268 236.53 147.378 242.518 151.51C248.506 155.643 248.348 162.889 244.657 170.695C241.737 176.36 236.482 183.533 229.946 184.018C221.653 184.634 221.357 176.773 222.549 173.633Z" fill="#FFFC56" stroke="black" stroke-width="5"/>
<path d="M130.422 95.3233C123.388 61.5282 150.998 38.4207 164.933 31.2279C195.673 17.8716 217.883 32.9873 227.463 43.142C254.311 71.6021 262.297 107.779 263.194 121.325C264.092 134.871 260.75 155.494 219.484 168.367C199.597 173.224 194.03 174.003 182.76 175.025C157.584 177.309 149.8 159.42 147.862 146.857C143.557 118.946 133.976 110.714 130.422 95.3233Z" fill="#FFFC56"/>
<path fill-rule="evenodd" clip-rule="evenodd" d="M163.779 28.57C196.059 14.5445 219.517 30.502 229.565 41.1533C256.998 70.2323 265.153 107.118 266.081 121.136C266.553 128.263 265.924 137.554 259.525 146.757C253.153 155.92 241.348 164.584 220.345 171.136L220.259 171.163L220.171 171.184C200.18 176.067 194.468 176.874 183.022 177.913C169.63 179.127 160.479 174.959 154.475 168.481C148.594 162.135 146.017 153.883 145.001 147.299C142.898 133.665 139.522 124.886 136.223 117.59C135.539 116.076 134.844 114.6 134.156 113.14C131.564 107.638 129.073 102.349 127.601 95.976L127.594 95.9452L127.588 95.9142C123.869 78.0443 129.343 63.008 137.457 51.6167C145.531 40.2835 156.297 32.4252 163.605 28.6526L163.691 28.6084L163.779 28.57ZM166.174 33.8493C159.548 37.2879 149.595 44.562 142.17 54.9849C134.759 65.3876 129.946 78.7919 133.247 94.7035C134.567 100.402 136.724 104.987 139.261 110.385C139.979 111.911 140.727 113.502 141.496 115.202C144.953 122.848 148.519 132.14 150.721 146.417C151.644 152.397 153.927 159.37 158.716 164.539C163.383 169.575 170.713 173.209 182.497 172.14C193.575 171.135 198.997 170.387 218.708 165.574C238.915 159.257 249.391 151.184 254.775 143.442C260.138 135.729 260.731 127.935 260.306 121.516C259.44 108.442 251.624 72.9739 225.359 45.1329C216.257 35.4846 195.327 21.2297 166.174 33.8493Z" fill="black"/>
<path d="M163.519 168.715C168.743 162.913 168.949 157.564 169.361 146.867L169.361 146.867C169.643 139.556 165.776 128.64 169.281 118.378C168.798 112.712 183.513 101.592 200.479 100.054C204.797 100.153 215.539 98.7397 225.293 111.239C228.993 115.98 230.868 124.905 237.693 131.82C241.427 134.9 246.622 139.115 255.709 140.406C254.818 142.597 250.686 149.658 245.01 153.718C239.173 158.914 226.036 164.927 209.49 168.833C205.951 169.809 197.973 171.6 194.241 171.765C186.941 172.581 185.156 172.096 182.56 172.422C179.964 172.749 168.283 173.406 163.519 168.715Z" fill="white"/>
<path d="M171.961 69.8866C169.767 81.5241 158.581 89.1929 146.975 87.0155C135.369 84.838 127.739 73.6387 129.933 62.0012C132.127 50.3637 143.314 42.6949 154.919 44.8724C166.525 47.0498 174.155 58.2491 171.961 69.8866Z" fill="white"/>
<path fill-rule="evenodd" clip-rule="evenodd" d="M148.048 81.3234C156.494 82.9081 164.664 77.3279 166.268 68.8185C167.872 60.309 162.292 52.149 153.846 50.5644C145.4 48.9797 137.23 54.5599 135.626 63.0694C134.022 71.5788 139.602 79.7388 148.048 81.3234ZM146.975 87.0155C158.581 89.1929 169.767 81.5241 171.961 69.8866C174.155 58.2491 166.525 47.0498 154.919 44.8724C143.314 42.6949 132.127 50.3637 129.933 62.0012C127.739 73.6387 135.369 84.838 146.975 87.0155Z" fill="black"/>
<path d="M209.696 60.3346C207.398 72.5245 195.947 80.6073 184.119 78.3881C172.291 76.169 164.565 64.4881 166.863 52.2983C169.161 40.1084 180.612 32.0256 192.44 34.2448C204.268 36.4639 211.994 48.1448 209.696 60.3346Z" fill="white"/>
<path fill-rule="evenodd" clip-rule="evenodd" d="M185.192 72.6961C193.714 74.2951 202.267 68.4765 204.003 59.2665C205.739 50.0565 199.889 41.5358 191.367 39.9368C182.844 38.3378 174.292 44.1563 172.556 53.3664C170.82 62.5764 176.669 71.0971 185.192 72.6961ZM184.119 78.3881C195.947 80.6073 207.398 72.5245 209.696 60.3346C211.994 48.1448 204.268 36.4639 192.44 34.2448C180.612 32.0256 169.161 40.1084 166.863 52.2983C164.565 64.4881 172.291 76.169 184.119 78.3881Z" fill="black"/>
<path d="M156.284 68.0086C155.511 72.1108 151.405 74.7825 147.113 73.976C142.82 73.1695 139.966 69.1902 140.738 65.0879C141.511 60.9857 145.617 58.314 149.909 59.1205C154.202 59.927 157.056 63.9063 156.284 68.0086Z" fill="black"/>
<path d="M191.14 60.9358C189.489 64.7697 184.899 66.4764 180.888 64.7479C176.876 63.0194 174.963 58.5101 176.615 54.6763C178.266 50.8424 182.856 49.1356 186.867 50.8641C190.878 52.5927 192.791 57.1019 191.14 60.9358Z" fill="black"/>
<path d="M175.721 87.3042C175.721 87.3042 201.166 80.7272 189.295 73.5646C181.037 68.5815 169.793 65.6994 165.164 67.8448C158.663 70.8576 151.712 79.7014 151.481 87.4469C153.492 95.3415 162.893 91.2953 175.721 87.3042Z" fill="#FFD336"/>
<path fill-rule="evenodd" clip-rule="evenodd" d="M170.63 85.8801C171.966 85.4518 173.377 84.9999 174.863 84.5374L174.931 84.5164L174.998 84.499L174.998 84.499L174.999 84.4988L175 84.4987L175.009 84.4962L175.055 84.4842C175.096 84.4731 175.161 84.4558 175.246 84.4326C175.417 84.3862 175.671 84.3159 175.992 84.2233C176.635 84.0379 177.546 83.7641 178.604 83.4139C180.742 82.7059 183.385 81.7166 185.624 80.5504C186.744 79.9672 187.69 79.3773 188.4 78.8046C189.14 78.208 189.439 77.7767 189.533 77.5653C189.539 77.5501 189.544 77.5407 189.548 77.5353C189.545 77.5346 189.542 77.5319 189.539 77.5252C189.445 77.341 189.057 76.803 187.797 76.043C183.926 73.7071 179.324 71.8515 175.181 70.8441C173.113 70.3411 171.226 70.0661 169.65 70.0263C168.026 69.9852 166.962 70.2003 166.379 70.4706C163.682 71.7207 160.679 74.3093 158.315 77.5684C156.051 80.6893 154.603 84.1066 154.397 87.1083C154.731 88.1469 155.185 88.5161 155.589 88.7139C156.207 89.0166 157.301 89.1924 159.189 88.9573C162.194 88.5832 165.964 87.375 170.63 85.8801ZM176.517 90.0871C175.255 90.4803 174 90.8835 172.763 91.2807C167.993 92.8127 163.496 94.2571 159.899 94.705C157.583 94.9934 155.147 94.9499 153.036 93.9157C150.757 92.799 149.34 90.7771 148.675 88.1626L148.574 87.7686L148.586 87.3621C148.724 82.717 150.839 78.0146 153.627 74.1707C156.422 70.3183 160.145 66.9785 163.948 65.216C165.679 64.4135 167.757 64.1843 169.802 64.236C171.894 64.2889 174.202 64.6436 176.555 65.2159C181.256 66.3589 186.406 68.4359 190.793 71.083C192.502 72.1137 193.915 73.348 194.702 74.8945C195.565 76.5908 195.515 78.3498 194.832 79.8978C194.209 81.3102 193.117 82.4377 192.034 83.3112C190.921 84.2088 189.614 85.0006 188.295 85.6872C185.658 87.0606 182.682 88.1631 180.42 88.9122C179.277 89.2905 178.293 89.5865 177.591 89.7887C177.24 89.89 176.958 89.968 176.762 90.0214C176.664 90.0481 176.587 90.0687 176.533 90.0829L176.517 90.0871Z" fill="black"/>
<path d="M75.0042 236.838C72.8696 226.865 75.651 220.994 77.3085 220.305C80.4759 217.862 86.2942 219.184 88.8074 220.15C134.906 227.129 189.035 221.966 210.337 219.512C216.725 218.626 218.045 222.373 218.89 226.411C219.735 230.448 222.476 234.961 218.045 238.91C213.614 242.859 203.976 244.144 197.12 245.544C173.476 250.373 120.326 248.061 86.6312 246.182C78.2373 246.695 75.3824 240.166 75.0042 236.838Z" fill="#FFB44F" stroke="black" stroke-width="7"/>
<path d="M70.6041 232.255C65.8432 228.916 71.4917 215.775 73.4754 212.877C69.8131 205.643 165.025 207.344 212.024 207.343C218.25 205.395 221.489 207.193 224.975 212.877C232.489 222.268 228.475 228.377 222.975 228.377C215.975 228.377 214.443 225.087 210.475 221.377C204.982 218.873 201.361 224.024 200.446 226.69C197.807 234.377 194.29 235.95 190.475 236.877C181.975 238.602 178.93 232.255 178.472 229.82C178.106 227.873 173.742 225.763 171.606 224.951C166.478 223.282 164.06 227.125 162.992 230.255C160.732 236.877 157.125 239.254 153.921 239.602C147.475 240.302 143.829 236.877 142.307 232.255C140.475 226.69 138.07 225.299 135.475 224.951C130.975 224.348 124.975 225.951 122.975 230.255C120.975 234.559 119.486 236.24 117.503 237.515C111.975 241.068 104.769 238.602 104.769 232.255C104.769 225.908 100.445 226.415 96.7822 225.951C92.3875 225.673 86.477 228.377 83.4754 230.255C77.2495 234.15 73.0456 233.878 70.6041 232.255Z" fill="#3AAE63" stroke="black" stroke-width="7"/>
<path d="M74.4759 208.874C72.0759 199.274 75.4759 193.874 77.4759 192.374C77.4759 186.773 92.1425 187.707 99.4758 188.874C139.076 198.473 183.976 192.874 201.476 188.874C209.476 186.074 216.143 187.707 218.476 188.874C225.276 197.674 221.309 205.874 218.476 208.874C196.876 218.074 126.476 217.707 93.9758 216.374C76.7758 216.374 73.8092 211.374 74.4759 208.874Z" fill="#8E2220" stroke="black" stroke-width="7"/>
<path d="M68.9755 195.372C65.3755 190.972 70.4755 180.872 73.4755 176.372C160.675 189.172 203.476 181.706 213.976 176.372C223.176 174.372 225.809 182.539 225.976 186.872C226.418 198.373 215.421 199.98 212.476 200.372C203.476 201.573 212.476 214.873 200.976 214.873C200.976 214.873 194.476 214.873 194.476 205.873C194.476 201.361 192.476 200.372 186.476 200.372C180.476 200.372 173.476 203.873 173.476 215.872C173.476 226.873 166.809 226.206 162.976 224.372C159.142 222.539 155.309 216.039 155.976 206.872C156.376 202.072 150.476 200.539 147.476 200.372H86.4755C81.4755 199.872 73.4755 200.872 68.9755 195.372Z" fill="#FED366" stroke="black" stroke-width="7"/>
<path d="M71.9756 180.875V159.875C107.176 170.675 136.309 169.042 146.476 166.875C149.676 172.475 147.809 181.542 146.476 185.375C126.076 192.575 88.3089 185.375 71.9756 180.875Z" fill="#D43E3F" stroke="black" stroke-width="7"/>
<path d="M222.242 180.875V159.875C187.042 170.675 157.909 169.042 147.742 166.875C144.542 172.475 146.409 181.542 147.742 185.375C168.142 192.575 205.909 185.375 222.242 180.875Z" fill="#D43E3F" stroke="black" stroke-width="7"/>
<path d="M223.126 163.06C166.061 182.647 97.2489 171.221 69.9756 163.06C69.9756 108.849 125.082 97.0447 152.635 97.9191C218.762 97.9191 227.182 141.347 223.126 163.06Z" fill="#FFB44F" stroke="black" stroke-width="7"/>
<path d="M101.723 127.104C99.5269 129.463 99.2427 133.375 101.723 133.375C105.475 133.375 107.115 129.463 107.847 127.104C108.579 124.745 103.919 124.745 101.723 127.104Z" fill="#FF933A"/>
<path d="M124.212 137.422C121.881 138.076 122.262 140.758 122.975 142.76C123.612 144.547 126.012 143.875 127.005 142.76L127.02 142.744C128.217 141.4 130.473 138.868 129.933 137.257C129.303 135.375 126.544 136.768 124.212 137.422Z" fill="#FF933A"/>
<path d="M131.986 117.997C132.612 113.191 133.144 112.39 134.571 113.191C135.692 113.82 136.378 117.036 136.378 117.997C136.378 119.375 135.721 121.171 134.571 121.601C132.002 122.562 131.986 119.599 131.986 117.997Z" fill="#FF933A"/>
<path d="M166.402 115.895C164.975 112.875 167.927 111.875 168.641 111.875C170.975 111.875 172.975 117.875 171.755 118.297C169.975 119.375 166.975 117.108 166.402 115.895Z" fill="#FF933A"/>
<path d="M152.975 131.875C150.406 132.836 151.309 134.667 152.34 136.326C152.991 137.375 154.975 136.875 156 135.753C158.332 133.607 158.975 131.875 158.344 131.149C157.131 129.757 154.76 131.074 152.975 131.875Z" fill="#FF933A"/>
<path d="M197.386 132.923C194.817 128.118 198.475 128.375 200.598 129.69C200.598 129.69 202.343 130.627 202.739 131.722C203.135 132.817 203.616 134.875 201.475 134.875C199.762 134.875 198.162 134.375 197.386 132.923Z" fill="#FF933A"/>
<path d="M176.622 139.615C176.622 140.809 176.975 142.943 178.086 143.547C179.533 144.333 180.701 143.156 181.014 141.974C181.746 139.208 179.078 137.025 178.086 136.47C177.093 135.916 176.622 137.664 176.622 139.615Z" fill="#FF933A"/>
<path opacity="0.8" d="M114.976 116.372C102.976 119.873 91.476 131.872 87.976 141.372" stroke="white" stroke-width="7" stroke-linecap="round"/>
<mask id="path-27-outside-1_2270_17406" maskUnits="userSpaceOnUse" x="207.999" y="215.996" width="89" height="50" fill="black">
<rect fill="white" x="207.999" y="215.996" width="89" height="50"/>
<path fill-rule="evenodd" clip-rule="evenodd" d="M269.928 241.037L289.499 236.996L292.499 219.996L258.469 226.713L257.499 225.501L254.661 227.465L216.499 234.997L211.999 252.997L225.618 250.185L225.999 254.001L245.499 260.501L249.195 253.849L256.737 260.999L261.931 249.834L262.018 249.596L271.499 243L269.928 241.037ZM249.192 245.318L245.126 246.158L246.249 246.278L249.192 245.318Z"/>
</mask>
<path fill-rule="evenodd" clip-rule="evenodd" d="M269.928 241.037L289.499 236.996L292.499 219.996L258.469 226.713L257.499 225.501L254.661 227.465L216.499 234.997L211.999 252.997L225.618 250.185L225.999 254.001L245.499 260.501L249.195 253.849L256.737 260.999L261.931 249.834L262.018 249.596L271.499 243L269.928 241.037ZM249.192 245.318L245.126 246.158L246.249 246.278L249.192 245.318Z" fill="#0B0C0D"/>
<path d="M289.499 236.996L290.308 240.914C291.913 240.582 293.153 239.305 293.438 237.691L289.499 236.996ZM269.928 241.037L269.12 237.119C267.757 237.401 266.638 238.37 266.166 239.679C265.694 240.989 265.936 242.449 266.805 243.536L269.928 241.037ZM292.499 219.996L296.438 220.691C296.667 219.392 296.241 218.063 295.299 217.139C294.356 216.216 293.019 215.816 291.724 216.072L292.499 219.996ZM258.469 226.713L255.346 229.212C256.278 230.377 257.78 230.926 259.244 230.637L258.469 226.713ZM257.499 225.501L260.623 223.002C259.31 221.361 256.951 221.015 255.223 222.211L257.499 225.501ZM254.661 227.465L255.435 231.389C255.974 231.283 256.485 231.066 256.937 230.754L254.661 227.465ZM216.499 234.997L215.724 231.073C214.204 231.373 212.994 232.524 212.618 234.027L216.499 234.997ZM211.999 252.997L208.118 252.027C207.785 253.362 208.16 254.774 209.113 255.766C210.065 256.759 211.461 257.193 212.808 256.915L211.999 252.997ZM225.618 250.185L229.598 249.787C229.485 248.66 228.899 247.633 227.986 246.962C227.073 246.291 225.918 246.039 224.809 246.268L225.618 250.185ZM225.999 254.001L222.019 254.399C222.176 255.968 223.239 257.298 224.734 257.796L225.999 254.001ZM245.499 260.501L244.234 264.296C246.06 264.905 248.061 264.127 248.996 262.444L245.499 260.501ZM249.195 253.849L251.947 250.946C251.05 250.095 249.81 249.707 248.588 249.895C247.365 250.083 246.299 250.825 245.699 251.906L249.195 253.849ZM256.737 260.999L253.985 263.902C254.919 264.787 256.222 265.169 257.486 264.928C258.75 264.687 259.821 263.853 260.364 262.686L256.737 260.999ZM261.931 249.834L265.558 251.521C265.607 251.416 265.652 251.308 265.691 251.198L261.931 249.834ZM262.018 249.596L259.734 246.312C259.055 246.784 258.539 247.455 258.258 248.232L262.018 249.596ZM271.499 243L273.783 246.284C274.692 245.651 275.299 244.67 275.458 243.575C275.617 242.479 275.314 241.366 274.623 240.501L271.499 243ZM249.192 245.318L250.432 249.121C252.45 248.463 253.603 246.343 253.058 244.292C252.514 242.241 250.462 240.972 248.384 241.401L249.192 245.318ZM245.126 246.158L244.317 242.24C242.388 242.639 241.036 244.383 241.131 246.351C241.226 248.319 242.741 249.925 244.7 250.135L245.126 246.158ZM246.249 246.278L245.823 250.255C246.384 250.315 246.952 250.256 247.489 250.081L246.249 246.278ZM288.69 233.079L269.12 237.119L270.737 244.954L290.308 240.914L288.69 233.079ZM288.56 219.301L285.56 236.301L293.438 237.691L296.438 220.691L288.56 219.301ZM259.244 230.637L293.274 223.92L291.724 216.072L257.695 222.789L259.244 230.637ZM254.376 227.999L255.346 229.212L261.593 224.214L260.623 223.002L254.376 227.999ZM256.937 230.754L259.775 228.79L255.223 222.211L252.385 224.175L256.937 230.754ZM217.274 238.921L255.435 231.389L253.886 223.54L215.724 231.073L217.274 238.921ZM215.88 253.967L220.38 235.967L212.618 234.027L208.118 252.027L215.88 253.967ZM224.809 246.268L211.19 249.08L212.808 256.915L226.426 254.103L224.809 246.268ZM229.979 253.603L229.598 249.787L221.637 250.583L222.019 254.399L229.979 253.603ZM246.764 256.707L227.264 250.207L224.734 257.796L244.234 264.296L246.764 256.707ZM245.699 251.906L242.003 258.559L248.996 262.444L252.692 255.791L245.699 251.906ZM246.443 256.751L253.985 263.902L259.489 258.096L251.947 250.946L246.443 256.751ZM260.364 262.686L265.558 251.521L258.305 248.147L253.111 259.311L260.364 262.686ZM265.691 251.198L265.778 250.96L258.258 248.232L258.171 248.47L265.691 251.198ZM269.215 239.716L259.734 246.312L264.302 252.879L273.783 246.284L269.215 239.716ZM266.805 243.536L268.376 245.499L274.623 240.501L273.052 238.538L266.805 243.536ZM248.384 241.401L244.317 242.24L245.935 250.075L250.001 249.235L248.384 241.401ZM244.7 250.135L245.823 250.255L246.675 242.301L245.553 242.18L244.7 250.135ZM247.952 241.515L245.009 242.475L247.489 250.081L250.432 249.121L247.952 241.515Z" fill="#0B0C0D" mask="url(#path-27-outside-1_2270_17406)"/>
<path d="M286.8 231.17C288.058 230.895 289 229.846 289.14 228.565L290.183 219.001C290.287 218.053 289.933 217.112 289.231 216.467C288.529 215.821 287.562 215.548 286.626 215.731L217.244 229.281C215.714 229.58 214.668 231.001 214.836 232.55L216.005 243.283C216.098 244.13 216.545 244.897 217.237 245.394C217.928 245.892 218.798 246.071 219.63 245.889L286.8 231.17Z" fill="#FFCB64" stroke="black" stroke-width="6" stroke-linecap="round" stroke-linejoin="round"/>
<path d="M232.837 174.162C232.229 173.073 231.011 172.473 229.777 172.657L219.048 174.25C218.086 174.393 217.253 174.993 216.813 175.86C216.373 176.727 216.381 177.753 216.833 178.614L251.273 244.109C251.977 245.449 253.569 246.054 254.985 245.521L266.321 241.251C267.138 240.944 267.78 240.295 268.081 239.475C268.381 238.655 268.309 237.745 267.883 236.982L232.837 174.162Z" fill="#FFCB64" stroke="black" stroke-width="6" stroke-linecap="round" stroke-linejoin="round"/>
<path d="M252.939 177.264C253.429 175.728 255.047 174.854 256.601 175.287L265.603 177.791C266.383 178.008 267.043 178.532 267.431 179.243C267.82 179.953 267.904 180.791 267.666 181.565L245.91 252.163C245.651 253.004 245.037 253.688 244.229 254.036C243.421 254.383 242.502 254.359 241.714 253.969L232.564 249.447C231.234 248.789 230.584 247.258 231.035 245.844L252.939 177.264Z" fill="#FFCB64" stroke="black" stroke-width="6" stroke-linecap="round" stroke-linejoin="round"/>
<path d="M261.549 240.028C262.393 240.911 262.619 242.217 262.119 243.331L257.998 252.513C257.595 253.411 256.777 254.055 255.809 254.234C254.84 254.414 253.845 254.107 253.147 253.413L205.263 205.834C204.212 204.79 204.081 203.136 204.953 201.939L211.544 192.901C212.068 192.183 212.882 191.735 213.768 191.675C214.654 191.616 215.521 191.953 216.135 192.594L261.549 240.028Z" fill="#FFCB64" stroke="black" stroke-width="6" stroke-linecap="round" stroke-linejoin="round"/>
<path d="M177.206 124.339C175.415 120.716 175.154 113.164 183.277 107.109C191.399 101.055 192.968 90.1758 194.797 86.8497L245.286 93.4212C245.286 93.4212 227.032 119.733 212.318 127.912C197.605 136.092 183.583 137.24 177.206 124.339Z" fill="#FFFC56"/>
<path fill-rule="evenodd" clip-rule="evenodd" d="M244.156 96.53C245.445 97.5418 245.698 99.4711 244.721 100.839L242.51 99.104C244.721 100.839 244.721 100.839 244.721 100.839L244.705 100.861L244.665 100.917C244.631 100.965 244.58 101.035 244.514 101.126C244.382 101.308 244.189 101.572 243.939 101.91C243.439 102.585 242.713 103.555 241.798 104.741C239.97 107.11 237.381 110.355 234.339 113.853C228.333 120.76 220.277 128.989 212.688 133.208C205.348 137.288 197.814 139.749 191.05 139.257C184.072 138.75 178.133 135.101 174.423 127.597C171.987 122.669 171.839 113.367 180.928 106.497C184.289 103.957 186.17 100.87 187.433 97.9407C188.074 96.4544 188.548 95.0283 188.995 93.6729C189.016 93.6095 189.037 93.5455 189.058 93.4811C189.454 92.28 189.9 90.9264 190.449 89.8737C191.232 88.3748 193.013 87.8125 194.429 88.6178C195.845 89.4231 196.359 91.291 195.577 92.7899C195.295 93.3298 195.006 94.1811 194.527 95.6326C194.084 96.9757 193.53 98.6521 192.763 100.431C191.211 104.032 188.756 108.126 184.309 111.487C177.784 116.419 178.431 122.284 179.627 124.704C182.384 130.281 186.505 132.746 191.521 133.11C196.75 133.49 203.142 131.579 209.998 127.767C216.606 124.094 224.072 116.583 230.038 109.723C232.982 106.337 235.493 103.191 237.267 100.892C238.153 99.7426 238.854 98.8073 239.331 98.162C239.57 97.8394 239.752 97.5895 239.874 97.4217C239.935 97.3378 239.981 97.2745 240.011 97.233L240.044 97.1871L240.053 97.1748C240.053 97.1747 240.052 97.175 240.053 97.1748C241.03 95.8071 242.867 95.5182 244.156 96.53Z" fill="black"/>
</g>
<defs>
<clipPath id="clip0_2270_17406">
<rect width="336" height="280" fill="white"/>
</clipPath>
</defs>
</svg>
