<svg width="336" height="280" viewBox="0 0 336 280" fill="none" xmlns="http://www.w3.org/2000/svg">
<g clip-path="url(#clip0_2447_20612)">
<path d="M233.952 229.85C233.523 240.802 232.256 255.252 161.92 258.427C91.5841 261.602 69.1667 255.077 54.0283 228.593C45.0808 212.94 70.5803 200.538 144.893 202.647C201.208 204.245 234.746 209.58 233.952 229.85Z" fill="#0B0C0D"/>
<path d="M305.269 236.428C304.932 245.039 300.509 259.568 243.5 261.998C186.491 264.428 191.795 235.793 179.5 214.954C172.232 202.637 172.818 213.224 233.055 214.953C278.703 216.264 305.893 220.49 305.269 236.428Z" fill="#0B0C0D"/>
<path d="M33.836 77.9126C33.2547 77.0546 33.425 75.8947 34.2285 75.2401L47.4988 64.4282C47.9376 64.0708 48.5072 63.9159 49.0666 64.0021C49.6259 64.0882 50.1226 64.4073 50.4334 64.8802L119.242 169.568C119.683 170.238 119.68 171.106 119.237 171.773C118.793 172.441 117.993 172.779 117.205 172.633L96.0711 168.701C95.5455 168.603 95.081 168.299 94.7812 167.856L33.836 77.9126Z" fill="#AF7947" stroke="#5B3836" stroke-width="4" stroke-linecap="round" stroke-linejoin="round"/>
<path d="M40.8984 87.6047C45.2236 84.4592 49.9091 70.5663 50.7283 64.9961L58.1007 77.7749C56.9211 86.4252 52.0389 95.6324 48.7623 97.9261L40.8984 87.6047Z" fill="#5B3836"/>
<path d="M56.1347 109.722C60.853 105.397 64.9816 95.4686 65.9645 90.5537L73.3369 100.875C72.5505 107.953 66.6199 117.422 63.5071 121.518L56.1347 109.722Z" fill="#5B3836"/>
<path d="M71.371 131.839C77.2689 126.334 80.3816 116.767 81.2008 112.671L88.0817 121.518C88.4749 127.022 80.8731 136.262 76.7774 141.177L71.371 131.839Z" fill="#5B3836"/>
<path d="M85.418 119.569C88.7919 80.3942 125.556 64.2065 143.112 60.9133C181.021 56.3888 200.314 80.1436 207.448 94.3558C227.44 134.188 224.326 176.273 220.877 191.347C217.428 206.422 207.04 227.833 157.803 228.389C134.516 227.187 128.187 226.216 115.555 223.647C87.3367 217.909 81.0227 195.845 83.0156 181.502C87.443 149.64 83.0156 132.195 85.418 119.569Z" fill="#FFFC56" stroke="black" stroke-width="7"/>
<path d="M96.6239 210.475C104.221 205.851 106.194 200.082 110.141 188.544L110.141 188.544C112.839 180.659 112.188 167.484 119.367 157.432C120.692 151.092 140.384 143.769 159.4 147.636C164.079 149.157 176.262 151.126 182.819 167.953C185.306 174.336 184.434 184.688 189.621 194.465C192.689 199.046 196.98 205.343 206.472 209.723C204.784 211.822 197.967 218.176 190.447 220.751C182.379 224.513 166.079 226.779 146.747 225.632C142.567 225.539 133.275 224.885 129.15 223.845C120.917 222.35 119.128 221.237 116.189 220.744C113.25 220.252 100.289 217.151 96.6239 210.475Z" fill="white"/>
<path d="M156.862 239.477C156.914 239.48 156.967 239.482 157.019 239.482C184.41 239.588 201.337 233.691 211.908 225.28C222.513 216.843 226.358 206.167 228.192 197.556C230.463 186.887 232.356 164.611 227.943 138.48L227.23 129.873C227.154 128.958 226.584 128.158 225.745 127.789C224.905 127.421 223.932 127.542 223.208 128.105C201.142 145.282 168.887 155.493 143.477 155.712C117.771 155.934 98.8498 153.504 76.737 143.412C75.9514 143.054 75.0365 143.127 74.3175 143.606C73.5985 144.085 73.1773 144.902 73.2037 145.767C73.5137 155.925 73.4434 168.211 71.5564 183.527C70.521 191.932 71.935 202.607 77.7403 212.117C83.5879 221.696 93.7889 229.921 109.973 233.47C124.05 236.557 131.15 237.751 156.862 239.477Z" fill="#FCE4C8" stroke="#FFCC8F" stroke-width="5" stroke-linejoin="round"/>
<path d="M95.945 151.991C91.5216 155.432 80.9053 162.804 73.8279 164.77M112.164 155.923C103.809 162.64 84.4441 176.566 73.8279 178.532M129.366 158.872C117.898 170.504 90.1454 193.965 70.8789 194.751M150.992 158.872C136.247 175.255 101.351 208.513 79.7258 210.479M174.092 151.991C165.245 169.357 136.346 208.12 91.5216 224.241M194.735 146.093C184.741 169.521 154.629 219.522 114.13 232.105M211.937 139.704C206.695 160.183 185.495 208.513 142.637 238.002M228.156 136.755C223.569 159.036 206.334 210.479 174.092 238.002M228.156 182.464C223.733 195.734 212.035 223.847 200.633 230.139M214.886 134.789C217.671 137.902 224.224 144.521 228.156 146.093M198.667 142.653C204.565 149.37 218.72 164.082 228.156 169.194M181.465 151.991C190.639 163.296 212.822 187.674 228.156 194.751M158.856 155.923C169.997 172.306 197.684 207.235 219.31 215.885M135.264 158.872C145.586 174.272 173.994 210.086 205.056 230.139M118.062 155.923C124.452 172.306 146.864 210.97 185.397 234.562M101.843 151.991C105.447 169.194 121.896 210.479 158.856 238.002M83.1662 148.551C87.4258 167.719 103.121 211.757 131.824 234.562M73.8279 169.194C76.9406 183.447 88.376 215.984 109.215 232.105" stroke="#FFCB8F" stroke-width="3"/>
<path d="M138.143 105.401C131.944 117.382 117.231 122.093 105.279 115.923C93.3271 109.753 88.6629 95.0384 94.8611 83.0572C101.059 71.076 115.773 66.3651 127.725 72.5352C139.677 78.7053 144.341 93.4199 138.143 105.401Z" fill="white"/>
<path fill-rule="evenodd" clip-rule="evenodd" d="M108.311 110.063C117.009 114.553 127.748 111.135 132.28 102.374C136.812 93.6137 133.391 82.8856 124.693 78.3954C115.995 73.9051 105.256 77.323 100.724 86.0838C96.1917 94.8446 99.6126 105.573 108.311 110.063ZM105.279 115.923C117.231 122.093 131.944 117.382 138.143 105.401C144.341 93.4199 139.677 78.7053 127.725 72.5352C115.773 66.3651 101.059 71.076 94.8611 83.0572C88.6629 95.0384 93.3271 109.753 105.279 115.923Z" fill="black"/>
<path d="M182.443 107.308C175.95 119.858 160.813 124.934 148.632 118.646C136.451 112.357 131.84 97.086 138.332 84.5361C144.825 71.9862 159.962 66.9102 172.143 73.1984C184.324 79.4867 188.935 94.7581 182.443 107.308Z" fill="white"/>
<path fill-rule="evenodd" clip-rule="evenodd" d="M151.664 112.786C160.44 117.316 171.675 113.763 176.58 104.281C181.485 94.7993 177.888 83.5895 169.112 79.0586C160.335 74.5276 149.1 78.0807 144.195 87.5627C139.29 97.0448 142.887 108.255 151.664 112.786ZM148.632 118.646C160.813 124.934 175.95 119.858 182.443 107.308C188.935 94.7581 184.324 79.4867 172.143 73.1984C159.962 66.9102 144.825 71.9862 138.332 84.5361C131.84 97.086 136.451 112.357 148.632 118.646Z" fill="black"/>
<path d="M123.964 97.0261C121.78 101.25 116.426 102.823 112.006 100.539C107.586 98.256 105.772 92.9809 107.956 88.7572C110.14 84.5334 115.494 82.9604 119.914 85.2438C124.334 87.5272 126.147 92.8023 123.964 97.0261Z" fill="black"/>
<path d="M165.729 100.922C162.673 104.566 157.107 104.927 153.295 101.73C149.483 98.5327 148.87 92.9869 151.925 89.3434C154.98 85.6998 160.547 85.3381 164.359 88.5355C168.17 91.7329 168.784 97.2786 165.729 100.922Z" fill="black"/>
<path d="M139.306 125.629C139.306 125.629 169.22 126.771 158.609 115.075C151.227 106.938 139.9 100.117 134.147 100.945C126.069 102.107 115.593 109.484 112.809 117.861C112.422 127.132 124.003 125.791 139.306 125.629Z" fill="#FFD336"/>
<path fill-rule="evenodd" clip-rule="evenodd" d="M134.216 122.413C135.814 122.383 137.501 122.351 139.274 122.332L139.355 122.331L139.434 122.334L139.434 122.334L139.435 122.334L139.436 122.334L139.447 122.335L139.5 122.336C139.55 122.338 139.626 122.34 139.726 122.343C139.928 122.348 140.228 122.354 140.608 122.358C141.371 122.366 142.454 122.365 143.723 122.329C146.287 122.255 149.495 122.04 152.32 121.499C153.732 121.229 154.957 120.895 155.919 120.502C156.921 120.093 157.389 119.72 157.56 119.52C157.572 119.505 157.581 119.497 157.586 119.492C157.584 119.49 157.581 119.486 157.58 119.478C157.538 119.246 157.29 118.532 156.164 117.291C152.703 113.477 148.289 109.948 144.098 107.494C142.005 106.269 140.036 105.352 138.329 104.793C136.571 104.218 135.34 104.105 134.616 104.209C131.264 104.691 127.141 106.534 123.496 109.318C120.005 111.983 117.307 115.238 116.102 118.446C116.127 119.689 116.502 120.24 116.878 120.588C117.453 121.12 118.589 121.67 120.726 122.031C124.127 122.605 128.636 122.519 134.216 122.413ZM139.265 128.928C137.759 128.944 136.257 128.974 134.778 129.003C129.072 129.116 123.693 129.222 119.622 128.534C117 128.092 114.357 127.248 112.392 125.429C110.27 123.466 109.385 120.796 109.513 117.726L109.532 117.263L109.678 116.824C111.348 111.8 115.192 107.36 119.491 104.078C123.8 100.788 128.954 98.3605 133.68 97.6805C135.832 97.371 138.174 97.8003 140.388 98.525C142.654 99.2667 145.056 100.408 147.437 101.802C152.193 104.586 157.133 108.536 161.055 112.859C162.582 114.542 163.721 116.351 164.074 118.295C164.461 120.429 163.831 122.331 162.58 123.798C161.439 125.135 159.878 126.008 158.411 126.607C156.904 127.223 155.218 127.66 153.555 127.978C150.228 128.614 146.62 128.844 143.907 128.922C142.537 128.961 141.366 128.962 140.534 128.954C140.117 128.949 139.785 128.942 139.553 128.936C139.437 128.934 139.347 128.931 139.284 128.929L139.265 128.928Z" fill="black"/>
<path d="M266.252 134.806C276.875 140.969 278.983 161.103 278.709 170.401C263.383 165.06 256.249 159.173 254.891 156.846C248.721 146.266 248.355 130.475 249.506 121.879C251.965 127.045 261.695 132.649 266.252 134.806Z" fill="#77DB6E" stroke="#12913C" stroke-width="3" stroke-linecap="round" stroke-linejoin="round"/>
<path d="M285.795 174.76C288.526 175.652 291.264 174.604 292.306 173.718C295.527 169.93 292.929 167.079 290.499 166.125C285.055 164.398 281.086 167.345 281.629 169.938C282.208 172.709 283.816 174.114 285.795 174.76Z" fill="#FFEC3F" stroke="#FFEC3F" stroke-width="6"/>
<path d="M215.654 222.035C212.456 220.157 209.12 221.065 207.818 222.109C203.72 226.846 206.626 231.508 209.46 233.408C215.837 237.078 220.769 233.713 220.297 229.87C219.793 225.764 217.969 223.395 215.654 222.035Z" fill="#FFEC3F" stroke="#FFEC3F" stroke-width="6"/>
<path d="M222.405 179.952C208.151 194.696 208.971 213.537 213.066 221.729C233.906 249.253 263.035 239.423 276.961 226.644C304.976 197.154 292.688 166.847 271.063 164.715C247.963 162.438 232.726 169.276 222.405 179.952Z" fill="#FFFC56" stroke="#FFEC3F" stroke-width="6"/>
<path d="M223.24 229.157C280.253 231.123 294.507 200.65 288.609 177.059C303.157 212.839 269.932 235.115 258.628 236.038C239.361 237.61 225.37 232.433 223.24 229.157Z" fill="#FFEF5F"/>
<path d="M254.938 174.458C251.484 176.363 251.558 179 252.472 180.186C257.214 184.247 264.146 183.187 267.511 181.553C274.304 177.738 271.597 173.38 266.51 172.852C261.077 172.288 257.44 173.079 254.938 174.458Z" fill="white"/>
<path d="M228.726 212.598C227.507 211.382 225.864 211.356 225.134 211.646C222.646 213.186 223.371 215.573 224.42 216.754C226.86 219.147 229.551 218.307 229.834 216.58C230.135 214.736 229.608 213.479 228.726 212.598Z" fill="#FFEB35"/>
<path d="M238.521 215.798C238.779 214.406 238.102 213.113 237.61 212.647C235.582 211.259 234.372 212.688 234.065 213.934C233.574 216.705 235.244 218.505 236.459 218.102C237.758 217.671 238.334 216.805 238.521 215.798Z" fill="#FFEB35"/>
<path d="M246.302 221.08C246.743 219.495 245.913 218.503 245.279 218.275C242.629 217.894 240.9 220.018 240.404 221.478C239.559 224.622 241.696 225.621 243.366 224.563C245.148 223.432 245.984 222.228 246.302 221.08Z" fill="#FFEB35"/>
<path d="M81.692 138.718C73.337 145.402 74.8116 151.008 88.0815 154.448C95.4536 160.346 101.352 161.33 108.233 156.906C115.113 152.482 108.56 143.306 105.284 138.719C98.2635 128.89 85.7878 135.442 81.692 138.718Z" fill="#FFFC56" stroke="black" stroke-width="6"/>
<path d="M182.822 138.445C191.842 144.2 188.838 150.023 178.025 155.429C171.636 158.624 163.221 162.044 155.908 158.379C148.595 154.714 157.071 146.088 159.84 141.177C165.772 130.656 178.401 135.624 182.822 138.445Z" fill="#FFFC56" stroke="black" stroke-width="6"/>
</g>
<defs>
<clipPath id="clip0_2447_20612">
<rect width="336" height="280" fill="white"/>
</clipPath>
</defs>
</svg>
