<svg width="240" height="200" viewBox="0 0 240 200" fill="none" xmlns="http://www.w3.org/2000/svg">
<g clip-path="url(#clip0_2390_11536)">
<path d="M180.722 178.187C180.477 184.424 179.703 192.651 134.402 194.253C89.1001 195.856 74.6396 192.074 64.8099 176.944C59 168.002 75.3906 161.013 123.27 162.431C159.552 163.507 181.174 166.643 180.722 178.187Z" fill="#0B0C0D"/>
<path d="M58.2648 136.047H66.5136V159.026H58.2648V136.047Z" fill="#935143"/>
<path d="M74.9442 115.234C75.9616 122.287 71.2229 128.808 64.36 129.798C57.497 130.788 51.1088 125.872 50.0914 118.818C49.074 111.765 53.8127 105.244 60.6756 104.254C67.5385 103.265 73.9267 108.18 74.9442 115.234Z" fill="#77DB6E"/>
<path d="M84.9597 128.195C85.9772 135.248 81.2384 141.769 74.3755 142.759C67.5126 143.748 61.1244 138.833 60.107 131.779C59.0895 124.726 63.8283 118.205 70.6912 117.215C77.5541 116.225 83.9423 121.141 84.9597 128.195Z" fill="#77DB6E"/>
<path d="M66.695 129.374C67.7124 136.428 62.9737 142.948 56.1108 143.938C49.2479 144.928 42.8596 140.013 41.8422 132.959C40.8248 125.906 45.5635 119.385 52.4264 118.395C59.2893 117.405 65.6776 122.321 66.695 129.374Z" fill="#77DB6E"/>
<path d="M74.9442 134.089C75.9616 141.143 71.2229 147.663 64.36 148.653C57.497 149.643 51.1088 144.727 50.0914 137.674C49.074 130.62 53.8127 124.1 60.6756 123.11C67.5385 122.12 73.9267 127.036 74.9442 134.089Z" fill="#77DB6E"/>
<path d="M181.463 136.125H189.712V159.104H181.463V136.125Z" fill="#935143"/>
<path d="M198.141 115.312C199.159 122.365 194.42 128.886 187.557 129.876C180.694 130.866 174.306 125.95 173.289 118.897C172.271 111.843 177.01 105.323 183.873 104.333C190.736 103.343 197.124 108.258 198.141 115.312Z" fill="#77DB6E"/>
<path d="M208.158 128.273C209.175 135.326 204.436 141.847 197.574 142.837C190.711 143.827 184.322 138.911 183.305 131.858C182.288 124.804 187.026 118.283 193.889 117.294C200.752 116.304 207.14 121.219 208.158 128.273Z" fill="#77DB6E"/>
<path d="M189.892 129.452C190.91 136.506 186.171 143.026 179.308 144.016C172.445 145.006 166.057 140.091 165.039 133.037C164.022 125.984 168.761 119.463 175.624 118.473C182.487 117.483 188.875 122.399 189.892 129.452Z" fill="#77DB6E"/>
<path d="M198.141 134.167C199.159 141.221 194.42 147.741 187.557 148.731C180.694 149.721 174.306 144.806 173.289 137.752C172.271 130.698 177.01 124.178 183.873 123.188C190.736 122.198 197.124 127.114 198.141 134.167Z" fill="#77DB6E"/>
<path d="M65.9178 72.953C75.571 80.4442 93.6861 77.6294 101.537 75.2856C111.662 91.8404 98.3629 110.998 89.9073 115.793C79.2419 120.125 64.1935 108.061 57.9739 100.578C52.7716 94.3188 47.044 82.9563 49.4898 76.8235C53.1746 67.5836 62.5838 70.3742 65.9178 72.953Z" fill="#FFFC56"/>
<path fill-rule="evenodd" clip-rule="evenodd" d="M102.696 72.257L103.726 73.9422C109.343 83.1262 108.389 92.97 105.058 100.941C101.765 108.822 95.9847 115.301 91.1716 118.03L91.0262 118.113L90.8715 118.176C84.3841 120.811 77.0225 118.346 70.9852 114.841C64.8224 111.263 59.2799 106.169 56.0005 102.224C53.2376 98.8995 50.3649 94.2668 48.4844 89.6202C47.5423 87.2923 46.8193 84.8877 46.5079 82.589C46.1994 80.3105 46.2718 77.9615 47.1056 75.8707C48.1889 73.1542 49.7637 71.1613 51.6909 69.8377C53.6088 68.5206 55.7224 67.9712 57.7292 67.8873C61.6336 67.7242 65.4013 69.3043 67.4875 70.918L67.4908 70.9205C71.6314 74.1337 77.8607 75.295 84.3812 75.2365C90.8227 75.1786 97.0739 73.9354 100.804 72.8217L102.696 72.257ZM100.277 78.2986C96.1512 79.3477 90.3827 80.3255 84.4254 80.379C77.5131 80.441 69.8593 79.2644 64.3469 74.9876C63.0985 74.0227 60.4955 72.9189 57.9415 73.0256C56.7186 73.0767 55.5806 73.401 54.5937 74.0788C53.6162 74.7501 52.633 75.8733 51.8739 77.7768C51.4849 78.7524 51.3561 80.1235 51.5961 81.896C51.8334 83.6482 52.4089 85.6253 53.2432 87.687C54.9157 91.8196 57.508 95.9977 59.9474 98.9327C62.8876 102.47 67.9791 107.15 73.5617 110.392C79.2003 113.665 84.6312 115.073 88.7898 113.471C92.4213 111.343 97.4211 105.899 100.321 98.9577C103.005 92.534 103.748 85.1966 100.277 78.2986Z" fill="#20232A"/>
<path d="M105.851 167.885C113.725 166.016 109.907 163.377 119.554 166.586C124.124 168.106 127.834 167.942 126.937 173.529C125.751 180.922 118.825 182.543 111.585 182.296C102.898 182 98.5442 179.808 97.0347 178.455C93.8686 175.618 94.1711 169.809 105.851 167.885Z" fill="#FFFC56"/>
<path fill-rule="evenodd" clip-rule="evenodd" d="M120.403 164.048C117.983 163.243 116.229 162.742 114.868 162.53L120.403 164.048ZM114.868 162.53C113.401 162.302 112.223 162.381 111.054 162.847L114.868 162.53ZM111.054 162.847C110.551 163.047 110.111 163.296 109.778 163.487L111.054 162.847ZM109.778 163.487C109.719 163.521 109.662 163.554 109.606 163.587L109.778 163.487ZM109.606 163.587C109.318 163.752 109.061 163.9 108.746 164.061L109.606 163.587ZM108.746 164.061C108.053 164.415 107.04 164.849 105.327 165.262L108.746 164.061ZM105.327 165.262C99.2898 166.272 95.2805 168.407 93.5412 171.531C91.6429 174.94 92.9884 178.422 95.2483 180.447C97.4087 182.383 102.48 184.66 111.487 184.967C115.262 185.095 119.304 184.762 122.655 183.199C126.183 181.554 128.831 178.586 129.576 173.944C129.84 172.298 129.823 170.751 129.312 169.368C128.772 167.906 127.792 166.921 126.693 166.249C125.675 165.627 124.513 165.251 123.518 164.96C123.141 164.849 122.786 164.751 122.439 164.654C121.766 164.466 121.121 164.287 120.403 164.048M111.169 168.82C110.073 169.381 108.633 169.969 106.462 170.484L106.371 170.506L106.279 170.521C100.69 171.442 98.7412 173.168 98.2099 174.122C97.8285 174.807 97.9148 175.649 98.821 176.461L98.8212 176.461C99.6799 177.231 103.317 179.338 111.683 179.624C115.148 179.742 118.189 179.389 120.407 178.354C122.449 177.402 123.857 175.863 124.298 173.111C124.482 171.964 124.372 171.435 124.297 171.231C124.25 171.105 124.185 170.989 123.898 170.813C123.53 170.588 122.963 170.371 122.005 170.091C121.754 170.018 121.467 169.937 121.156 169.851C120.418 169.645 119.546 169.402 118.704 169.122L118.704 169.122C116.301 168.322 114.915 167.95 114.032 167.813C113.296 167.698 113.107 167.777 113.032 167.808C113.028 167.81 113.024 167.812 113.021 167.813C112.906 167.859 112.756 167.935 112.428 168.123C112.384 168.148 112.337 168.176 112.287 168.204C111.999 168.371 111.615 168.593 111.169 168.82Z" fill="#20232A"/>
<path d="M146.653 171.482C153.878 166.829 157.621 166.342 162.086 160.441C169.082 161.809 171.873 163.916 171.95 170.047C172.027 176.178 166.896 180.499 159.627 183.03C154.234 184.721 146.634 185.922 143.066 182.275C138.537 177.647 143.874 172.677 146.653 171.482Z" fill="#FFFC56"/>
<path fill-rule="evenodd" clip-rule="evenodd" d="M160.873 157.251L162.648 157.598C166.22 158.297 169.367 159.281 171.581 161.33C173.963 163.535 174.801 166.505 174.845 170.005C174.947 178.127 168.122 183.14 160.573 185.768L160.53 185.783L160.487 185.797C157.644 186.688 154.105 187.491 150.709 187.553C147.404 187.614 143.613 186.982 140.995 184.307C139.462 182.74 138.596 180.952 138.44 179.05C138.287 177.189 138.838 175.517 139.601 174.169C141.008 171.685 143.41 169.799 145.275 168.93C147.083 167.772 148.676 166.869 150.092 166.088C150.466 165.882 150.822 165.687 151.162 165.501C152.181 164.944 153.066 164.46 153.918 163.948C156.058 162.662 157.81 161.3 159.78 158.696L160.873 157.251ZM163.211 163.655C161.142 166.063 159.123 167.572 156.891 168.914C155.927 169.494 154.897 170.057 153.849 170.629C153.526 170.806 153.202 170.983 152.877 171.163C151.467 171.94 149.942 172.807 148.215 173.92L148.012 174.05L147.79 174.146C146.905 174.526 145.4 175.669 144.637 177.017C144.285 177.639 144.177 178.152 144.21 178.562C144.24 178.93 144.405 179.499 145.136 180.247L145.136 180.247C146.087 181.219 147.88 181.809 150.616 181.759C153.245 181.71 156.184 181.074 158.725 180.28C165.684 177.847 169.108 174.224 169.055 170.092C169.022 167.461 168.426 166.312 167.644 165.589C166.865 164.868 165.55 164.231 163.211 163.655Z" fill="#20232A"/>
<path d="M79.6517 86.1492C82.2795 55.6376 111.628 43.0298 125.301 40.4649C154.826 36.941 169.853 55.4424 175.409 66.5116C190.98 97.5345 188.555 130.313 185.868 142.053C183.182 153.794 175.091 170.47 136.743 170.903C118.606 169.967 113.676 169.211 103.838 167.21C81.8604 162.741 79.7999 145.556 81.352 134.386C84.8003 109.569 78.7536 100.134 79.6517 86.1492Z" fill="#FFFC56"/>
<path fill-rule="evenodd" clip-rule="evenodd" d="M124.998 37.9129C156.003 34.2124 171.875 53.7467 177.703 65.3572C193.612 97.055 191.151 130.478 188.371 142.628C186.957 148.805 184.057 156.541 176.275 162.733C168.527 168.898 156.289 173.255 136.771 173.475L136.691 173.476L136.61 173.472C118.378 172.531 113.318 171.763 103.326 169.731C91.6356 167.354 84.92 161.481 81.4673 154.447C78.0852 147.557 77.9958 139.887 78.8092 134.033C80.4936 121.911 79.8594 113.59 78.9137 106.551C78.7174 105.089 78.5025 103.658 78.2897 102.242C77.4882 96.9063 76.7177 91.7773 77.0897 85.9863L77.0915 85.9583L77.0939 85.9304C78.4833 69.7966 86.9637 58.4118 96.7607 50.7971C106.508 43.2213 117.658 39.284 124.829 37.9387L124.913 37.923L124.998 37.9129ZM125.689 43.0093C119.183 44.2444 108.872 47.8921 99.9079 54.8595C90.9613 61.8133 83.4577 71.9794 82.2121 86.3425C81.8828 91.5214 82.5477 95.9674 83.3303 101.2C83.5516 102.68 83.7824 104.223 84.0027 105.863C84.9938 113.241 85.6588 122.046 83.8949 134.74C83.1562 140.057 83.3209 146.565 86.0755 152.177C88.7594 157.645 94.0629 162.599 104.35 164.691C114.02 166.658 118.819 167.403 136.795 168.332C155.577 168.108 166.536 163.915 173.082 158.707C179.604 153.517 182.093 147.045 183.366 141.481C185.958 130.149 188.347 98.0166 173.115 67.6683C167.836 57.1512 153.679 39.7076 125.689 43.0093Z" fill="#20232A"/>
<path d="M89.0931 156.949C95.0098 153.348 96.5468 148.855 99.621 139.869L99.621 139.869C101.722 133.728 101.215 123.466 106.807 115.637C107.839 110.699 123.175 104.996 137.986 108.008C141.631 109.192 151.119 110.726 156.226 123.832C158.163 128.803 157.484 136.865 161.524 144.48C163.913 148.048 167.255 152.953 174.648 156.364C173.334 157.999 168.024 162.948 162.167 164.953C155.883 167.883 143.188 169.648 128.132 168.754C124.876 168.682 117.639 168.173 114.426 167.363C108.014 166.198 106.62 165.331 104.331 164.948C102.042 164.564 91.9475 162.149 89.0931 156.949Z" fill="white"/>
<path d="M121.43 75.1113C116.603 84.4428 105.143 88.1119 95.8347 83.3063C86.5261 78.5007 82.8933 67.0403 87.7208 57.7088C92.5483 48.3772 104.008 44.7082 113.317 49.5137C122.625 54.3193 126.258 65.7797 121.43 75.1113Z" fill="white"/>
<path fill-rule="evenodd" clip-rule="evenodd" d="M98.1959 78.7421C104.97 82.2394 113.334 79.5773 116.864 72.754C120.394 65.9307 117.73 57.5752 110.955 54.0779C104.181 50.5807 95.8169 53.2427 92.287 60.0661C88.7571 66.8894 91.4215 75.2449 98.1959 78.7421ZM95.8347 83.3063C105.143 88.1119 116.603 84.4428 121.43 75.1113C126.258 65.7797 122.625 54.3193 113.317 49.5137C104.008 44.7082 92.5483 48.3772 87.7208 57.7088C82.8933 67.0403 86.5261 78.5007 95.8347 83.3063Z" fill="#20232A"/>
<path d="M155.932 76.5982C150.876 86.3726 139.086 90.3261 129.599 85.4285C120.112 80.5309 116.52 68.6368 121.577 58.8623C126.634 49.0878 138.423 45.1344 147.91 50.032C157.397 54.9296 160.989 66.8237 155.932 76.5982Z" fill="white"/>
<path fill-rule="evenodd" clip-rule="evenodd" d="M131.96 80.8643C138.796 84.3932 147.546 81.626 151.366 74.2409C155.187 66.8558 152.385 58.1251 145.549 54.5961C138.714 51.0672 129.964 53.8345 126.143 61.2196C122.323 68.6047 125.124 77.3354 131.96 80.8643ZM129.599 85.4285C139.086 90.3261 150.876 86.3726 155.932 76.5982C160.989 66.8237 157.397 54.9296 147.91 50.032C138.423 45.1344 126.634 49.0878 121.577 58.8623C116.52 68.6368 120.112 80.5309 129.599 85.4285Z" fill="#20232A"/>
<path d="M109.009 65.0178C107.308 68.3074 103.139 69.5326 99.6958 67.7541C96.253 65.9757 94.8409 61.8672 96.5417 58.5776C98.2425 55.2879 102.412 54.0628 105.855 55.8412C109.298 57.6196 110.71 61.7281 109.009 65.0178Z" fill="#20232A"/>
<path fill-rule="evenodd" clip-rule="evenodd" d="M102.056 63.1894C103.174 63.7671 104.146 63.2353 104.444 62.6594C104.741 62.0835 104.613 60.9837 103.495 60.406C102.376 59.8282 101.405 60.3601 101.107 60.936C100.81 61.5119 100.937 62.6116 102.056 63.1894ZM99.6958 67.7541C103.139 69.5326 107.308 68.3074 109.009 65.0178C110.71 61.7281 109.298 57.6196 105.855 55.8412C102.412 54.0628 98.2425 55.2879 96.5417 58.5776C94.8409 61.8672 96.253 65.9757 99.6958 67.7541Z" fill="#20232A"/>
<path d="M141.537 67.2853C139.157 70.1231 134.822 70.4048 131.853 67.9145C128.884 65.4242 128.407 61.105 130.786 58.2672C133.166 55.4294 137.501 55.1477 140.47 57.638C143.439 60.1283 143.916 64.4475 141.537 67.2853Z" fill="#20232A"/>
<path fill-rule="evenodd" clip-rule="evenodd" d="M135.155 63.9769C136.119 64.7858 137.183 64.4798 137.6 63.9828C138.017 63.4859 138.133 62.3845 137.168 61.5756C136.204 60.7668 135.14 61.0727 134.723 61.5697C134.306 62.0667 134.191 63.168 135.155 63.9769ZM131.853 67.9145C134.822 70.4048 139.157 70.1231 141.537 67.2853C143.916 64.4475 143.439 60.1283 140.47 57.638C137.501 55.1477 133.166 55.4294 130.786 58.2672C128.407 61.105 128.884 65.4242 131.853 67.9145Z" fill="#20232A"/>
<path d="M120.192 90.8692C120.192 90.8692 143.491 91.7585 135.227 82.6488C129.477 76.3112 120.655 70.9989 116.175 71.6435C109.883 72.5487 101.723 78.2947 99.5555 84.8185C99.254 92.0396 108.273 90.9946 120.192 90.8692Z" fill="#FFD336"/>
<path fill-rule="evenodd" clip-rule="evenodd" d="M116.227 88.3639C117.472 88.3402 118.786 88.3153 120.167 88.3008L120.23 88.3001L120.292 88.3024L120.292 88.3025L120.292 88.3025L120.293 88.3025L120.302 88.3028L120.343 88.3042C120.382 88.3054 120.441 88.3072 120.519 88.3092C120.676 88.3132 120.91 88.3181 121.206 88.3212C121.8 88.3274 122.644 88.3266 123.632 88.2983C125.629 88.241 128.127 88.0731 130.328 87.6523C131.428 87.4419 132.382 87.1813 133.131 86.8754C133.912 86.5567 134.276 86.2665 134.409 86.1105C134.419 86.0993 134.425 86.0927 134.43 86.0889C134.428 86.0877 134.426 86.0846 134.425 86.0781C134.392 85.8977 134.199 85.3415 133.322 84.375C130.626 81.404 127.189 78.6555 123.924 76.7444C122.294 75.7903 120.761 75.0761 119.431 74.6409C118.062 74.1926 117.103 74.1047 116.539 74.1859C113.928 74.5615 110.717 75.9968 107.878 78.1646C105.159 80.2405 103.058 82.7758 102.119 85.2745C102.139 86.2422 102.431 86.6716 102.724 86.9425C103.172 87.3572 104.056 87.785 105.721 88.066C108.37 88.5131 111.882 88.4464 116.227 88.3639ZM120.16 93.4383C118.987 93.451 117.817 93.474 116.665 93.4967C112.221 93.5842 108.032 93.6667 104.861 93.1315C102.819 92.7868 100.76 92.1298 99.2297 90.7133C97.5769 89.1839 96.8877 87.1048 96.9876 84.7134L97.0026 84.353L97.1164 84.0106C98.4166 80.0981 101.411 76.6403 104.759 74.0834C108.115 71.521 112.13 69.6307 115.81 69.1011C117.486 68.86 119.31 69.1944 121.035 69.7588C122.799 70.3365 124.671 71.2256 126.525 72.3112C130.229 74.4795 134.077 77.556 137.131 80.9227C138.32 82.2336 139.207 83.6423 139.482 85.1569C139.784 86.8183 139.293 88.3005 138.319 89.4423C137.43 90.484 136.215 91.164 135.072 91.6307C133.898 92.1102 132.585 92.4502 131.29 92.6979C128.698 93.1935 125.888 93.3727 123.775 93.4334C122.708 93.464 121.796 93.4649 121.148 93.4581C120.824 93.4547 120.565 93.4493 120.384 93.4447C120.294 93.4424 120.224 93.4403 120.174 93.4388L120.16 93.4383Z" fill="#20232A"/>
<path d="M45.3852 34.3271C46.2788 27.3053 57.7946 26.0535 64.4529 30.2011C78.1389 38.7264 73.5763 53.9975 70.5979 59.2907C69.1087 61.9373 64.9322 66.7664 64.6613 72.1874C64.3452 78.512 62.5695 78.7452 57.8855 80.1541C54.1383 81.2813 55.7829 73.3531 57.0736 69.2481C58.8173 64.766 55.0388 61.0918 52.9316 59.815C47.3408 57.6492 47.3879 53.9835 43.9292 49.8806C41.1622 46.5983 43.7469 38.144 45.3852 34.3271Z" fill="#D26D34"/>
<path fill-rule="evenodd" clip-rule="evenodd" d="M52.3143 25.5476C56.6964 24.777 61.8942 25.5806 65.8147 28.0227C73.4898 32.8037 76.1201 39.6023 76.3435 45.8649C76.5616 51.9792 74.5062 57.5844 72.8384 60.5485C72.4552 61.2295 71.9302 62.0167 71.417 62.7862C71.3512 62.885 71.2856 62.9834 71.2205 63.0812C70.6187 63.9857 69.9908 64.9442 69.4057 65.9697C68.2198 68.0484 67.3346 70.1945 67.2287 72.314C67.0664 75.5619 66.5266 78.1066 64.6904 79.8672C63.8064 80.7149 62.7795 81.2248 61.796 81.6025C61.0139 81.9029 60.1067 82.1727 59.1985 82.4429C59.0068 82.4999 58.8149 82.557 58.6242 82.6144C57.795 82.8638 56.8049 82.9548 55.8144 82.5825C54.7977 82.2004 54.1351 81.4642 53.7367 80.7312C53.0286 79.428 52.9669 77.8037 53.0222 76.5538C53.1408 73.8717 53.9501 70.6162 54.6211 68.4821L54.6467 68.4007L54.6777 68.3212C55.1882 67.0088 54.9399 65.8086 54.2456 64.6598C53.5631 63.5303 52.5288 62.6173 51.7625 62.1168C48.5364 60.8138 46.8082 59.0012 45.4828 56.9884C45.0694 56.3605 44.6584 55.651 44.2812 54.9998C44.1132 54.7097 43.9519 54.4313 43.8001 54.1768C43.2661 53.2815 42.7012 52.414 41.9622 51.5374C40.8008 50.1596 40.3455 48.4279 40.1992 46.842C40.0505 45.23 40.1965 43.5083 40.4702 41.8823C40.9904 38.7917 42.0349 35.6868 42.8904 33.6314C43.7132 28.7292 48.1163 26.2857 52.3143 25.5476ZM53.2003 30.606C49.8583 31.1937 48.173 32.7813 47.9352 34.6495L47.8898 35.007L47.7476 35.3382C46.9868 37.1108 46.0031 39.9787 45.5403 42.7287C45.3088 44.1038 45.2251 45.3496 45.3188 46.3652C45.4149 47.4069 45.6741 47.9629 45.8962 48.2263C46.8865 49.4011 47.6128 50.5304 48.2174 51.544C48.4493 51.9328 48.6487 52.2778 48.8332 52.5969C49.1626 53.1668 49.4444 53.6544 49.7789 54.1625C50.6602 55.5008 51.6519 56.5651 53.8632 57.4217L54.0735 57.5032L54.2664 57.62C55.5969 58.4262 57.4008 59.9382 58.6478 62.0018C59.9218 64.1102 60.6885 66.9549 59.5029 70.0902C58.8901 72.0557 58.2469 74.7737 58.1584 76.775C58.1479 77.0139 58.1466 77.22 58.151 77.3962C58.882 77.1775 59.4524 77.0019 59.9556 76.8086C60.6323 76.5487 60.9474 76.3408 61.1323 76.1635C61.434 75.8742 61.9401 75.14 62.0938 72.0633C62.2588 68.7617 63.5973 65.7828 64.9397 63.43C65.6187 62.2398 66.3311 61.156 66.9397 60.2412C67.0037 60.1451 67.0659 60.0517 67.1264 59.9608C67.6696 59.1453 68.0764 58.5346 68.3573 58.0353C69.6679 55.7061 71.383 51.0293 71.2055 46.0533C71.0333 41.2258 69.1019 36.1262 63.0911 32.382L63.0911 32.3819C60.3533 30.6765 56.4641 30.0321 53.2003 30.606Z" fill="#20232A"/>
<path d="M84.8668 112.983C77.7904 112.811 74.8217 124.007 77.9212 131.214C84.2921 146.026 100.075 143.811 105.756 141.662C108.597 140.588 113.999 137.185 119.399 137.732C125.699 138.37 126.197 136.65 128.294 132.231C129.971 128.695 121.886 129.129 117.634 129.788C112.94 130.838 109.876 126.55 108.931 124.275C107.63 118.422 103.999 117.918 100.462 113.882C97.6334 110.653 88.8866 111.937 84.8668 112.983Z" fill="#D26D34"/>
<path fill-rule="evenodd" clip-rule="evenodd" d="M75.1441 118.514C73.7236 122.731 73.7366 127.99 75.5616 132.233C79.1344 140.54 85.4603 144.163 91.6182 145.325C97.6301 146.46 103.481 145.27 106.662 144.067C107.393 143.791 108.25 143.39 109.088 142.998C109.195 142.948 109.302 142.898 109.409 142.848C110.394 142.389 111.436 141.913 112.537 141.488C114.771 140.628 117.026 140.076 119.137 140.29C122.372 140.618 124.969 140.467 126.986 138.916C127.957 138.169 128.615 137.231 129.137 136.315C129.551 135.587 129.954 134.731 130.358 133.874C130.443 133.693 130.528 133.512 130.614 133.332C130.985 132.549 131.224 131.584 131.005 130.549C130.78 129.486 130.152 128.721 129.487 128.217C128.305 127.321 126.708 127.015 125.464 126.882C122.795 126.596 119.455 126.907 117.244 127.25L117.16 127.263L117.076 127.281C115.702 127.589 114.553 127.163 113.521 126.304C112.507 125.459 111.76 124.299 111.381 123.466C110.578 120.081 109.045 118.1 107.255 116.487C106.696 115.984 106.056 115.471 105.469 115C105.208 114.791 104.957 114.589 104.728 114.401C103.923 113.738 103.15 113.049 102.395 112.187C101.207 110.832 99.5638 110.121 98.0179 109.738C96.4466 109.349 94.7224 109.234 93.0739 109.261C89.9402 109.31 86.7135 109.876 84.5529 110.413C79.5826 110.489 76.505 114.475 75.1441 118.514ZM80.0119 120.151C81.0953 116.935 82.9182 115.508 84.801 115.553L85.1612 115.562L85.5101 115.471C87.3769 114.986 90.36 114.444 93.1484 114.4C94.5427 114.378 95.7869 114.483 96.7769 114.728C97.7923 114.98 98.303 115.319 98.53 115.579C99.5426 116.734 100.55 117.622 101.461 118.372C101.811 118.66 102.122 118.909 102.409 119.139C102.923 119.551 103.363 119.903 103.815 120.31C105.006 121.382 105.909 122.522 106.423 124.837L106.472 125.058L106.559 125.266C107.156 126.702 108.379 128.713 110.232 130.256C112.125 131.833 114.822 133.018 118.1 132.318C120.135 132.007 122.919 131.78 124.911 131.993C125.149 132.019 125.353 132.049 125.526 132.079C125.2 132.769 124.941 133.307 124.674 133.775C124.315 134.405 124.062 134.685 123.859 134.842C123.528 135.096 122.726 135.486 119.661 135.176C116.372 134.842 113.226 135.718 110.698 136.691C109.419 137.184 108.241 137.725 107.245 138.189C107.14 138.238 107.038 138.285 106.939 138.332C106.052 138.746 105.387 139.056 104.851 139.259C102.351 140.205 97.4695 141.197 92.5768 140.274C87.8301 139.378 83.0788 136.702 80.2807 130.196L80.2807 130.196C79.0062 127.233 78.9539 123.291 80.0119 120.151Z" fill="#20232A"/>
<path d="M123.446 135.722C121.313 133.047 119.86 126.906 125.874 120.637C131.888 114.368 131.47 105.21 132.505 102.192L177.081 99.4097C177.081 99.4097 165.632 123.898 154.283 132.972C142.935 142.045 131.04 145.252 123.446 135.722Z" fill="#FFFC56"/>
<path fill-rule="evenodd" clip-rule="evenodd" d="M176.614 102.135C177.889 102.755 178.421 104.294 177.802 105.571L175.615 104.508C177.802 105.571 177.802 105.571 177.802 105.571L177.792 105.592L177.766 105.644C177.744 105.689 177.712 105.754 177.67 105.839C177.586 106.009 177.462 106.257 177.302 106.574C176.982 107.208 176.513 108.119 175.918 109.237C174.728 111.473 173.025 114.547 170.973 117.902C166.921 124.526 161.318 132.565 155.465 137.245C149.804 141.771 143.712 145.003 137.803 145.694C131.709 146.407 125.997 144.38 121.579 138.837C118.679 135.197 117.037 127.607 123.752 120.514C126.235 117.892 127.354 115.061 127.965 112.459C128.276 111.139 128.452 109.895 128.617 108.713C128.625 108.658 128.633 108.602 128.64 108.546C128.786 107.499 128.95 106.319 129.252 105.368C129.682 104.015 131.126 103.266 132.477 103.697C133.828 104.127 134.575 105.573 134.145 106.926C133.99 107.414 133.879 108.157 133.702 109.423C133.539 110.594 133.335 112.056 132.964 113.636C132.212 116.834 130.762 120.582 127.478 124.052C122.657 129.144 124.169 133.841 125.593 135.628C128.876 139.747 132.828 141.099 137.21 140.586C141.777 140.052 146.974 137.455 152.262 133.226C157.358 129.152 162.57 121.797 166.595 115.217C168.581 111.97 170.232 108.988 171.387 106.819C171.964 105.735 172.416 104.857 172.722 104.251C172.875 103.949 172.992 103.714 173.069 103.557C173.108 103.479 173.137 103.42 173.156 103.381L173.177 103.338L173.183 103.327C173.183 103.326 173.183 103.327 173.183 103.327C173.802 102.049 175.338 101.516 176.614 102.135Z" fill="#20232A"/>
</g>
<defs>
<clipPath id="clip0_2390_11536">
<rect width="240" height="200" fill="white"/>
</clipPath>
</defs>
</svg>
