<svg width="336" height="280" viewBox="0 0 336 280" fill="none" xmlns="http://www.w3.org/2000/svg">
<g clip-path="url(#clip0_2447_20569)">
<path d="M200.292 224.019C199.842 235.494 193.096 250.036 125.553 253.603C45.7069 254.336 33.0212 249.854 27.2535 230.652C21.0206 209.901 38.5931 198.965 109.936 200.919C163.999 202.401 200.987 206.278 200.292 224.019Z" fill="#0B0C0D"/>
<path d="M295.861 217.775C294.908 226.402 290.153 237.127 251.151 237.54C205.255 235.404 198.242 231.602 196.093 216.945C193.77 201.106 204.523 193.461 245.373 197.335C276.329 200.27 297.334 204.436 295.861 217.775Z" fill="#0B0C0D"/>
<path d="M185.034 115.615C196.98 116.16 209.878 103.69 214.835 97.387C232.27 104.914 232.442 127.737 228.385 136.341C222.299 145.822 203.46 144.663 194.265 142.188C186.574 140.117 175.584 134.261 174.08 127.977C171.815 118.509 180.913 115.433 185.034 115.615Z" fill="#FFFC56"/>
<path fill-rule="evenodd" clip-rule="evenodd" d="M214.052 94.3089L215.827 95.0751C225.499 99.2511 230.289 107.662 232.122 115.915C233.935 124.075 232.967 132.517 230.657 137.415L230.587 137.563L230.499 137.7C226.798 143.467 219.52 145.649 212.715 146.251C205.768 146.866 198.462 145.92 193.614 144.615C189.529 143.515 184.619 141.431 180.494 138.775C178.427 137.445 176.492 135.93 174.947 134.268C173.415 132.62 172.147 130.7 171.635 128.558C170.969 125.774 171.104 123.292 171.898 121.147C172.689 119.011 174.07 117.38 175.627 116.181C178.657 113.848 182.562 112.986 185.14 113.099L185.144 113.1C190.268 113.333 195.905 110.748 201.086 107.023C206.205 103.343 210.503 98.8224 212.858 95.8274L214.052 94.3089ZM215.525 100.505C212.818 103.671 208.757 107.707 204.023 111.111C198.53 115.059 191.745 118.436 184.925 118.126C183.382 118.058 180.678 118.644 178.695 120.17C177.746 120.901 177.019 121.802 176.612 122.901C176.209 123.989 176.057 125.442 176.523 127.392C176.763 128.392 177.433 129.561 178.625 130.843C179.803 132.11 181.379 133.367 183.209 134.545C186.878 136.906 191.308 138.785 194.914 139.756C199.261 140.927 205.972 141.797 212.265 141.24C218.621 140.677 223.758 138.739 226.18 135.112C227.884 131.362 228.812 124.188 227.215 117.001C225.738 110.35 222.192 104.063 215.525 100.505Z" fill="black"/>
<path d="M217.481 197.116C225.602 194.962 221.667 191.805 231.612 195.683C236.323 197.52 240.149 197.354 239.219 203.97C237.99 212.725 230.846 214.593 223.381 214.244C214.424 213.826 209.936 211.194 208.381 209.579C205.118 206.191 205.435 199.308 217.481 197.116Z" fill="#FFFC56" stroke="black" stroke-width="6"/>
<path d="M253.97 204.058C261.651 201.398 265.411 201.986 270.502 197.251C277.27 200.676 279.793 203.638 279.172 209.924C278.551 216.21 272.981 219.137 265.499 219.616C259.968 219.78 252.31 218.805 249.193 214.045C245.237 208.004 251.084 204.473 253.97 204.058Z" fill="#FFFC56" stroke="black" stroke-width="5"/>
<path d="M205.681 115.987C212.569 86.8184 242.78 78.7889 256.384 78.2519C285.473 79.043 297.388 99.0957 301.192 110.604C311.852 142.858 304.838 174.25 300.565 185.235C296.293 196.22 286.085 211.215 248.894 206.175C231.466 202.687 226.801 201.253 217.56 197.915C196.917 190.459 197.368 173.527 200.461 162.933C207.332 139.396 202.821 129.399 205.681 115.987Z" fill="#FFFC56"/>
<path fill-rule="evenodd" clip-rule="evenodd" d="M256.456 75.7379C287.002 76.5686 299.589 97.7418 303.579 109.813C314.471 142.769 307.33 174.78 302.908 186.148C300.661 191.927 296.751 199.005 288.335 203.892C279.955 208.758 267.486 211.235 248.557 208.67L248.479 208.659L248.401 208.644C230.883 205.137 226.093 203.674 216.707 200.284C205.727 196.318 200.06 189.676 197.719 182.373C195.425 175.22 196.43 167.782 198.051 162.23C201.407 150.733 201.978 142.586 202.064 135.635C202.082 134.192 202.078 132.776 202.074 131.374C202.057 126.094 202.041 121.018 203.226 115.464L203.231 115.437L203.238 115.411C206.88 99.9873 216.711 90.1713 227.281 84.1931C237.797 78.2455 249.153 76.0205 256.289 75.7389L256.372 75.7356L256.456 75.7379ZM256.399 80.7709C249.924 81.0404 239.421 83.1045 229.75 88.5745C220.098 94.0338 211.385 102.809 208.135 116.538C207.079 121.506 207.09 125.905 207.102 131.083C207.106 132.548 207.11 134.074 207.09 135.694C206.999 142.978 206.389 151.598 202.874 163.638C201.402 168.681 200.635 175.005 202.504 180.831C204.324 186.508 208.754 192.06 218.416 195.55C227.499 198.83 232.039 200.235 249.312 203.693C267.529 206.15 278.737 203.651 285.817 199.539C292.871 195.443 296.201 189.53 298.226 184.325C302.349 173.722 309.236 142.95 298.808 111.398C295.194 100.463 283.969 81.5583 256.399 80.7709Z" fill="black"/>
<path d="M204.746 185.884C210.987 183.24 213.115 179.108 217.37 170.845L217.371 170.845C220.279 165.198 221.249 155.191 227.778 148.406C229.48 143.772 245.141 140.433 259.052 145.458C262.412 147.123 271.382 149.959 274.46 163.375C275.628 168.464 273.823 176.174 276.651 184.122C278.456 187.917 280.993 193.142 287.666 197.497C286.161 198.893 280.315 202.928 274.359 204.036C267.858 205.978 255.314 205.88 240.863 202.872C237.721 202.339 230.787 200.815 227.791 199.574C221.748 197.533 220.523 196.495 218.361 195.798C216.199 195.101 206.769 191.325 204.746 185.884Z" fill="white"/>
<path d="M247.705 111.244C241.703 119.592 230.085 121.513 221.756 115.535C213.427 109.557 211.541 97.9436 217.544 89.5957C223.546 81.2478 235.164 79.3266 243.493 85.3046C251.822 91.2827 253.708 102.896 247.705 111.244Z" fill="white"/>
<path fill-rule="evenodd" clip-rule="evenodd" d="M224.692 111.452C230.753 115.803 239.23 114.416 243.62 108.312C248.009 102.208 246.618 93.7382 240.557 89.3877C234.496 85.0372 226.018 86.424 221.629 92.5281C217.24 98.6322 218.63 107.102 224.692 111.452ZM221.756 115.535C230.085 121.513 241.703 119.592 247.705 111.244C253.708 102.896 251.822 91.2827 243.493 85.3046C235.164 79.3266 223.546 81.2478 217.544 89.5957C211.541 97.9436 213.427 109.557 221.756 115.535Z" fill="black"/>
<path d="M280.9 117.599C274.612 126.343 262.634 128.492 254.146 122.4C245.657 116.307 243.873 104.28 250.161 95.5358C256.448 86.7916 268.426 84.6421 276.915 90.7346C285.403 96.8272 287.187 108.855 280.9 117.599Z" fill="white"/>
<path fill-rule="evenodd" clip-rule="evenodd" d="M257.082 118.317C263.198 122.707 272.064 121.273 276.814 114.666C281.565 108.06 280.095 99.2076 273.979 94.8177C267.862 90.4278 258.997 91.8616 254.246 98.4682C249.496 105.075 250.966 113.927 257.082 118.317ZM254.146 122.4C262.634 128.492 274.612 126.343 280.9 117.599C287.187 108.855 285.403 96.8272 276.915 90.7346C268.426 84.6421 256.448 86.7916 250.161 95.5358C243.873 104.28 245.657 116.307 254.146 122.4Z" fill="black"/>
<path d="M238.659 104.242C236.544 107.185 232.332 107.777 229.252 105.565C226.172 103.353 225.389 99.1742 227.504 96.2312C229.619 93.2882 233.831 92.6955 236.911 94.9075C239.992 97.1196 240.774 101.299 238.659 104.242Z" fill="black"/>
<path d="M268.678 111.487C265.97 113.896 261.732 113.552 259.212 110.718C256.692 107.884 256.844 103.634 259.552 101.225C262.26 98.8161 266.498 99.1605 269.018 101.994C271.538 104.828 271.385 109.078 268.678 111.487Z" fill="black"/>
<path d="M246.858 126.566C246.858 126.566 269.29 130.743 262.585 120.747C257.92 113.792 250.135 107.392 245.705 107.379C239.484 107.36 230.766 111.761 227.738 117.769C226.418 124.718 235.3 124.99 246.858 126.566Z" fill="#FFD336"/>
<path fill-rule="evenodd" clip-rule="evenodd" d="M243.376 123.572C244.585 123.726 245.86 123.889 247.2 124.071L247.261 124.08L247.32 124.091L247.32 124.091L247.321 124.091L247.321 124.091L247.33 124.093L247.37 124.1C247.407 124.106 247.464 124.117 247.54 124.13C247.691 124.156 247.916 124.194 248.203 124.239C248.777 124.33 249.594 124.449 250.555 124.562C252.497 124.791 254.939 124.984 257.13 124.89C258.225 124.843 259.186 124.726 259.955 124.537C260.756 124.339 261.15 124.11 261.301 123.978C261.312 123.969 261.319 123.963 261.324 123.96C261.322 123.959 261.321 123.955 261.321 123.949C261.315 123.77 261.207 123.204 260.495 122.143C258.309 118.883 255.371 115.732 252.482 113.417C251.04 112.261 249.657 111.351 248.432 110.741C247.169 110.112 246.254 109.89 245.696 109.888C243.115 109.88 239.801 110.813 236.744 112.508C233.816 114.131 231.421 116.286 230.156 118.572C230.037 119.512 230.259 119.969 230.504 120.273C230.879 120.738 231.674 121.279 233.246 121.788C235.747 122.598 239.157 123.033 243.376 123.572ZM246.461 129.045C245.324 128.89 244.188 128.746 243.069 128.604C238.754 128.056 234.686 127.539 231.692 126.57C229.764 125.945 227.864 125.016 226.584 123.427C225.201 121.711 224.83 119.6 225.267 117.298L225.333 116.952L225.492 116.636C227.308 113.033 230.699 110.111 234.305 108.112C237.919 106.109 242.075 104.85 245.715 104.861C247.371 104.867 249.09 105.45 250.679 106.242C252.306 107.052 253.991 108.18 255.632 109.495C258.909 112.122 262.197 115.648 264.675 119.343C265.64 120.781 266.298 122.271 266.349 123.777C266.404 125.429 265.718 126.794 264.613 127.761C263.604 128.643 262.33 129.128 261.157 129.417C259.952 129.714 258.633 129.857 257.343 129.912C254.764 130.023 252.017 129.797 249.963 129.555C248.925 129.432 248.042 129.303 247.415 129.205C247.102 129.155 246.852 129.113 246.678 129.083C246.591 129.068 246.523 129.056 246.475 129.047L246.461 129.045Z" fill="black"/>
<path d="M177.094 46.3798C161.259 38.7819 118.741 36.1103 97.3634 37.2975L92.9883 232.747H146.215C196.254 231.797 218.265 182.509 223.015 159.557C237.583 90.2265 198.471 55.2178 177.094 46.3798Z" fill="black"/>
<path d="M28.3117 84.6146C-7.4816 150.412 28.6354 210.383 69.2639 223.309C107.148 235.363 140.71 228.023 162.039 210.381C228.81 146.742 182.138 77.7496 154.697 58.7562C96.7343 18.6366 47.5759 49.1996 28.3117 84.6146Z" fill="white" stroke="black" stroke-width="9" stroke-linejoin="round"/>
<path d="M99.7428 114.874C72.0301 94.8178 80.8748 83.8266 91.488 79.4811C104.46 74.1702 110.641 79.4825 121.559 79.4825C132.478 79.4825 139.319 87.4185 141.769 90.1072C151.007 97.3669 155.675 124.168 153.4 132.57C151.72 138.62 126.896 134.64 118.148 135.984C101.771 140.421 101.493 120.587 99.7428 114.874Z" fill="#6C411E"/>
<path d="M112.042 193.187C77.8812 195.651 69.807 188.931 67.2669 183.171C64.7265 177.411 57.85 174.333 56.0731 163.139C53.6416 147.821 59.566 142.578 62.1322 140.006C68.9363 130.441 94.6689 138.134 103.159 140.006C109.275 141.395 114.316 159.078 116.072 167.745C132.663 184.348 117.659 191.169 112.042 193.187Z" fill="#F3891D"/>
<path d="M47.4924 131.887C45.1087 109.642 53.4519 101.402 63.6313 93.7499C70.7332 88.4122 75.9801 85.2395 87.3026 87.5919C98.6251 89.9448 91.4626 105.93 100.799 113.174C110.136 120.418 116.164 127.91 113.866 136.294C112.168 142.331 102.73 144.523 91.7103 145.442C71.8755 147.095 49.1455 147.313 47.4924 131.887Z" fill="#31B65D" stroke="#12913C" stroke-width="3" stroke-linejoin="round"/>
<path d="M47.0104 136.013C49.6849 132.574 55.6469 133.147 58.2936 133.864C60.9681 134.277 64.4227 142.348 65.8156 146.331C64.4784 149.083 56.622 153.496 52.8609 155.359C48.5148 155.015 46.0353 149.197 45.3388 146.331C44.0016 142.548 45.896 137.876 47.0104 136.013Z" fill="#FDB91A"/>
<path d="M124.138 138.86C124.919 146.063 117.109 152.444 113.106 154.735C109.421 157.413 94.6175 154.086 89.6385 148.996C84.6594 143.906 87.4142 127.928 94.7003 123.067C100.308 118.328 110.024 122.226 114.181 124.767C120.169 127.627 123.314 135.354 124.138 138.86Z" fill="#BFB7A8"/>
<path d="M105.535 173.016C104.661 137.314 115.367 131.189 120.83 132.589C126.947 130.229 132.847 129.155 135.032 128.914C146.394 128.914 154.333 134.514 156.882 137.314C166.495 144.875 164.165 164.266 161.798 173.016C160.05 179.316 141.405 183.691 132.301 185.091C115.258 189.712 107.356 178.966 105.535 173.016Z" fill="#FFFC56" stroke="#FFDF4F" stroke-width="3" stroke-linejoin="round"/>
<path d="M222.358 149.857C223.457 146.774 227.703 142.368 235.801 143.681C243.899 144.994 263.034 134.309 265.999 133.5L278.699 172.039C278.699 172.039 253.11 176.245 240.062 172.294C227.015 168.344 218.447 160.835 222.358 149.857Z" fill="#FFFC56"/>
<path fill-rule="evenodd" clip-rule="evenodd" d="M276.254 173.136C276.391 174.456 275.412 175.69 274.066 175.892L273.829 173.629C274.066 175.892 274.066 175.892 274.066 175.892L274.044 175.895L273.989 175.904C273.941 175.91 273.872 175.921 273.782 175.933C273.602 175.959 273.339 175.996 273.002 176.041C272.328 176.131 271.355 176.254 270.149 176.39C267.741 176.662 264.395 176.984 260.646 177.185C253.245 177.583 243.919 177.533 237.19 175.496C230.681 173.525 225.005 170.529 221.48 166.318C217.844 161.973 216.621 156.462 218.895 150.077C220.389 145.884 225.716 140.556 234.833 141.973C238.205 142.497 241.06 141.852 243.476 140.936C244.701 140.471 245.798 139.944 246.838 139.44C246.887 139.417 246.936 139.393 246.985 139.369C247.907 138.922 248.945 138.419 249.867 138.146C251.18 137.756 252.511 138.476 252.84 139.753C253.169 141.03 252.372 142.382 251.06 142.771C250.587 142.912 249.929 143.223 248.815 143.762C247.784 144.261 246.497 144.883 245.03 145.44C242.061 146.565 238.296 147.444 233.836 146.751C227.291 145.734 224.244 149.415 223.51 151.474C221.819 156.219 222.708 160.005 225.321 163.128C228.046 166.384 232.759 169.025 238.839 170.866C244.698 172.64 253.274 172.751 260.626 172.356C264.254 172.162 267.498 171.849 269.835 171.586C271.003 171.454 271.942 171.335 272.586 171.249C272.908 171.206 273.156 171.171 273.323 171.148C273.406 171.136 273.468 171.127 273.509 171.121L273.555 171.114L273.567 171.112C273.567 171.112 273.567 171.112 273.567 171.112C274.913 170.91 276.116 171.816 276.254 173.136Z" fill="black"/>
</g>
<defs>
<clipPath id="clip0_2447_20569">
<rect width="336" height="280" fill="white"/>
</clipPath>
</defs>
</svg>
