<svg width="30" height="46" viewBox="0 0 30 46" fill="none" xmlns="http://www.w3.org/2000/svg">
<ellipse opacity="0.1" cx="15.5" cy="42" rx="7.5" ry="4" fill="black"/>
<path d="M14.9998 0C2.41309 0 -0.234113 10.6637 0.0156229 15.9955C0.0152449 19.1887 1.49453 22.9153 3.75041 25.5781C3.75877 25.5879 3.76601 25.5964 3.77457 25.6061C3.97768 25.8363 6.81105 29.0123 10.1336 30.8282C13.7664 32.8137 14.1932 38.8853 14.2433 40.2846C14.2503 40.4794 14.2649 40.6728 14.3187 40.8602C14.7551 42.381 15.9967 42.3799 16.4284 40.857C16.4809 40.6717 16.4952 40.4808 16.5014 40.2882C16.5465 38.8959 16.9327 32.8155 20.2415 30.8282C23.7266 28.7352 25.9168 26.0053 26.2051 25.635C26.2276 25.6061 26.2495 25.5782 26.2726 25.5496C29.6275 21.3954 29.9844 17.0582 29.9844 15.9955C30.234 10.6637 27.5865 0 14.9998 0Z" fill="#20232A"/>
<ellipse cx="15" cy="15" rx="13.5" ry="13.5" fill="#FFFC56"/>
<mask id="mask0_2232_8271" style="mask-type:alpha" maskUnits="userSpaceOnUse" x="1" y="1" width="28" height="28">
<ellipse cx="15" cy="15" rx="13.5" ry="13.5" fill="white"/>
</mask>
<g mask="url(#mask0_2232_8271)">
<path d="M4.86205 14.1408C5.3654 8.29626 10.9871 5.88122 13.6062 5.38991C19.2618 4.71491 22.1402 8.25886 23.2044 10.3792C26.187 16.3216 25.7225 22.6003 25.2079 24.8492C24.6933 27.0982 23.1435 30.2925 15.798 30.3754C12.3237 30.1961 11.3795 30.0513 9.49496 29.6681C5.28512 28.8119 4.89042 25.5202 5.18775 23.3805C5.84827 18.6269 4.69001 16.8195 4.86205 14.1408Z" fill="#FFFC56"/>
<path d="M5.26816 30.861C6.64297 30.0242 7.00012 28.9802 7.71444 26.8921L7.71444 26.8921C8.20261 25.4651 8.08488 23.0808 9.38415 21.2616C9.62393 20.1142 13.1875 18.7889 16.629 19.4889C17.4758 19.764 19.6807 20.1204 20.8673 23.1657C21.3174 24.3208 21.1596 26.1942 22.0983 27.9636C22.6534 28.7928 23.4299 29.9324 25.1479 30.7249C24.8424 31.1049 23.6087 32.2547 22.2477 32.7207C20.7877 33.4015 17.8377 33.8116 14.3392 33.604C13.5826 33.5873 11.9011 33.4689 11.1545 33.2808C9.66457 33.0101 9.34079 32.8086 8.80891 32.7195C8.27703 32.6304 5.93143 32.0692 5.26816 30.861Z" fill="white"/>
<path d="M14.8482 12.2668C13.6979 14.4904 10.9672 15.3646 8.74903 14.2195C6.53088 13.0744 5.66525 10.3435 6.81558 8.11994C7.96591 5.89634 10.6966 5.02205 12.9147 6.16716C15.1329 7.31227 15.9985 10.0431 14.8482 12.2668Z" fill="white"/>
<path fill-rule="evenodd" clip-rule="evenodd" d="M9.31167 13.1319C10.9259 13.9653 12.919 13.331 13.7601 11.705C14.6013 10.0791 13.9664 8.0881 12.3521 7.25474C10.7379 6.42139 8.74478 7.05573 7.90365 8.68165C7.06251 10.3076 7.69741 12.2986 9.31167 13.1319ZM8.74903 14.2195C10.9672 15.3646 13.6979 14.4904 14.8482 12.2668C15.9985 10.0431 15.1329 7.31227 12.9147 6.16716C10.6966 5.02205 7.96591 5.89634 6.81558 8.11994C5.66525 10.3435 6.53088 13.0744 8.74903 14.2195Z" fill="#111111"/>
<path d="M23.0712 12.6232C21.8662 14.9524 19.0568 15.8944 16.7962 14.7274C14.5356 13.5603 13.6798 10.7261 14.8847 8.39698C16.0896 6.06783 18.899 5.12576 21.1596 6.29281C23.4203 7.45985 24.2761 10.2941 23.0712 12.6232Z" fill="white"/>
<path fill-rule="evenodd" clip-rule="evenodd" d="M17.3588 13.6398C18.9877 14.4807 21.0727 13.8213 21.9831 12.0615C22.8935 10.3017 22.2259 8.2213 20.597 7.3804C18.9681 6.5395 16.8831 7.19891 15.9728 8.95869C15.0624 10.7185 15.73 12.7989 17.3588 13.6398ZM16.7962 14.7274C19.0568 15.8944 21.8662 14.9524 23.0712 12.6232C24.2761 10.2941 23.4203 7.45985 21.1596 6.29281C18.899 5.12576 16.0896 6.06783 14.8847 8.39698C13.6798 10.7261 14.5356 13.5603 16.7962 14.7274Z" fill="#111111"/>
<path d="M11.8903 10.7001C11.4851 11.484 10.4915 11.7759 9.67109 11.3521C8.85072 10.9283 8.51421 9.94934 8.91949 9.16545C9.32478 8.38156 10.3184 8.08963 11.1387 8.51341C11.9591 8.93718 12.2956 9.91619 11.8903 10.7001Z" fill="#111111"/>
<path d="M19.6426 11.2405C19.0755 11.9167 18.0424 11.9838 17.335 11.3904C16.6276 10.797 16.5138 9.76779 17.0808 9.09158C17.6478 8.41537 18.6809 8.34824 19.3883 8.94165C20.0957 9.53506 20.2096 10.5643 19.6426 11.2405Z" fill="#111111"/>
<path d="M14.5556 16.0203C14.5556 16.0203 20.1075 16.2322 18.1381 14.0615C16.768 12.5513 14.6658 11.2855 13.5982 11.4391C12.099 11.6548 10.1547 13.024 9.63809 14.5785C9.56625 16.2992 11.7155 16.0502 14.5556 16.0203Z" fill="#FFD336"/>
<path fill-rule="evenodd" clip-rule="evenodd" d="M13.6114 15.4272C13.9081 15.4215 14.2211 15.4156 14.5502 15.4121L14.5651 15.412L14.5798 15.4125L14.5822 15.4126L14.5922 15.413C14.6013 15.4132 14.6154 15.4137 14.6341 15.4141C14.6715 15.4151 14.7271 15.4163 14.7978 15.417C14.9394 15.4185 15.1404 15.4183 15.3758 15.4115C15.8517 15.3979 16.447 15.3579 16.9713 15.2576C17.2335 15.2075 17.4608 15.1454 17.6393 15.0725C17.8253 14.9965 17.9122 14.9274 17.9439 14.8902C17.9462 14.8876 17.9477 14.886 17.9488 14.8851C17.9483 14.8848 17.9478 14.884 17.9476 14.8825C17.9398 14.8395 17.8938 14.707 17.6848 14.4767C17.0425 13.7687 16.2233 13.1138 15.4454 12.6584C15.057 12.431 14.6916 12.2609 14.3748 12.1572C14.0485 12.0503 13.8201 12.0294 13.6856 12.0487C13.0635 12.1382 12.2983 12.4802 11.6218 12.9968C10.974 13.4915 10.4734 14.0956 10.2496 14.691C10.2543 14.9216 10.3239 15.0239 10.3936 15.0885C10.5004 15.1873 10.7112 15.2892 11.1079 15.3562C11.739 15.4627 12.5759 15.4468 13.6114 15.4272ZM14.5485 16.6363C14.2689 16.6394 13.9903 16.6449 13.7157 16.6503C12.6568 16.6711 11.6585 16.6908 10.903 16.5632C10.4163 16.4811 9.9258 16.3245 9.56105 15.987C9.1672 15.6226 9.00298 15.1272 9.02677 14.5573L9.03035 14.4714L9.05747 14.3899C9.36728 13.4575 10.0808 12.6336 10.8787 12.0243C11.6783 11.4137 12.6349 10.9633 13.512 10.8371C13.9113 10.7796 14.3461 10.8593 14.7569 10.9938C15.1774 11.1314 15.6233 11.3433 16.0652 11.602C16.9478 12.1187 17.8647 12.8518 18.5925 13.654C18.8759 13.9664 19.0872 14.3021 19.1528 14.663C19.2246 15.0589 19.1078 15.4121 18.8756 15.6841C18.6638 15.9324 18.3742 16.0944 18.1019 16.2056C17.8221 16.3199 17.5093 16.4009 17.2006 16.4599C16.5831 16.578 15.9135 16.6207 15.41 16.6352C15.1557 16.6425 14.9383 16.6427 14.784 16.6411C14.7067 16.6403 14.6449 16.639 14.602 16.6379C14.5805 16.6373 14.5637 16.6368 14.5519 16.6365L14.5485 16.6363Z" fill="black"/>
</g>
</svg>
