<svg width="336" height="280" viewBox="0 0 336 280" fill="none" xmlns="http://www.w3.org/2000/svg">
<g clip-path="url(#clip0_2270_17199)">
<path d="M330.231 241.996C340.146 238.547 332.566 229.063 327.536 224.752L315.681 210.202L189.585 220.441C154.019 216.849 82.6728 209.771 81.8106 210.202C80.9484 210.634 49.119 220.082 33.3121 224.752C22.9657 226.907 30.0789 237.146 34.9287 240.379C41.3952 248.139 66.7222 243.972 78.5773 241.457C87.6304 237.146 98.5156 237.865 102.827 238.224C108.431 238.224 115.221 240.739 116.837 243.074C122.01 255.575 150.966 255.108 165.875 253.851C176.652 251.264 198.387 249.54 207.907 249.001C228.599 249.863 259.998 237.865 273.11 231.757C287.767 229.602 299.335 233.733 303.287 236.068C317.082 242.104 326.997 242.535 330.231 241.996Z" fill="#0B0C0D"/>
<path d="M37.8028 205.236C51.2019 203.117 62.6909 186.317 66.7604 178.181C87.8532 182.568 95.9005 207.82 93.3546 218.307C88.7552 230.231 67.0806 235.289 56.2974 234.636C47.278 234.09 31.2613 229.121 28.1565 222.481C23.4787 212.477 29.6984 206.517 37.8028 205.236Z" fill="#FFFC56" stroke="black" stroke-width="5"/>
<path d="M92.3374 225.555C58.7141 220.508 46.7991 187.107 44.9144 171.777C43.0768 138.816 64.6285 123.462 77.2822 118.081C112.746 103 148.895 107.981 161.715 111.78C174.536 115.578 192.447 125.71 190.242 168.231C187.935 188.262 186.753 193.671 183.847 204.431C177.356 228.47 158.171 229.55 145.903 227.048C118.648 221.49 107.77 227.53 92.3374 225.555Z" fill="#FFFC56" stroke="black" stroke-width="5"/>
<path d="M166.32 229.08C162.067 221.955 156.779 219.765 146.205 215.383C138.978 212.389 127.801 212.677 117.693 204.834C109.698 198.631 106.206 186.137 109.698 169.45C111.078 165.386 113.928 153.58 129.318 148.978C135.156 147.232 142.482 148.78 151.421 144.877C155.608 142.48 161.362 139.118 165.348 130.97C167.275 132.633 173.11 139.19 175.487 146.095C178.952 153.576 181.069 168.295 180.069 185.465C179.995 189.19 179.42 197.435 178.479 201.041C177.131 208.278 176.116 209.792 175.673 212.379C175.23 214.966 172.424 226.305 166.32 229.08Z" fill="white"/>
<path d="M67.5453 168.919C76.125 172.74 86.1231 169.005 89.8765 160.577C93.63 152.149 89.7175 142.22 81.1377 138.398" stroke="black" stroke-width="5" stroke-linecap="round"/>
<path d="M53.514 200.422C61.4851 203.972 70.9897 200.018 74.7432 191.59C78.4966 183.162 75.0775 173.452 67.1064 169.902" stroke="black" stroke-width="5" stroke-linecap="round"/>
<path d="M94.7122 179.83C94.7122 179.83 110.297 157.418 96.0976 159.816C86.2187 161.485 75.4115 166.83 73.2188 171.654C70.1396 178.429 70.6542 190.102 75.7182 196.358C82.6481 201.214 87.3116 191.661 94.7122 179.83Z" fill="#FFD336" stroke="black" stroke-width="5"/>
<path d="M215.45 129.371C197.344 106.091 169.825 101.709 158.329 102.427C150.138 102.034 147.013 108.37 146.474 111.588L134.08 236.067C142.702 243.396 164.616 240.558 174.495 238.223C183.98 235.636 205.75 235.708 215.45 236.067C233.125 238.223 260.176 227.984 271.492 222.596C290.03 217.853 305.441 223.494 310.83 226.906C319.452 233.373 325.2 231.756 326.996 230.14C333.463 212.034 308.495 188.467 295.203 178.947C287.874 172.48 258.38 161.523 244.549 156.853C237.651 155.129 222.275 137.813 215.45 129.371Z" fill="#FFCF73" stroke="black" stroke-width="5"/>
<path d="M215.45 225.831C191.201 227.987 182.04 224.753 166.413 227.987C154.557 230.439 142.702 226.926 142.163 230.143L140.008 236.071C146.474 238.765 162.461 238.406 172.34 236.071C184.195 232.299 205.211 233.017 214.911 233.377C232.586 235.532 256.574 226.371 273.109 219.905C286.581 214.636 305.98 220.983 310.83 223.676C317.297 228.527 322.506 230.143 324.302 228.527C327.535 223.676 302.747 215.407 296.281 213.438C283.887 209.666 266.643 213.438 258.021 219.365C245.088 224.753 228.383 225.831 215.45 225.831Z" fill="#DFA40B"/>
<path d="M191.769 161.171C188.509 160.572 188.672 156.36 189.161 154.329C189.255 151.218 195.152 153.183 198.088 154.554C200.725 156.17 199.827 159.115 199.048 160.386C197.802 162.42 193.676 161.756 191.769 161.171Z" fill="#FFA439"/>
<path d="M305.637 206.413C302.818 205.968 303.081 202.175 303.565 200.335C303.735 197.534 308.809 199.132 311.325 200.281C313.573 201.658 312.707 204.333 311.993 205.499C310.851 207.363 307.28 206.885 305.637 206.413Z" fill="#FFA439"/>
<path d="M236.628 185.702C240.175 186.992 239.484 180.607 238.696 177.253C236.188 174.87 235.564 174.271 235.564 174.271C232.017 172.981 231.485 176.469 231.662 178.375C233.341 184.138 235.672 185.661 236.628 185.702Z" fill="#FFA439"/>
<path d="M283.56 197.216C284.804 193.449 277.834 193.67 274.193 194.252C271.7 196.792 271.074 197.424 271.074 197.424C269.83 201.19 273.681 202.063 275.762 202.029C282.003 200.676 283.561 198.256 283.56 197.216Z" fill="#FFA439"/>
<path d="M166.321 106.932C164.36 109.172 169.107 112.012 171.725 113.152C174.159 112.353 174.769 112.158 174.769 112.158C176.73 109.918 174.405 107.615 172.997 106.744C168.401 105.053 166.632 106.165 166.321 106.932Z" fill="#FFA439"/>
<path d="M168.41 198.526C173.508 200.974 174.152 196.174 173.455 193.996C170.5 190.998 168.576 188.652 168.576 188.652C164.986 186.261 163.329 189.977 163.879 192.085C162.728 194.482 166.286 197.507 168.41 198.526Z" fill="#FFA439"/>
<path d="M172.466 227.864C170.138 231.969 174.644 233.089 176.695 232.744C179.529 230.551 181.744 229.169 181.744 229.169C184.011 226.357 180.529 224.491 178.545 224.717C176.299 223.443 173.437 226.153 172.466 227.864Z" fill="#FFA439"/>
<path d="M244.823 216.502C246.713 211.426 241.33 210.952 239.043 211.705C236.209 214.699 233.932 216.66 233.932 216.66C231.866 220.256 236.216 221.76 238.449 221.151C241.268 222.201 244.035 218.616 244.823 216.502Z" fill="#FFA439"/>
<path d="M178.797 140.688C171.938 141.393 167.884 156.854 168.664 160.087H180.356C181.915 154.796 182.435 149.211 185.812 145.096L178.797 140.688Z" fill="#77DB6E" stroke="#12913C" stroke-width="3"/>
<path d="M180.667 213.439C178.025 219.81 161.67 219.192 158.712 217.503L162.033 206.293C167.679 206.339 173.318 207.468 178.324 205.428L180.667 213.439Z" fill="#77DB6E" stroke="#12913C" stroke-width="3"/>
<path d="M217.231 174.274C214.427 167.512 204.108 169.575 200.969 171.368L204.493 183.266C210.485 183.216 216.47 182.018 221.783 184.183L217.231 174.274Z" fill="#77DB6E" stroke="#12913C" stroke-width="3"/>
<path d="M267.589 213.354C264.988 207.082 252.806 210.302 249.894 211.965L251.858 221.694C257.415 221.648 264.272 219.231 269.2 221.239L267.589 213.354Z" fill="#77DB6E" stroke="#12913C" stroke-width="3"/>
<path d="M312.15 198.153C311.016 191.644 299.129 186.255 295.643 193.065L296.659 200.026C301.946 201.166 303.566 199.573 307.818 202.529L312.15 198.153Z" fill="#77DB6E" stroke="#12913C" stroke-width="3"/>
<path d="M148.091 98.6544C139.038 96.0678 135.582 104.583 135.047 109.417C125.132 199.085 124.886 232.484 126.503 235.897C135.556 241.501 140.269 242.917 142.052 237.513C156.279 194.403 156.602 133.487 156.063 113.189C155.834 104.583 154.019 100.348 148.091 98.6544Z" fill="#FEAF52" stroke="black" stroke-width="5"/>
<path d="M151.324 104.042C149.169 100.808 150.247 138.531 147.014 170.864C141.086 220.979 137.078 231.19 136 235.5C136 235.5 138.233 241.795 140 236C153.472 191.813 153.48 141.764 153.48 121.287C153.48 112.677 153.479 107.275 151.324 104.042Z" fill="#E7820C"/>
<path d="M218.656 154.245C218.054 156.521 214.942 158.48 210.926 157.416C206.91 156.353 205.176 153.11 205.778 150.835C206.381 148.56 209.492 146.601 213.509 147.664C217.525 148.728 219.259 151.97 218.656 154.245Z" stroke="#212121" stroke-width="5"/>
<path d="M259.847 207.512C257.364 209.647 254.037 209.329 252.362 207.38C250.686 205.432 250.869 202.095 253.352 199.959C255.835 197.824 259.162 198.142 260.838 200.091C262.513 202.04 262.33 205.377 259.847 207.512Z" stroke="#212121" stroke-width="5"/>
<path d="M181.188 199.24C184.022 200.918 184.975 204.618 183.255 207.521C181.536 210.424 177.833 211.366 175 209.688C172.166 208.01 171.213 204.309 172.933 201.407C174.652 198.504 178.355 197.561 181.188 199.24Z" stroke="#212121" stroke-width="5"/>
<path d="M212.217 122.906C219.459 133.386 231.924 138.186 217.563 148.11C203.201 158.033 185.689 157.582 178.447 147.102C171.206 136.622 176.977 120.082 191.339 110.158C193.895 107.817 204.976 112.426 212.217 122.906Z" fill="#CA2D2B"/>
<path d="M211.139 125.061C218.381 135.541 228.297 141.096 217.563 148.109C206.828 155.122 184.735 151.765 181.68 146.024C178.268 139.61 173.819 128.647 187.968 112.666C191.74 109.434 203.898 114.581 211.139 125.061Z" fill="#E74240"/>
<path d="M189.084 121.565C187.966 122.792 185.281 125.85 184.359 127.595C183.225 129.741 181.502 133.401 179.72 131.442C177.939 129.483 181.222 122.246 184.196 118.596C186.354 115.947 191.076 112.063 195.738 112.019C199.284 111.986 201.979 115.9 197.34 116.663C193.357 117.318 190.203 120.338 189.084 121.565Z" fill="white"/>
<path d="M204.762 135.932C205.059 134.016 206.672 134.785 207.2 135.412C207.515 136.835 207.842 137.839 207.842 137.839C207.839 139.321 206.35 139.051 205.814 138.479C204.837 138.328 204.638 136.73 204.762 135.932Z" fill="#CA2D2B"/>
<path d="M199.772 131.955C200.068 130.039 201.681 130.809 202.21 131.435C202.525 132.859 202.851 133.863 202.851 133.863C202.848 135.344 201.36 135.074 200.824 134.502C199.847 134.351 199.648 132.754 199.772 131.955Z" fill="#CA2D2B"/>
<path d="M208.361 130.682C208.658 128.766 210.271 129.535 210.799 130.162C211.114 131.585 211.441 132.589 211.441 132.589C211.438 134.071 209.95 133.801 209.413 133.229C208.437 133.078 208.238 131.48 208.361 130.682Z" fill="#CA2D2B"/>
<path d="M285.968 181.778C285.578 191.737 276.147 199.454 264.902 199.015C253.657 198.575 244.856 190.146 245.246 180.187C245.635 170.228 255.066 165.744 266.311 166.184C277.556 166.623 286.357 171.819 285.968 181.778Z" fill="#CA2D2B"/>
<path d="M283.812 181.778C282.809 188.11 275.265 196.187 264.902 195.782C253.657 195.342 244.856 190.146 245.246 180.187C245.635 170.228 255.066 165.744 266.311 166.184C277.556 166.623 284.201 171.819 283.812 181.778Z" fill="#E74240"/>
<path d="M264.804 172.382C263.169 172.672 260.688 173.261 258.893 174.082C256.686 175.091 250.695 177.571 250.479 174.932C250.262 172.293 258.354 168.56 262.937 167.481C266.263 166.698 273.452 166.5 277.174 169.308C280.004 171.444 278.478 175.756 274.337 173.532C272.494 172.542 266.439 172.091 264.804 172.382Z" fill="white"/>
<path d="M254.885 182.345C256.53 183.135 256.791 181.473 256.586 180.73C255.649 179.728 255.044 178.94 255.044 178.94C253.893 178.154 253.31 179.452 253.468 180.173C253.066 181.012 254.2 182.016 254.885 182.345Z" fill="#CA2D2B"/>
<path d="M255.313 188.33C256.957 189.119 257.219 187.458 257.014 186.714C256.077 185.713 255.472 184.925 255.472 184.925C254.321 184.138 253.738 185.437 253.896 186.158C253.494 186.996 254.627 188.001 255.313 188.33Z" fill="#CA2D2B"/>
<path d="M260.873 182.345C262.518 183.135 262.779 181.473 262.574 180.73C261.638 179.728 261.032 178.94 261.032 178.94C259.881 178.154 259.299 179.452 259.457 180.173C259.054 181.012 260.188 182.016 260.873 182.345Z" fill="#CA2D2B"/>
<path d="M232.155 236.608C230 239.242 189.045 240.919 186.89 238.224C173.845 227.552 173.688 211.653 183.992 199.058C194.296 186.464 213.224 184.906 226.269 195.578C239.314 206.251 242.459 224.013 232.155 236.608Z" fill="#CA2D2B"/>
<path d="M228.921 232.298C224.072 235.531 189.045 235.531 186.889 232.837C173.844 222.164 173.688 211.654 183.992 199.06C194.296 186.465 209.991 184.907 223.036 195.58C236.081 206.252 239.087 225.522 228.921 232.298Z" fill="#E74240"/>
<path d="M191.272 203.142C187.57 207.447 186.956 209.244 185.349 213.255C183.118 218.824 183.759 230.502 181.326 226.522C178.268 221.518 179.464 209.43 186.298 201.062C193.479 191.343 204.74 189.792 215.513 192.923C219.222 195.652 216.554 196.729 204.673 196.73C200.889 196.73 194.973 198.838 191.272 203.142Z" fill="white"/>
<path d="M190.749 220.979C192.779 221.954 193.102 219.904 192.848 218.986C191.692 217.75 190.945 216.777 190.945 216.777C189.525 215.807 188.806 217.409 189.001 218.299C188.504 219.334 189.903 220.573 190.749 220.979Z" fill="#CA2D2B"/>
<path d="M191.277 228.37C193.307 229.344 193.63 227.294 193.377 226.377C192.221 225.14 191.474 224.168 191.474 224.168C190.053 223.198 189.334 224.8 189.529 225.689C189.032 226.724 190.432 227.964 191.277 228.37Z" fill="#CA2D2B"/>
<path d="M198.667 228.37C200.697 229.344 201.02 227.294 200.766 226.377C199.61 225.14 198.863 224.168 198.863 224.168C197.443 223.198 196.724 224.8 196.919 225.689C196.422 226.724 197.821 227.964 198.667 228.37Z" fill="#CA2D2B"/>
<path d="M138.037 194.699C134.326 195.51 127.498 193.944 124.205 184.879C120.912 175.814 109.431 170.659 106.933 168.147L128.187 123.466C128.187 123.466 146.959 146.884 150.428 162.637C153.897 178.391 151.254 191.811 138.037 194.699Z" fill="#FFFC56"/>
<path fill-rule="evenodd" clip-rule="evenodd" d="M130.673 125.269C131.916 124.303 133.709 124.528 134.678 125.772L132.546 127.429C134.678 125.772 134.678 125.772 134.678 125.772L134.693 125.792L134.733 125.843C134.767 125.887 134.816 125.951 134.88 126.035C135.008 126.202 135.195 126.446 135.431 126.761C135.905 127.392 136.583 128.305 137.405 129.447C139.047 131.729 141.273 134.932 143.608 138.623C148.217 145.909 153.474 155.433 155.263 163.558C156.993 171.416 157.224 179.069 155.013 185.293C152.732 191.713 147.911 196.406 140.223 198.086C135.176 199.189 126.811 197.1 123.042 186.933C121.648 183.174 119.377 180.67 117.086 178.784C115.924 177.828 114.771 177.042 113.675 176.298C113.624 176.263 113.572 176.228 113.52 176.192C112.549 175.534 111.454 174.791 110.655 174.024C109.519 172.932 109.482 171.126 110.573 169.992C111.665 168.857 113.471 168.823 114.608 169.916C115.017 170.309 115.704 170.785 116.877 171.581C117.963 172.319 119.319 173.239 120.71 174.384C123.527 176.702 126.549 179.985 128.393 184.958C131.099 192.257 136.518 193.056 138.997 192.515C144.71 191.266 147.995 187.993 149.634 183.378C151.343 178.567 151.306 172.117 149.689 164.776C148.132 157.701 143.364 148.903 138.785 141.666C136.526 138.094 134.367 134.987 132.773 132.773C131.977 131.666 131.323 130.785 130.871 130.183C130.644 129.882 130.469 129.651 130.35 129.497C130.291 129.42 130.246 129.362 130.217 129.324L130.185 129.282L130.176 129.271C129.208 128.027 129.43 126.235 130.673 125.269Z" fill="black"/>
<path d="M89.6159 49.3906L82.6999 69.5804L83.2444 71.565L99.8911 66.9972L99.0687 64L87.0798 67.2897L93.9958 47.0999L93.4513 45.1153L78.4652 49.2274L79.2876 52.2246L89.6159 49.3906Z" fill="white"/>
<path d="M66.3094 76.615L63.3809 92.6093L64.0156 94.0431L76.042 88.7195L75.0835 86.5542L66.4221 90.3882L69.3507 74.3939L68.716 72.9601L57.8893 77.7527L58.8478 79.918L66.3094 76.615Z" fill="white"/>
<path d="M124.586 56.9791L107.673 77.2791L107.426 79.8152L128.698 81.8812L129.07 78.0513L113.75 76.5633L130.664 56.2633L130.91 53.7272L111.76 51.8672L111.388 55.6972L124.586 56.9791Z" fill="white"/>
</g>
<defs>
<clipPath id="clip0_2270_17199">
<rect width="336" height="280" fill="white"/>
</clipPath>
</defs>
</svg>
