<svg width="336" height="280" viewBox="0 0 336 280" fill="none" xmlns="http://www.w3.org/2000/svg">
<g clip-path="url(#clip0_2270_17508)">
<path d="M268.82 77.5266C278 80.0626 277.553 90.418 273.82 92.3729C268.568 95.123 261.463 91.373 260.004 90.418C253.44 94.7143 243 91.3732 243 85.1657C243 78.9582 248.23 75.0491 251.44 75.5266C251.44 71.23 255 68.3622 257.253 67.4549C262.044 65.5262 269.695 69.8882 268.82 77.5266Z" fill="#E9E9E9" stroke="black" stroke-width="4"/>
<path d="M254.001 251.941C253.655 260.747 252.539 272.363 186.376 274.547C120.213 276.731 99.0864 271.366 84.7031 249.985C76.2019 237.348 100.129 227.507 170.062 229.594C223.057 231.175 254.642 235.642 254.001 251.941Z" fill="#0B0C0D"/>
<path d="M129.82 258.937C73.8162 243.056 54.7336 171.94 51 134L297 137.176C284.389 232.468 240 259.282 210.106 261.584C171.609 264.549 146.69 262.467 129.82 258.937Z" fill="white" stroke="black" stroke-width="7"/>
<path d="M85.5 222.5C79 213.5 74 204 68.5 191C123.264 222.947 216.854 224.914 279.5 193.5C275.5 204 271.5 213 265 222C221.5 246.5 141 250 85.5 222.5Z" fill="#EB1A20"/>
<path d="M298.5 130.5C298.5 145.988 285.802 160.96 263.096 172.268C240.603 183.471 209.285 190.5 174.5 190.5C139.715 190.5 108.397 183.471 85.9042 172.268C63.1982 160.96 50.5 145.988 50.5 130.5C50.5 115.012 63.1982 100.04 85.9042 88.7317C108.397 77.5294 139.715 70.5 174.5 70.5C209.285 70.5 240.603 77.5294 263.096 88.7317C285.802 100.04 298.5 115.012 298.5 130.5Z" fill="#943011" stroke="black" stroke-width="7"/>
<path d="M121.602 68.2263C124.875 30.3445 161.42 14.6912 178.447 11.5067C215.213 7.13159 233.925 30.1021 240.844 43.8451C260.234 82.3618 257.214 123.058 253.869 137.634C250.523 152.211 240.448 172.915 192.695 173.453C170.11 172.291 163.972 171.352 151.72 168.868C124.353 163.319 121.787 141.983 123.72 128.114C128.014 97.3039 120.484 85.5889 121.602 68.2263Z" fill="#FFFC56"/>
<path fill-rule="evenodd" clip-rule="evenodd" d="M178.07 8.33504C216.678 3.74071 236.444 27.9936 243.701 42.4088C263.512 81.7633 260.447 123.26 256.985 138.345C255.225 146.014 251.613 155.619 241.923 163.306C232.275 170.96 217.035 176.37 192.731 176.643L192.63 176.645L192.53 176.639C169.827 175.471 163.526 174.518 151.083 171.995C136.525 169.043 128.163 161.752 123.863 153.019C119.652 144.464 119.54 134.942 120.553 127.674C122.651 112.624 121.861 102.293 120.684 93.5526C120.439 91.7378 120.171 89.9614 119.906 88.203C118.908 81.5787 117.949 75.2108 118.412 68.0209L118.414 67.9862L118.417 67.9515C120.148 47.9206 130.708 33.7856 142.908 24.3315C155.045 14.9258 168.93 10.0374 177.86 8.36718L177.965 8.34762L178.07 8.33504ZM178.931 14.6626C170.828 16.196 157.989 20.7249 146.827 29.3752C135.686 38.0088 126.342 50.6306 124.791 68.4631C124.381 74.8931 125.209 80.413 126.183 86.91C126.459 88.7473 126.746 90.6627 127.021 92.699C128.255 101.859 129.083 112.791 126.886 128.552C125.966 135.153 126.172 143.233 129.602 150.2C132.944 156.989 139.548 163.141 152.358 165.738C164.4 168.18 170.375 169.104 192.761 170.258C216.148 169.98 229.795 164.774 237.947 158.307C246.069 151.864 249.167 143.828 250.752 136.921C253.981 122.852 256.955 82.9572 237.988 45.2781C231.414 32.2205 213.785 10.5633 178.931 14.6626Z" fill="black"/>
<path d="M133.36 156.129C140.727 151.658 142.641 146.079 146.469 134.922L146.469 134.922C149.086 127.298 148.455 114.558 155.418 104.837C156.703 98.7063 175.8 91.6251 194.244 95.365C198.782 96.8352 210.598 98.7395 216.957 115.011C219.369 121.183 218.524 131.193 223.554 140.648C226.529 145.078 230.691 151.167 239.897 155.402C238.26 157.432 231.649 163.576 224.355 166.066C216.53 169.703 200.721 171.894 181.972 170.785C177.918 170.696 168.907 170.064 164.905 169.058C156.92 167.612 155.185 166.535 152.335 166.059C149.484 165.583 136.914 162.584 133.36 156.129Z" fill="white"/>
<path d="M177.184 53.6346C171.173 65.2203 156.903 69.7756 145.311 63.8092C133.719 57.8429 129.196 43.6141 135.207 32.0285C141.219 20.4428 155.489 15.8875 167.08 21.8539C178.672 27.8203 183.196 42.049 177.184 53.6346Z" fill="white"/>
<path fill-rule="evenodd" clip-rule="evenodd" d="M148.251 58.1426C156.687 62.4846 167.103 59.1795 171.498 50.708C175.894 42.2364 172.576 31.8626 164.14 27.5205C155.704 23.1785 145.289 26.4836 140.893 34.9552C136.498 43.4267 139.815 53.8005 148.251 58.1426ZM145.311 63.8092C156.903 69.7756 171.173 65.2203 177.184 53.6346C183.196 42.049 178.672 27.8203 167.08 21.8539C155.489 15.8875 141.219 20.4428 135.207 32.0285C129.196 43.6141 133.719 57.8429 145.311 63.8092Z" fill="black"/>
<path d="M220.149 55.4817C213.853 67.6173 199.171 72.5257 187.358 66.4451C175.544 60.3644 171.072 45.5972 177.368 33.4617C183.665 21.3261 198.346 16.4176 210.16 22.4983C221.974 28.579 226.446 43.3461 220.149 55.4817Z" fill="white"/>
<path fill-rule="evenodd" clip-rule="evenodd" d="M190.298 60.7784C198.81 65.1597 209.706 61.724 214.463 52.555C219.221 43.386 215.732 32.5463 207.22 28.165C198.708 23.7836 187.812 27.2193 183.054 36.3884C178.297 45.5574 181.786 56.397 190.298 60.7784ZM187.358 66.4451C199.171 72.5257 213.853 67.6173 220.149 55.4817C226.446 43.3461 221.974 28.579 210.16 22.4983C198.346 16.4176 183.665 21.3261 177.368 33.4617C171.072 45.5972 175.544 60.3644 187.358 66.4451Z" fill="black"/>
<path d="M164.386 45.5357C162.268 49.62 157.075 51.1411 152.788 48.9331C148.501 46.7251 146.743 41.6241 148.86 37.5398C150.978 33.4555 156.171 31.9345 160.458 34.1425C164.745 36.3505 166.504 41.4514 164.386 45.5357Z" fill="black"/>
<path d="M203.112 48.3534C200.149 51.8766 194.75 52.2264 191.053 49.1345C187.356 46.0427 186.762 40.6801 189.725 37.1568C192.688 33.6335 198.087 33.2838 201.784 36.3756C205.48 39.4675 206.075 44.8301 203.112 48.3534Z" fill="black"/>
<path d="M178.313 73.2002C178.313 73.2002 207.326 74.3042 197.034 62.9941C189.874 55.1255 178.889 48.53 173.309 49.3303C165.475 50.4542 155.314 57.5882 152.615 65.6878C152.239 74.6532 163.471 73.3559 178.313 73.2002Z" fill="#FFD336"/>
<path fill-rule="evenodd" clip-rule="evenodd" d="M173.375 70.0868C174.926 70.0574 176.562 70.0264 178.282 70.0084L178.36 70.0076L178.436 70.0105L178.437 70.0105L178.437 70.0105L178.438 70.0106L178.449 70.011L178.501 70.0127C178.549 70.0142 178.622 70.0164 178.72 70.0189C178.915 70.0238 179.206 70.0299 179.576 70.0337C180.315 70.0415 181.366 70.0405 182.596 70.0053C185.083 69.9342 188.194 69.7258 190.934 69.2033C192.304 68.9421 193.492 68.6186 194.425 68.2388C195.397 67.843 195.851 67.4828 196.016 67.2891C196.028 67.2752 196.036 67.2669 196.042 67.2622C196.039 67.2608 196.037 67.2569 196.035 67.2488C195.995 67.0248 195.754 66.3343 194.662 65.1344C191.306 61.4457 187.025 58.0333 182.96 55.6606C180.93 54.4759 179.02 53.5893 177.365 53.049C175.66 52.4923 174.466 52.3832 173.763 52.484C170.512 52.9503 166.514 54.7323 162.978 57.4238C159.593 60.0011 156.977 63.1489 155.807 66.2511C155.832 67.4526 156.195 67.9857 156.56 68.3221C157.118 68.8369 158.22 69.3681 160.293 69.717C163.591 70.2721 167.964 70.1892 173.375 70.0868ZM178.272 76.3869C176.812 76.4027 175.355 76.4313 173.92 76.4595C168.387 76.5681 163.17 76.6706 159.222 76.0061C156.679 75.5781 154.115 74.7623 152.209 73.0038C150.151 71.1049 149.293 68.5236 149.417 65.5545L149.436 65.1071L149.577 64.682C151.197 59.8244 154.925 55.5312 159.095 52.3568C163.274 49.1754 168.273 46.8285 172.856 46.171C174.943 45.8716 177.215 46.2867 179.362 46.9876C181.559 47.7047 183.889 48.8087 186.198 50.1564C190.811 52.8486 195.602 56.6681 199.406 60.8481C200.887 62.4756 201.991 64.2247 202.334 66.1052C202.709 68.1679 202.098 70.008 200.885 71.4256C199.778 72.719 198.265 73.5633 196.842 74.1427C195.38 74.738 193.745 75.1602 192.132 75.4678C188.905 76.0831 185.406 76.3055 182.774 76.3808C181.446 76.4188 180.31 76.42 179.503 76.4115C179.099 76.4073 178.777 76.4006 178.552 76.3949C178.44 76.3921 178.352 76.3895 178.291 76.3875L178.272 76.3869Z" fill="black"/>
<mask id="mask0_2270_17508" style="mask-type:alpha" maskUnits="userSpaceOnUse" x="54" y="74" width="241" height="114">
<path d="M291.466 132.726C290.64 143.778 280.237 156.007 259.778 165.87C239.545 175.626 210.416 182.551 174.407 183.453C148.878 184.092 119.256 178.689 96.1155 168.958C84.5441 164.092 74.7822 158.223 67.9682 151.65C61.1634 145.086 57.5293 138.064 57.5293 130.762C57.5293 123.269 62.8088 114.065 73.1292 105.304C83.3153 96.6567 97.8797 88.9258 115.112 84.3055C148.697 75.3008 193.917 75.2813 230.36 83.9542C248.582 88.2909 264.321 94.7346 275.27 103.073C286.15 111.36 292.002 121.248 291.466 132.726Z" fill="#CF6240" stroke="black" stroke-width="7"/>
</mask>
<g mask="url(#mask0_2270_17508)">
<path d="M246.304 106.254C254.694 102.832 273.248 106.254 275.778 121.138L220.116 146.221L169.189 160.815V142.118C174.684 134.364 177.326 131.83 183.43 128.891C187.738 126.817 194.513 128.567 204.092 131.83C215.249 135.63 222.736 128.891 224.722 123.621C228.063 114.754 240.357 108.68 246.304 106.254Z" fill="#FFDA8E"/>
<path d="M254.738 115.381C263.128 111.959 282.104 115.378 285.898 132.747L230.658 164.926L170.357 164.926L177.622 151.245C183.117 143.491 185.759 140.957 191.863 138.018C196.171 135.944 202.947 137.694 212.526 140.957C223.682 144.757 232.108 143.491 236.155 132.748C239.496 123.881 248.791 117.807 254.738 115.381Z" fill="#FFDA8E"/>
<path d="M284.633 130.69C280.519 112.922 261.778 111.964 252.684 115.464C246.237 117.946 236.162 124.16 232.54 133.231C228.153 144.221 219.02 145.516 206.927 141.629C196.543 138.291 189.199 136.5 184.529 138.622C177.912 141.629 175.049 144.221 169.092 152.153" stroke="#F29C4A" stroke-width="4" stroke-linecap="round"/>
<path d="M263.03 129.566C272.91 126.465 293.683 132.118 295.483 152.191L229.815 182.248L161.521 177.932L171.589 163.079C178.839 154.79 182.155 152.16 189.408 149.393C194.526 147.441 201.868 150.061 212.138 154.66C224.098 160.016 233.714 159.365 239.764 147.547C244.757 137.792 256.026 131.764 263.03 129.566Z" fill="#FFDA8E"/>
<path d="M294.356 149.739C292.256 129.183 271.398 126.345 260.717 129.47C253.146 131.685 240.984 137.798 235.647 147.758C229.182 159.825 218.769 160.443 205.772 154.9C194.612 150.141 186.638 147.422 181.108 149.395C173.271 152.19 169.698 154.866 161.907 163.315" stroke="#F29C4A" stroke-width="4" stroke-linecap="round"/>
<path d="M268.835 149.539C278.984 147.718 298.997 155.978 298.599 176.141L230.114 197.624L162.766 184.639L174.382 171.172C182.483 163.863 186.063 161.674 193.566 159.851C198.861 158.564 205.868 162.101 215.565 167.976C226.858 174.818 236.479 175.397 243.773 164.431C249.794 155.381 261.64 150.83 268.835 149.539Z" fill="#FFDA8E"/>
<path d="M297.746 173.565C297.899 152.884 277.495 147.409 266.549 149.152C258.789 150.387 247.955 152.153 239.662 164.12C231.927 175.279 221.519 174.566 209.216 167.406" stroke="#F29C4A" stroke-width="4" stroke-linecap="round"/>
<path d="M99.1458 109.9C82.5806 103.144 68.3109 122.504 72.5277 140.747L168.249 191.826L272.827 187.721C269.446 184.765 270.268 177.225 266.065 169.247C261.863 161.27 253.482 163.441 248.317 169.247C241.556 176.848 222.117 192.063 222.117 163.441C222.117 152.148 218.001 147.498 209.501 147.498C201.001 147.498 194.904 153.262 189.001 158.998C183.097 164.734 170.001 162.498 169.515 152.148C169.223 145.932 169.515 137.013 162.533 133.652C148.852 127.065 140.418 140.417 130.839 143.68C119.683 147.48 115.342 140.747 112.668 133.652C109.328 124.785 108.792 115.664 99.1458 109.9Z" fill="#FFDA8E"/>
<path d="M72.5277 140.747C68.3109 122.504 82.5806 103.144 99.1458 109.9C108.792 115.664 109.328 124.785 112.668 133.652C115.342 140.747 119.683 147.48 130.839 143.68C140.418 140.417 146.501 128.34 157.533 133.652C164.515 137.013 167.375 142.226 169.515 152.148C172.501 165.998 188.001 161.998 194.001 154.498C198.91 148.361 204.001 146.498 210.975 147.68C217.949 148.862 222.117 156.498 222.117 163.441C222.117 192.063 241.556 176.848 248.317 169.247C251.357 165.83 265.251 155.464 269.453 163.441C273.656 171.419 263.121 177.012 266.501 179.968" stroke="#F29C4A" stroke-width="4" stroke-linecap="round"/>
<path d="M116.659 88.465L147.811 143.872L142.505 147.626L107.597 95.1869L116.659 88.465Z" fill="#31B65D" stroke="#12913C" stroke-width="3" stroke-linecap="round" stroke-linejoin="round"/>
<path d="M103.481 90.1602L141.336 141.093L136.544 145.501L95.335 97.996L103.481 90.1602Z" fill="#31B65D" stroke="#12913C" stroke-width="3" stroke-linecap="round" stroke-linejoin="round"/>
<path d="M93.4181 93.0977L134.794 144.092L130.002 148.5L84.793 96.0361L93.4181 93.0977Z" fill="#31B65D" stroke="#12913C" stroke-width="3" stroke-linecap="round" stroke-linejoin="round"/>
<path d="M85.7808 98.2306L128.584 145.215L124.13 149.978L78.4963 103.704L85.7808 98.2306Z" fill="#31B65D" stroke="#12913C" stroke-width="3" stroke-linecap="round" stroke-linejoin="round"/>
<path d="M154.356 141.132L147.169 136.234L141.898 138.193L134.71 143.58L126.085 146.519L117.46 147.009L122.731 152.396L140.46 142.111L151.96 145.05L154.356 141.132Z" fill="#FFDA8E"/>
<path d="M106.918 133.785C112.189 147.989 121.547 148.479 129.881 145.64C135.515 143.721 138.585 138.346 145 134.998" stroke="#F29C4A" stroke-width="4" stroke-linecap="round"/>
<path d="M78.4961 103.707L112.585 138.157" stroke="#12913C" stroke-width="3" stroke-linecap="round" stroke-linejoin="round"/>
<path d="M87.3379 120.844C70.7727 114.088 55.2624 123.869 59.4792 142.111L157.707 191.368L261.019 198.664C257.638 195.709 258.46 188.169 254.257 180.191C250.055 172.213 241.674 174.385 236.509 180.191C229.748 187.792 210.309 203.007 210.309 174.385C210.309 163.092 206.083 154.624 200.167 154.624C194.251 154.624 189.333 166.477 183.429 172.213C169.514 185.735 157.707 178.142 157.707 163.092C157.707 156.869 157.707 147.957 150.725 144.596C137.044 138.009 128.611 151.361 119.032 154.624C107.875 158.424 103.534 151.691 100.861 144.596C97.5197 135.729 96.9844 126.607 87.3379 120.844Z" fill="#FFDA8E"/>
<path d="M59.9584 141.622C55.7415 123.38 70.5002 112.726 87.338 120.845C96.9845 126.609 97.5197 135.73 100.861 144.597C103.534 151.692 107.875 158.425 119.032 154.625C128.611 151.362 137.044 138.01 150.725 144.597C157.707 147.958 161.5 153.498 163.707 162.094C167.449 176.671 179 176.998 186.429 167.215C191.407 160.659 194.251 154.625 200.167 154.625C206.083 154.625 213 158.498 215.309 175.387C217.101 188.498 223.086 189.381 232 184.48C235.991 182.286 240.5 177.998 245.991 171.786" stroke="#F29C4A" stroke-width="4" stroke-linecap="round"/>
<path d="M81.4349 130.881C64.8697 124.125 50.5999 143.485 54.8168 161.727L149.695 199.58L255.116 208.701C251.735 205.745 252.557 198.206 248.354 190.228C244.152 182.25 235.771 184.422 230.606 190.228C223.845 197.828 204.406 213.044 204.406 184.422C204.406 173.129 200.18 164.661 194.264 164.661C188.348 164.661 183.43 176.514 177.526 182.25C163.611 195.772 151.804 188.179 151.804 173.129C151.804 166.906 151.804 157.994 144.822 154.632C131.141 148.046 122.708 161.398 113.128 164.661C101.972 168.461 97.6307 161.727 94.9574 154.632C91.6166 145.765 91.0814 136.644 81.4349 130.881Z" fill="#FFDA8E"/>
<path d="M54.8168 161.727C50.5999 143.485 64.8697 124.125 81.4349 130.881C91.0814 136.644 91.6166 145.765 94.9574 154.632C97.6307 161.727 101.972 168.461 113.128 164.661C122.708 161.398 131.141 148.046 144.822 154.632C151.804 157.994 153.945 165.353 159.804 173.129C169.5 185.998 178.5 179.498 182.526 174.25C186.552 169.002 188.348 164.661 194.264 164.661C200.18 164.661 206.406 173.129 206.406 184.422" stroke="#F29C4A" stroke-width="4" stroke-linecap="round"/>
<path d="M83.9651 143.65C67.4 136.894 53.1302 156.255 57.347 174.497L154.334 205.965L257.646 221.471C254.265 218.515 255.087 210.975 250.885 202.997C246.682 195.02 238.301 197.191 233.136 202.997C226.375 210.598 206.936 225.813 206.936 197.191C206.936 185.898 202.71 177.43 196.794 177.43C190.878 177.43 185.96 189.283 180.056 195.02C166.141 208.541 154.334 200.948 154.334 185.898C154.334 179.675 154.334 170.763 147.352 167.402C133.671 160.815 125.238 174.167 115.659 177.43C104.503 181.23 100.161 174.497 97.4877 167.402C94.1469 158.535 93.6117 149.414 83.9651 143.65Z" fill="#FFDA8E"/>
<path d="M57.347 174.497C53.1302 156.254 67.4 136.894 83.9651 143.65C93.6117 149.414 94.1469 158.535 97.4877 167.402C100.161 174.497 104.503 181.23 115.659 177.43C125.238 174.167 131.867 163.451 146 169C160 174.497 164 180.5 167.5 185.5C175.203 196.503 179.5 188.844 185 183.5C187.5 181.071 190.878 177.43 196.794 177.43C202.71 177.43 206.936 185.898 206.936 197.191" stroke="#F29C4A" stroke-width="4" stroke-linecap="round"/>
<path d="M61.0336 188.181C56.8167 169.938 71.0865 150.578 87.6517 157.334C97.2982 163.097 97.8334 172.218 101.174 181.085C103.847 188.181 108.189 194.914 119.345 191.114C133 186.462 147 168 165.039 181.085" stroke="#F29C4A" stroke-width="4" stroke-linecap="round"/>
</g>
<path d="M169.189 142.114C174.684 134.36 177.326 131.826 183.43 128.887C187.738 126.813 194.513 128.563 204.093 131.826C215.249 135.626 218.544 131.513 224.722 124.617C230.9 117.721 233.435 112.498 246.305 107.25C251.336 105.198 266.232 103.839 272.999 114.293" stroke="#F29C4A" stroke-width="4" stroke-linecap="round"/>
<path d="M155.386 113.088C133.306 114.243 129.853 128.036 130.652 136.954C131.934 151.265 148.968 153.378 156.187 151.553C176.794 147.451 182.218 133.826 180.053 127.105C176.249 115.297 163.134 112.681 155.386 113.088Z" fill="white" stroke="black" stroke-width="5"/>
<path d="M157.766 126.615C148.158 125.173 141.564 128.273 139.57 132.019C135.97 138.779 142.46 144.362 147.293 144.362C156.085 144.362 160.603 140.366 162.48 137.69C167.511 130.517 161.309 127.285 157.766 126.615Z" fill="#EFEC35"/>
<path d="M150 142.005C145.2 138.805 136 144.005 132 147.005L135 150.5C137.5 152 147 155.333 149.5 156.5L158.5 158.506L162 157.506C160.4 148.306 153.333 143.339 150 142.005Z" fill="#FFDA8E"/>
<path d="M128.5 149.003C137.5 144.004 141.5 136.504 152.725 141.601C159.78 144.804 161 156.004 164.707 165.097" stroke="#F29C4A" stroke-width="4" stroke-linecap="round"/>
<path d="M129.946 154.634C134.299 152.611 139.102 151.88 144.822 154.634C147.654 155.997 149.69 158.019 151.5 160.459" stroke="#F29C4A" stroke-width="4" stroke-linecap="round"/>
<path d="M219.641 124.228C227.561 112.364 226.169 111.367 234.499 110.668C240.859 88.9985 232.499 78.7625 228.011 76.1263C222.499 77.267 209.186 85.576 204.678 96.0377C200.907 104.788 194.499 122.632 202.286 129.966C210.499 139.581 216.903 128.316 219.641 124.228Z" fill="#FFFC56"/>
<path d="M223.953 77.249C223.953 77.249 212 84.498 205.031 96.347C198.694 107.122 196.814 118.998 199.571 126.798C203 136.498 213.959 136.75 219.01 126.419C221.11 123.179 226.946 113.602 235.42 111.066" stroke="black" stroke-width="7" stroke-linecap="round"/>
<path d="M155.525 93.852C141.357 91.9684 129.237 77.189 124.948 70.0348C102.63 73.8557 98.3278 87.4943 101 96.7123C105.842 107.196 123.094 115.714 134.5 115.157C144.041 114.692 163.704 110.019 167 104.189C171.967 95.4067 160.412 94.5082 155.525 93.852Z" fill="#FFFC56"/>
<path d="M121.3 69C113.8 69.8334 99.7994 77.0001 98.9994 91C98.6851 96.5 100.999 101 108 107C108 107 119 116 135 116C147.5 116 156.5 115 165 108.5C171.5 101.5 168.5 93 157 93C153.167 92.5358 142 91.5 136 85" stroke="black" stroke-width="7" stroke-linecap="round"/>
<path d="M234.893 122.745C233.892 124.096 233.263 125.985 233.524 127.809C231.765 128.54 230.523 130.148 230.067 131.858C229.704 133.222 229.784 134.766 230.498 136.17C230.831 136.824 231.284 137.415 231.849 137.926C230.587 139.757 230.291 141.844 230.999 143.755C231.655 145.526 233.088 146.882 234.904 147.546C234.828 148.201 234.865 148.849 235.017 149.477C235.358 150.889 236.231 152 237.29 152.742C238.667 153.706 240.539 154.151 242.319 153.751C243.164 155.469 244.497 156.624 246.196 157.033C247.722 157.401 249.255 157.089 250.559 156.38C251.206 156.938 251.905 157.357 252.646 157.635C253.934 158.119 255.222 158.127 256.378 157.843C257.757 157.503 258.991 156.738 259.92 155.789C261.766 156.631 263.821 156.565 265.471 155.964C266.956 155.424 268.52 154.248 269.144 152.569C270.912 152.353 272.364 151.293 273.233 149.934C273.944 148.822 274.326 147.413 274.173 146.007C274.706 145.79 275.194 145.499 275.626 145.134C276.707 144.221 277.279 142.982 277.425 141.722C277.604 140.168 277.152 138.542 276.187 137.203C277.348 135.949 277.868 134.301 277.745 132.713C277.613 131.019 276.738 129.374 275.213 128.389C275.862 126.154 275.305 123.998 273.921 122.468C272.842 121.275 271.283 120.518 269.625 120.468C269.519 119.815 269.312 119.199 269.012 118.629C268.289 117.254 267.104 116.303 265.827 115.775C264.416 115.191 262.636 115.06 261.071 115.632C258.864 112.148 253.3 111.702 250.725 115.282C248.691 114.16 246.367 114.221 244.448 115.141C242.584 116.034 241.06 117.767 240.565 119.94C238.188 119.827 236.136 121.067 234.893 122.745Z" fill="white" stroke="black" stroke-width="4" stroke-linecap="round" stroke-linejoin="round"/>
<path d="M254.993 132.809C252.845 131.829 250.518 132.809 250.697 134.769C251.772 138.688 256.605 138.709 258.753 137.729C260.901 136.75 264.049 132.809 262.438 129.378C259.216 124.478 254.919 123.989 249.013 126.438C240.42 130.849 241.495 136.402 243.106 140.159C246.865 147.509 258.141 145.059 262.438 142.119C264.125 141.246 267.7 138.4 268.5 134" stroke="#D84B6E" stroke-width="3" stroke-linecap="round" stroke-linejoin="round"/>
<path d="M244 158.998C255.945 148.565 269.541 148.668 278.429 149.344L275.656 155.023C275.656 155.023 271.754 158.026 268.869 158.026C261 158.026 256 160.498 256 160.498L244 158.998Z" fill="#FFDA8E"/>
<path d="M278.461 149.945C270.315 147.986 255 146.498 243.356 159.802" stroke="#F29C4A" stroke-width="4" stroke-linecap="round"/>
<path d="M70.9997 40.5009C62.9997 45.5006 66.4996 52.8409 70.9997 55.0009C76.9997 57.8808 82.833 55.0009 84.4997 54.0009C91.9997 58.5 100.5 55.0012 100.5 48.5006C100.5 42 95.6663 40.0008 91.9997 40.5009C91.9997 36.0014 89.4998 32.5005 86.4997 31.0009C80.4997 28.0017 69.9997 32.5018 70.9997 40.5009Z" fill="#E9E9E9" stroke="black" stroke-width="4"/>
</g>
<defs>
<clipPath id="clip0_2270_17508">
<rect width="336" height="279.169" fill="white"/>
</clipPath>
</defs>
</svg>
