<svg width="336" height="280" viewBox="0 0 336 280" fill="none" xmlns="http://www.w3.org/2000/svg">
<g clip-path="url(#clip0_2447_20517)">
<path d="M314.491 229.825C327.179 219.165 268.188 200.286 249.414 190.17L134.669 180.825C106.662 186.088 49.5489 204.574 52.8626 215.702C54.6983 226.437 98.438 240.997 116.021 242.094C138.45 243.492 158.221 269.462 172.194 270.334C181.595 270.92 203.153 261.416 231.857 253.514C265.981 244.119 307.6 235.614 314.491 229.825Z" fill="#0B0C0D"/>
<path d="M304.709 217.98C298.321 211.169 262.475 190.966 245.351 181.716L140.679 173.185C115.13 178.005 81.225 192.022 66.0483 205.103C79.2432 218.45 107.619 228.235 123.658 229.235C144.118 230.511 160.35 248.723 174.095 255.925C187.418 247.939 266.722 227.301 304.709 217.98Z" fill="#C4223C" stroke="white" stroke-width="2"/>
<path d="M190.211 198.317C203.186 199.126 234.815 222.139 248.259 231.494L228.891 236.799C217.886 226.895 185.97 202.06 163.013 192.613L190.211 198.317Z" fill="white" stroke="white" stroke-width="2"/>
<path d="M100.229 187.194C107.591 197.672 161.642 198.537 206.935 243.443L191.123 247.969C190.025 246.297 170.297 233.144 159.962 225.486C142.244 212.358 119.975 210.635 110.524 206.873C95.2282 201.511 89.0646 197.519 83.7931 193.683L100.229 187.194Z" fill="white" stroke="white" stroke-width="2"/>
<path d="M238.803 190.326C253.999 197.285 276.577 213.889 285.966 221.321L271.713 224.941C262.18 217.132 236.528 202.708 224.894 196.472L238.803 190.326Z" fill="white" stroke="white" stroke-width="2"/>
<path opacity="0.1" d="M250.001 193.499C249.616 203.329 245.742 219.048 198 222.5C123 222.5 121.543 221.631 111.5 198C105.565 184.033 137.602 173.039 187.996 174.293C226.185 175.244 250.713 175.307 250.001 193.499Z" fill="#7B0014"/>
<path d="M85.5274 109.214C101.008 109.129 116.86 92.1519 122.851 83.6743C145.893 92.253 147.626 121.75 142.949 133.143C135.709 145.804 111.274 145.553 99.2211 142.961C89.1398 140.792 74.5426 133.949 72.1825 125.923C68.6266 113.832 80.1871 109.252 85.5274 109.214Z" fill="#FFFC56"/>
<path fill-rule="evenodd" clip-rule="evenodd" d="M121.636 79.7497L123.982 80.6229C136.764 85.382 143.514 95.9395 146.43 106.49C149.314 116.92 148.621 127.899 145.959 134.384L145.879 134.58L145.774 134.764C141.37 142.465 132.105 145.768 123.346 146.997C114.405 148.252 104.896 147.512 98.5413 146.145C93.1871 144.993 86.6999 142.624 81.1908 139.464C78.4307 137.881 75.829 136.05 73.7205 134.002C71.6305 131.973 69.865 129.575 69.0604 126.839C68.015 123.284 68.0254 120.066 68.9107 117.239C69.7918 114.426 71.4685 112.225 73.4029 110.572C77.1665 107.355 82.1577 105.982 85.4993 105.958L85.5044 105.958C92.1448 105.922 99.2616 102.206 105.714 97.0465C112.089 91.9497 117.347 85.8203 120.193 81.7921L121.636 79.7497ZM123.952 87.6635C120.661 91.9363 115.677 97.4234 109.781 102.137C102.941 107.606 94.3924 112.421 85.5528 112.471C83.5539 112.486 80.0961 113.422 77.6341 115.527C76.4553 116.534 75.5749 117.748 75.1215 119.195C74.6725 120.629 74.5713 122.518 75.3039 125.009C75.6793 126.285 76.6235 127.752 78.2494 129.331C79.8566 130.892 81.9768 132.412 84.4212 133.814C89.321 136.625 95.173 138.761 99.9003 139.777C105.598 141.003 114.333 141.684 122.433 140.547C130.614 139.399 137.127 136.553 140.019 131.703C141.973 126.742 142.698 117.405 140.158 108.218C137.807 99.7163 132.807 91.8228 123.952 87.6635Z" fill="black"/>
<path d="M136.224 192.67C146.301 189.409 142.565 189.669 155.51 192.591C161.643 193.975 166.469 193.339 165.908 200.472C165.166 209.91 156.299 212.75 146.82 213.277C135.445 213.908 129.521 211.653 127.403 210.126C122.959 206.922 121.183 196.442 136.224 192.67Z" fill="#FFFC56" stroke="black" stroke-width="7"/>
<path d="M199.336 196.924C209.039 191.983 213.819 191.848 220.202 184.981C228.846 187.6 232.094 190.613 231.407 198.351C230.721 206.089 223.7 210.88 214.214 213.14C207.199 214.582 197.466 215.124 193.434 210.07C188.318 203.658 195.681 198.075 199.336 196.924Z" fill="#FFFC56" stroke="black" stroke-width="7"/>
<path d="M120.05 91.0225C123.38 52.3647 159.658 36.3907 176.983 33.141C214.39 28.6763 233.429 52.1173 240.468 66.1418C260.197 105.448 257.124 146.977 253.72 161.852C250.317 176.728 240.066 197.856 191.479 198.405C168.5 197.219 162.254 196.261 149.789 193.726C121.944 188.063 115.713 166.29 117.68 152.138C122.048 120.696 117.68 103.481 120.05 91.0225Z" fill="#FFFC56" stroke="black" stroke-width="7"/>
<path d="M131.107 180.729C138.603 176.166 140.551 170.474 144.446 159.088L144.446 159.088C147.107 151.307 146.466 138.307 153.55 128.387C154.857 122.131 174.289 114.904 193.054 118.721C197.671 120.221 209.694 122.164 216.164 138.769C218.618 145.068 217.758 155.283 222.876 164.931C225.903 169.452 230.137 175.666 239.505 179.987C237.839 182.059 231.112 188.329 223.691 190.87C215.73 194.582 199.644 196.818 180.568 195.686C176.443 195.595 167.274 194.95 163.203 193.923C155.079 192.448 153.314 191.349 150.413 190.863C147.513 190.377 134.723 187.317 131.107 180.729Z" fill="white"/>
<path d="M174.079 77.0382C167.963 88.8612 153.444 93.5099 141.65 87.4213C129.856 81.3327 125.253 66.8124 131.37 54.9895C137.486 43.1665 152.005 38.5178 163.799 44.6064C175.593 50.695 180.196 65.2152 174.079 77.0382Z" fill="white"/>
<path fill-rule="evenodd" clip-rule="evenodd" d="M144.642 81.6385C153.225 86.0695 163.822 82.6967 168.294 74.0516C172.767 65.4065 169.391 54.8202 160.808 50.3892C152.225 45.9582 141.627 49.331 137.155 57.9761C132.683 66.6212 136.058 77.2075 144.642 81.6385ZM141.65 87.4213C153.444 93.5099 167.963 88.8612 174.079 77.0382C180.196 65.2152 175.593 50.695 163.799 44.6064C152.005 38.5178 137.486 43.1665 131.37 54.9895C125.253 66.8124 129.856 81.3327 141.65 87.4213Z" fill="black"/>
<path d="M217.793 78.922C211.386 91.3061 196.448 96.3152 184.429 90.1099C172.409 83.9047 167.858 68.835 174.265 56.4509C180.672 44.0667 195.609 39.0577 207.629 45.2629C219.649 51.4681 224.2 66.5378 217.793 78.922Z" fill="white"/>
<path fill-rule="evenodd" clip-rule="evenodd" d="M187.42 84.3272C196.081 88.7983 207.167 85.2922 212.008 75.9353C216.848 66.5785 213.298 55.5168 204.638 51.0457C195.977 46.5746 184.891 50.0807 180.05 59.4375C175.21 68.7943 178.759 79.8561 187.42 84.3272ZM184.429 90.1099C196.448 96.3152 211.386 91.3061 217.793 78.922C224.2 66.5378 219.649 51.4681 207.629 45.2629C195.609 39.0577 180.672 44.0667 174.265 56.4509C167.858 68.835 172.409 83.9047 184.429 90.1099Z" fill="black"/>
<path d="M162.056 68.7729C159.902 72.9409 154.619 74.4931 150.257 72.2398C145.895 69.9866 144.105 64.7812 146.26 60.6132C148.415 56.4452 153.698 54.893 158.06 57.1463C162.422 59.3995 164.211 64.6049 162.056 68.7729Z" fill="black"/>
<path d="M201.269 71.647C198.254 75.2425 192.761 75.5994 188.999 72.4442C185.238 69.289 184.633 63.8165 187.648 60.2211C190.662 56.6256 196.156 56.2687 199.917 59.4239C203.678 62.5791 204.284 68.0515 201.269 71.647Z" fill="black"/>
<path d="M175.226 97.0039C175.226 97.0039 204.745 98.1305 194.274 86.5887C186.989 78.559 175.812 71.8283 170.135 72.6451C162.164 73.792 151.826 81.072 149.079 89.3376C148.697 98.4867 160.125 97.1627 175.226 97.0039Z" fill="#FFD336"/>
<path fill-rule="evenodd" clip-rule="evenodd" d="M170.201 93.8262C171.779 93.7963 173.443 93.7646 175.193 93.7462L175.272 93.7454L175.351 93.7484L175.351 93.7484L175.352 93.7484L175.352 93.7484L175.363 93.7488L175.416 93.7506C175.465 93.7522 175.54 93.7544 175.639 93.7569C175.838 93.762 176.134 93.7682 176.51 93.7721C177.262 93.78 178.331 93.779 179.583 93.7431C182.113 93.6705 185.278 93.4578 188.066 92.9247C189.46 92.658 190.669 92.3279 191.618 91.9404C192.607 91.5365 193.069 91.1689 193.237 90.9712C193.25 90.957 193.258 90.9486 193.263 90.9438C193.261 90.9423 193.258 90.9384 193.257 90.9301C193.215 90.7016 192.971 89.9969 191.86 88.7724C188.445 85.0082 184.089 81.5258 179.953 79.1045C177.888 77.8956 175.945 76.9908 174.26 76.4394C172.525 75.8713 171.311 75.7599 170.596 75.8628C167.288 76.3387 163.22 78.1572 159.623 80.9038C156.178 83.534 153.516 86.7462 152.326 89.912C152.351 91.1381 152.721 91.6821 153.092 92.0254C153.66 92.5507 154.781 93.0928 156.89 93.4489C160.246 94.0153 164.696 93.9308 170.201 93.8262ZM175.184 100.255C173.697 100.272 172.216 100.301 170.756 100.329C165.126 100.44 159.818 100.545 155.801 99.8668C153.213 99.43 150.605 98.5976 148.665 96.803C146.571 94.8652 145.698 92.231 145.825 89.2011L145.844 88.7445L145.988 88.3107C147.635 83.3536 151.429 78.9725 155.671 75.7331C159.923 72.4865 165.009 70.0915 169.673 69.4205C171.796 69.115 174.108 69.5386 176.292 70.2538C178.528 70.9857 180.899 72.1122 183.248 73.4876C187.941 76.2349 192.816 80.1327 196.686 84.3983C198.193 86.0592 199.317 87.8441 199.665 89.7631C200.047 91.868 199.426 93.7459 198.191 95.1925C197.065 96.5123 195.525 97.374 194.077 97.9653C192.59 98.5728 190.926 99.0035 189.285 99.3174C186.002 99.9453 182.442 100.172 179.764 100.249C178.412 100.288 177.257 100.289 176.436 100.281C176.025 100.276 175.697 100.269 175.468 100.264C175.354 100.261 175.265 100.258 175.202 100.256L175.184 100.255Z" fill="black"/>
<path d="M241 132.002C242.2 127.202 245.167 126.669 246.5 127.002C246.5 132.202 241.167 146.835 238.5 153.502H233C235.8 150.302 239.5 137.835 241 132.002Z" fill="#4187F8" stroke="#1D5EC9" stroke-width="2"/>
<path d="M115.5 103C113.023 100.506 114.028 93.5016 117 93.5C119.972 93.4984 127 107 147.5 121C162 130.902 175.5 138 189 145.5C212 157 213.518 158.676 215.5 163C215.5 167 213.816 169.16 212 166C212 161.21 172 142.956 152.5 130.5C136.252 120.121 123.26 107.658 115.5 103Z" fill="#4187F8" stroke="#1D5EC9" stroke-width="2"/>
<path d="M225.202 163.766C217.754 169.394 214.078 175.361 215.198 179.113C215.982 181.739 222.692 185 225.202 185C232.585 185 238.991 178.782 242.376 173.717C247.62 165.867 243.774 157.432 241.422 156.056C232.954 151.854 227.946 161.39 225.202 163.766Z" fill="#4187F8" stroke="#1D5EC9" stroke-width="2"/>
<path d="M218.5 153.998C209 161.498 208.571 169.998 210 174.998C211 178.498 214 181.298 217 182.498C224.5 185.498 236.666 172.831 241.5 166.498C247.223 158.998 244 153.331 241 151.498C230.2 145.898 222 150.831 218.5 153.998Z" fill="#4187F8" stroke="#1D5EC9" stroke-width="2"/>
<path d="M232.397 173.25C231.243 175.35 232.877 176.625 233.839 177C234.992 177 236.882 174.5 237.683 173.25C238.837 171.75 236.562 171.125 235.28 171C234.127 171 232.877 172.5 232.397 173.25Z" fill="#1D5EC9" stroke="#1D5EC9" stroke-width="2"/>
<path d="M226.044 150.735C228.908 135.521 215.764 123.948 208.582 116.452C221.392 95.4665 242.777 96.8149 253.071 103.576C262.234 117.907 264.752 131.603 259.912 142.941C255.863 152.425 248.234 166.229 239.906 167.017C227.358 168.205 225.064 155.984 226.044 150.735Z" fill="#FFFC56"/>
<path d="M214 122C221.182 129.495 228.845 134.618 225.981 149.832C224.754 156.348 224.475 168.465 239.843 166.115C248.263 164.827 255.952 154.982 260 145.499C264.135 133.492 261.5 119.499 252.5 100.999" stroke="black" stroke-width="7" stroke-linecap="round"/>
<path d="M47.0009 50.5021C41.0009 37.5028 40.5008 29.5006 47.001 44.0008C55.501 66.4993 73.769 101.055 80.6024 111.722C85.0024 120.522 81.4357 117.388 79.6024 115.722C63.5011 89.5019 50.5009 59.5021 47.0009 50.5021Z" fill="#FEDDB0" stroke="#E5A669"/>
<path d="M30.7471 57.8332C30.4088 53.32 33.3593 50.826 34.8768 50.1432C38.0575 47.5063 43.1924 45.4793 45.3622 44.7953C54.9272 42.8344 63.6703 37.4655 64.0997 37.4167C66.7699 36.4134 68.0997 39.4428 68.4308 41.0828C70.5803 44.6902 67.6815 51.088 65.9634 53.836C63.8134 56.3558 58.1059 57.4267 55.5209 57.6472C47.6776 59.0626 42.6694 61.9506 41.1457 63.2177C37.1453 66.2977 34.3947 66.9746 33.5194 66.928C31.3058 67.3543 30.7489 61.0424 30.7471 57.8332Z" fill="#FFEBDD" stroke="#FFDDBC" stroke-width="2"/>
<path d="M37.3928 70.1663C36.4181 75.4077 41.2784 78.0845 43.8304 78.7677C47.1377 78.4556 51.8863 74.5496 53.8472 72.6356C58.8577 69.9258 63.9101 68.4234 65.81 68.011C72.0427 66.5924 70.0707 59.4173 68.3057 56.0071C65.7673 51.6658 58.8984 52.9204 55.7812 54.0904C41.6941 58.9474 37.6526 66.8314 37.3928 70.1663Z" fill="#E14F29" stroke="#FF7A2F" stroke-width="2"/>
<path d="M49.7096 62.2528C49.1942 60.8894 49.3095 58.3126 49.9985 58.1915L50.278 59.2827L50.997 62.0892C51.5163 64.1161 53.0432 64.888 53.6323 65.2414C52.6967 65.4811 52.1302 64.9557 51.6361 64.5838C50.8127 63.964 49.9493 63.1883 49.7096 62.2528Z" fill="#FEA24B" stroke="#FEA24B" stroke-width="2" stroke-linejoin="round"/>
<path d="M57.6209 56.421C57.5831 55.3179 58.3282 55.0419 58.6309 55.0722C58.7312 55.6522 58.6623 56.9748 58.7642 57.5025C59.1532 59.5176 59.8216 60.4837 60.2211 61.8724C58.2854 60.559 57.5454 57.6434 57.6209 56.421Z" fill="#FEA24B" stroke="#FEA24B" stroke-width="2" stroke-linejoin="round"/>
<path d="M47.2948 69.9996C44.1428 69.6996 42.6401 66.3075 42.78 65.1077C42.7327 63.6256 42.8352 64.4605 43.8036 66.5085C44.7905 68.4152 46.6459 69.3904 47.2948 69.9996Z" fill="#FEA24B" stroke="#FEA24B" stroke-width="2" stroke-linejoin="round"/>
<path d="M78.4362 66.5894C75.0348 63.6039 71.2676 64.46 69.8091 65.2613C65.7893 66.2154 61.0807 69.0973 59.2289 70.419C51.9078 76.8792 42.359 80.6326 42.0616 80.9463C39.6537 82.4754 41.2733 85.3603 42.3841 86.6115C43.9723 90.4988 48.2718 91.719 51.5005 92C54.8068 91.7988 61.6509 88.1979 63.3823 86.2658C69.2319 80.8525 74.5519 78.5897 76.4807 78.135C81.3477 76.7928 81.511 73.7271 82.0005 73C83.6728 71.4884 80.9986 68.5217 78.4362 66.5894Z" fill="#FFEBDD" stroke="#FFDDBC" stroke-width="2"/>
<path d="M82.3581 82.2381C87.0388 84.7902 86.0474 90.2496 84.9666 92.6604C82.6371 95.0286 76.6103 96.2465 73.8881 96.5595C68.6238 98.7355 64.2695 101.706 62.7505 102.919C57.7163 106.859 53.3956 100.8 51.8645 97.2789C50.0993 92.5699 55.4078 88.0339 58.2828 86.3545C70.9414 78.4934 79.6074 80.3348 82.3581 82.2381Z" fill="#E14F29" stroke="#FF7A2F" stroke-width="2"/>
<path d="M68.4318 87.4972C67.6017 86.0683 65.2531 84.3257 64.6535 84.8449L65.4131 85.8716L67.3666 88.5122C68.7775 90.4194 68.3637 92.3144 68.253 93.0854C69.1333 92.4342 69.0766 91.56 69.1031 90.8594C69.1473 89.6917 69.083 88.3773 68.4318 87.4972Z" fill="#FEA24B" stroke="#FEA24B" stroke-width="2" stroke-linejoin="round"/>
<path d="M58.9485 89.2333C58.0054 88.4108 57.2296 88.8684 57.0395 89.1564C57.4778 89.6596 58.6902 90.5455 59.0814 91.0126C60.5751 92.7967 60.9464 94.0759 61.8817 95.421C62.112 92.7789 60.0775 90.0416 58.9485 89.2333Z" fill="#FEA24B" stroke="#FEA24B" stroke-width="2" stroke-linejoin="round"/>
<path d="M75.496 89.3656C77.4877 86.379 75.58 82.6302 74.4248 81.8947C73.1552 80.7924 73.8161 81.48 74.9242 83.7972C75.8947 86.0295 75.4246 88.359 75.496 89.3656Z" fill="#FEA24B" stroke="#FEA24B" stroke-width="2" stroke-linejoin="round"/>
</g>
<defs>
<clipPath id="clip0_2447_20517">
<rect width="336" height="280" fill="white"/>
</clipPath>
</defs>
</svg>
