<svg width="336" height="280" viewBox="0 0 336 280" fill="none" xmlns="http://www.w3.org/2000/svg">
<g clip-path="url(#clip0_2270_17457)">
<path d="M171.685 160.367C173.722 167.515 180.421 186.253 136.743 203.652C84.566 221.85 62.9282 223.675 27.9639 207.459C13.1358 200.582 -15.0371 177.579 44.5836 168.43C87.2513 156.525 167.915 147.138 171.685 160.367Z" fill="#0B0C0D"/>
<path d="M128.212 121.086L128.472 120.961L128.709 120.795C129.258 120.409 129.813 120.024 130.371 119.638C136.685 115.261 143.367 110.629 146.522 101.7C146.91 104.896 147.33 109.617 147.462 114.523C147.612 120.051 147.385 125.493 146.485 129.252C144.678 134.503 140.467 145.832 126.238 158.822C111.882 171.928 87.1372 186.894 43.933 198.809C41.067 198.383 34.7964 197.426 28.4944 195.206C21.4593 192.729 15.5398 189.072 13.4334 183.944C11.8212 176.646 10.0029 157.986 10.9042 140.789C11.7221 141.48 12.6122 142.142 13.5681 142.767C18.7436 146.153 26.0427 148.59 34.9753 148.59C43.8358 148.59 60.1323 145.048 77.4345 139.96C94.8686 134.834 113.839 127.982 128.212 121.086Z" fill="#141414" stroke="black" stroke-width="7" stroke-linecap="round"/>
<path d="M71.2875 109.02C71.2875 113.452 67.5792 117.106 62.9284 117.106C58.2776 117.106 54.5693 113.452 54.5693 109.02C54.5693 104.588 58.2776 100.934 62.9284 100.934C67.5792 100.934 71.2875 104.588 71.2875 109.02Z" fill="#F9380F" stroke="black" stroke-width="2.5"/>
<path opacity="0.8" d="M62.8534 104.686C61.9807 104.726 59.8408 105.675 59.0721 107.834" stroke="white" stroke-width="2.54623" stroke-linecap="round"/>
<path opacity="0.6" d="M59.0837 111.556C59.0837 111.556 58.9063 111.944 59.4209 112.086" stroke="white" stroke-width="2.54623" stroke-linecap="round"/>
<path d="M86.8349 112.943C84.6184 116.841 79.5491 118.28 75.4964 116.104C71.4437 113.928 70.0001 108.992 72.2166 105.095C74.4331 101.198 79.5025 99.7582 83.5552 101.934C87.6079 104.11 89.0514 109.046 86.8349 112.943Z" fill="#F9380F" stroke="black" stroke-width="2.5"/>
<path opacity="0.8" d="M81.617 105.19C80.8332 104.815 78.488 104.64 76.74 106.169" stroke="white" stroke-width="2.54623" stroke-linecap="round"/>
<path opacity="0.6" d="M74.8975 109.436C74.8975 109.436 74.5492 109.693 74.9288 110.059" stroke="white" stroke-width="2.54623" stroke-linecap="round"/>
<path d="M101.56 93.6333C99.2228 97.4661 94.1107 98.7552 90.1291 96.4632C86.1474 94.1713 84.8552 89.1958 87.1923 85.363C89.5295 81.5301 94.6415 80.2411 98.6232 82.533C102.605 84.825 103.897 89.8004 101.56 93.6333Z" fill="#F05910" stroke="black" stroke-width="2.5"/>
<path opacity="0.8" d="M96.5848 85.7337C95.8129 85.3363 93.4742 85.0927 91.6797 86.5701" stroke="white" stroke-width="2.54623" stroke-linecap="round"/>
<path opacity="0.6" d="M89.7369 89.7773C89.7369 89.7773 89.3808 90.0231 89.7489 90.4002" stroke="white" stroke-width="2.54623" stroke-linecap="round"/>
<path d="M145.516 97.137C145.516 101.556 141.819 105.2 137.18 105.2C132.542 105.2 128.844 101.556 128.844 97.137C128.844 92.7182 132.542 89.0739 137.18 89.0739C141.819 89.0739 145.516 92.7182 145.516 97.137Z" fill="#F05910" stroke="black" stroke-width="2.54623"/>
<path opacity="0.8" d="M137.105 92.8028C136.233 92.8432 134.093 93.7918 133.324 95.9516" stroke="white" stroke-width="2.54623" stroke-linecap="round"/>
<path opacity="0.6" d="M133.336 99.6735C133.336 99.6735 133.158 100.061 133.673 100.204" stroke="white" stroke-width="2.54623" stroke-linecap="round"/>
<path d="M113.218 94.5901C113.218 99.0223 109.51 102.676 104.859 102.676C100.208 102.676 96.5 99.0223 96.5 94.5901C96.5 90.1579 100.208 86.5039 104.859 86.5039C109.51 86.5039 113.218 90.1579 113.218 94.5901Z" fill="#F05910" stroke="black" stroke-width="2.5"/>
<path opacity="0.8" d="M104.784 90.256C103.911 90.2963 101.772 91.2449 101.003 93.4047" stroke="white" stroke-width="2.54623" stroke-linecap="round"/>
<path opacity="0.6" d="M101.014 97.1266C101.014 97.1266 100.837 97.5145 101.352 97.6566" stroke="white" stroke-width="2.54623" stroke-linecap="round"/>
<path d="M75.8959 113.495C80.1389 115.311 82.0273 120.104 80.1821 124.173C78.3369 128.242 73.4227 130.122 69.1797 128.306C64.9368 126.489 63.0484 121.697 64.8936 117.628C66.7388 113.559 71.6529 111.679 75.8959 113.495Z" fill="#F9380F" stroke="black" stroke-width="2.5"/>
<path opacity="0.8" d="M68.4269 119.221C68.113 120.013 68.1437 122.298 69.868 123.852" stroke="white" stroke-width="2.54623" stroke-linecap="round"/>
<path opacity="0.6" d="M73.377 125.341C73.377 125.341 73.6708 125.655 74.0122 125.255" stroke="white" stroke-width="2.54623" stroke-linecap="round"/>
<path d="M123.701 103.926C123.701 108.358 119.992 112.012 115.341 112.012C110.691 112.012 106.982 108.358 106.982 103.926C106.982 99.4939 110.691 95.8398 115.341 95.8398C119.992 95.8398 123.701 99.4939 123.701 103.926Z" fill="#F9380F" stroke="black" stroke-width="2.5"/>
<path opacity="0.8" d="M115.266 99.5919C114.394 99.6322 112.254 100.581 111.485 102.741" stroke="white" stroke-width="2.54623" stroke-linecap="round"/>
<path opacity="0.6" d="M111.497 106.463C111.497 106.463 111.319 106.85 111.834 106.993" stroke="white" stroke-width="2.54623" stroke-linecap="round"/>
<path d="M77.4027 100.531C77.4027 104.964 73.6944 108.618 69.0436 108.618C64.3929 108.618 60.6846 104.964 60.6846 100.531C60.6846 96.0993 64.3929 92.4453 69.0436 92.4453C73.6944 92.4453 77.4027 96.0993 77.4027 100.531Z" fill="#F9380F" stroke="black" stroke-width="2.5"/>
<path opacity="0.8" d="M68.9686 96.2013C68.096 96.2416 65.9561 97.1903 65.1873 99.3501" stroke="white" stroke-width="2.54623" stroke-linecap="round"/>
<path opacity="0.6" d="M65.1989 103.068C65.1989 103.068 65.0216 103.456 65.5361 103.598" stroke="white" stroke-width="2.54623" stroke-linecap="round"/>
<path d="M95.998 96.6227C97.7233 100.739 95.6976 105.478 91.4019 107.178C87.1061 108.878 82.2492 106.862 80.5238 102.745C78.7984 98.6289 80.8241 93.8899 85.1199 92.1902C89.4157 90.4904 94.2726 92.5062 95.998 96.6227Z" fill="#F9380F" stroke="black" stroke-width="2.5"/>
<path opacity="0.8" d="M86.5095 95.6976C85.717 96.0548 84.1034 97.7175 84.2298 99.9995" stroke="white" stroke-width="2.54623" stroke-linecap="round"/>
<path opacity="0.6" d="M85.6849 103.445C85.6849 103.445 85.6712 103.869 86.2029 103.812" stroke="white" stroke-width="2.54623" stroke-linecap="round"/>
<path d="M91.0442 132.179C88.0132 135.542 82.7437 135.886 79.2736 132.934C75.8034 129.981 75.4589 124.861 78.4899 121.498C81.5209 118.135 86.7903 117.791 90.2605 120.743C93.7307 123.696 94.0751 128.816 91.0442 132.179Z" fill="#F9380F" stroke="black" stroke-width="2.5"/>
<path opacity="0.8" d="M87.6485 123.529C86.9646 123.001 84.7115 122.345 82.6687 123.478" stroke="white" stroke-width="2.54623" stroke-linecap="round"/>
<path opacity="0.6" d="M80.1538 126.285C80.1538 126.285 79.7574 126.463 80.0482 126.9" stroke="white" stroke-width="2.54623" stroke-linecap="round"/>
<path d="M111.049 101.883C114.135 105.2 113.871 110.325 110.45 113.329C107.028 116.333 101.754 116.069 98.6684 112.751C95.5831 109.433 95.8467 104.308 99.2683 101.305C102.69 98.3013 107.964 98.5647 111.049 101.883Z" fill="#F05910" stroke="black" stroke-width="2.5"/>
<path opacity="0.8" d="M101.814 104.151C101.194 104.75 100.261 106.847 101.181 108.951" stroke="white" stroke-width="2.54623" stroke-linecap="round"/>
<path opacity="0.6" d="M103.757 111.708C103.757 111.708 103.893 112.111 104.373 111.882" stroke="white" stroke-width="2.54623" stroke-linecap="round"/>
<path d="M141.148 109.02C141.148 113.439 137.451 117.083 132.812 117.083C128.174 117.083 124.476 113.439 124.476 109.02C124.476 104.601 128.174 100.957 132.812 100.957C137.451 100.957 141.148 104.601 141.148 109.02Z" fill="#F9380F" stroke="black" stroke-width="2.54623"/>
<path opacity="0.8" d="M132.737 104.686C131.865 104.726 129.725 105.675 128.956 107.834" stroke="white" stroke-width="2.54623" stroke-linecap="round"/>
<path opacity="0.6" d="M128.967 111.556C128.967 111.556 128.79 111.944 129.305 112.086" stroke="white" stroke-width="2.54623" stroke-linecap="round"/>
<path d="M118.459 120.899C118.459 125.331 114.751 128.985 110.1 128.985C105.45 128.985 101.741 125.331 101.741 120.899C101.741 116.467 105.45 112.812 110.1 112.812C114.751 112.812 118.459 116.467 118.459 120.899Z" fill="#F9380F" stroke="black" stroke-width="2.5"/>
<path opacity="0.8" d="M110.025 116.568C109.153 116.609 107.013 117.557 106.244 119.717" stroke="white" stroke-width="2.54623" stroke-linecap="round"/>
<path opacity="0.6" d="M106.256 123.435C106.256 123.435 106.078 123.823 106.593 123.965" stroke="white" stroke-width="2.54623" stroke-linecap="round"/>
<path d="M25.2525 136.662C23.543 140.785 18.6939 142.818 14.3915 141.134C10.089 139.45 8.04525 134.718 9.75471 130.596C11.4642 126.473 16.3132 124.44 20.6157 126.124C24.9182 127.808 26.9619 132.54 25.2525 136.662Z" fill="#F9380F" stroke="black" stroke-width="2.5"/>
<path opacity="0.8" d="M19.1006 129.582C18.2757 129.302 15.926 129.405 14.3822 131.129" stroke="white" stroke-width="2.54623" stroke-linecap="round"/>
<path opacity="0.6" d="M12.9615 134.586C12.9615 134.586 12.6478 134.882 13.0704 135.2" stroke="white" stroke-width="2.54623" stroke-linecap="round"/>
<path d="M35.472 123.446C35.472 127.878 31.7637 131.532 27.113 131.532C22.4622 131.532 18.7539 127.878 18.7539 123.446C18.7539 119.013 22.4622 115.359 27.113 115.359C31.7637 115.359 35.472 119.013 35.472 123.446Z" fill="#F9380F" stroke="black" stroke-width="2.5"/>
<path opacity="0.8" d="M27.0379 119.115C26.1653 119.156 24.0254 120.104 23.2566 122.264" stroke="white" stroke-width="2.54623" stroke-linecap="round"/>
<path opacity="0.6" d="M23.2683 125.982C23.2683 125.982 23.0909 126.37 23.6054 126.512" stroke="white" stroke-width="2.54623" stroke-linecap="round"/>
<path d="M44.3468 120.131C46.2164 124.19 44.3563 128.993 40.1246 130.833C35.8928 132.673 30.9674 130.821 29.0978 126.762C27.2283 122.703 29.0884 117.9 33.3201 116.06C37.5519 114.22 42.4773 116.072 44.3468 120.131Z" fill="#F05910" stroke="black" stroke-width="2.5"/>
<path opacity="0.8" d="M34.8329 119.522C34.0534 119.905 32.499 121.62 32.7053 123.897" stroke="white" stroke-width="2.54623" stroke-linecap="round"/>
<path opacity="0.6" d="M34.28 127.285C34.28 127.285 34.2812 127.709 34.8106 127.635" stroke="white" stroke-width="2.54623" stroke-linecap="round"/>
<path d="M34.9227 132.304C38.0855 135.555 37.939 140.684 34.5893 143.76C31.2397 146.837 25.9605 146.69 22.7978 143.439C19.635 140.188 19.7815 135.059 23.1312 131.983C26.4808 128.906 31.76 129.053 34.9227 132.304Z" fill="#F9380F" stroke="black" stroke-width="2.5"/>
<path opacity="0.8" d="M25.7428 134.775C25.1372 135.386 24.2527 137.504 25.221 139.587" stroke="white" stroke-width="2.54623" stroke-linecap="round"/>
<path opacity="0.6" d="M27.8603 142.281C27.8603 142.281 28.0056 142.682 28.4801 142.441" stroke="white" stroke-width="2.54623" stroke-linecap="round"/>
<path d="M80.8968 134.477C80.8968 138.909 77.1885 142.563 72.5378 142.563C67.887 142.563 64.1787 138.909 64.1787 134.477C64.1787 130.045 67.887 126.391 72.5378 126.391C77.1885 126.391 80.8968 130.045 80.8968 134.477Z" fill="#F9380F" stroke="black" stroke-width="2.5"/>
<path opacity="0.8" d="M72.4627 130.147C71.5901 130.187 69.4502 131.136 68.6815 133.295" stroke="white" stroke-width="2.54623" stroke-linecap="round"/>
<path opacity="0.6" d="M68.6931 137.013C68.6931 137.013 68.5157 137.401 69.0302 137.543" stroke="white" stroke-width="2.54623" stroke-linecap="round"/>
<path d="M100.115 113.258C100.115 117.69 96.4063 121.344 91.7555 121.344C87.1048 121.344 83.3965 117.69 83.3965 113.258C83.3965 108.826 87.1048 105.172 91.7555 105.172C96.4063 105.172 100.115 108.826 100.115 113.258Z" fill="#F9380F" stroke="black" stroke-width="2.5"/>
<path opacity="0.8" d="M91.6805 108.928C90.8079 108.968 88.668 109.917 87.8992 112.077" stroke="white" stroke-width="2.54623" stroke-linecap="round"/>
<path opacity="0.6" d="M87.9108 115.795C87.9108 115.795 87.7335 116.182 88.248 116.325" stroke="white" stroke-width="2.54623" stroke-linecap="round"/>
<path d="M125.012 83.5244C126.463 87.7358 124.134 92.3412 119.732 93.7727C115.33 95.2042 110.616 92.8892 109.165 88.6778C107.715 84.4664 110.044 79.861 114.446 78.4295C118.848 76.998 123.562 79.313 125.012 83.5244Z" fill="#F9380F" stroke="black" stroke-width="2.5"/>
<path opacity="0.8" d="M115.603 82.0154C114.788 82.3228 113.069 83.8822 113.046 86.1674" stroke="white" stroke-width="2.54623" stroke-linecap="round"/>
<path opacity="0.6" d="M114.271 89.6951C114.271 89.6951 114.23 90.1176 114.764 90.0937" stroke="white" stroke-width="2.54623" stroke-linecap="round"/>
<path d="M53.4286 136.206C51.0135 139.995 45.8761 141.185 41.9429 138.818C38.0096 136.451 36.8172 131.452 39.2323 127.664C41.6474 123.875 46.7848 122.685 50.718 125.052C54.6512 127.419 55.8437 132.418 53.4286 136.206Z" fill="#F9380F" stroke="black" stroke-width="2.5"/>
<path opacity="0.8" d="M48.6143 128.214C47.8506 127.802 45.5173 127.513 43.6933 128.956" stroke="white" stroke-width="2.54623" stroke-linecap="round"/>
<path opacity="0.6" d="M41.6869 132.123C41.6869 132.123 41.3259 132.362 41.6863 132.746" stroke="white" stroke-width="2.54623" stroke-linecap="round"/>
<path d="M54.6898 113.258C54.6898 117.69 50.9815 121.344 46.3307 121.344C41.68 121.344 37.9717 117.69 37.9717 113.258C37.9717 108.826 41.68 105.172 46.3307 105.172C50.9815 105.172 54.6898 108.826 54.6898 113.258Z" fill="#F9380F" stroke="black" stroke-width="2.5"/>
<path opacity="0.8" d="M46.2557 108.928C45.3831 108.968 43.2432 109.917 42.4744 112.077" stroke="white" stroke-width="2.54623" stroke-linecap="round"/>
<path opacity="0.6" d="M42.486 115.795C42.486 115.795 42.3087 116.182 42.8232 116.325" stroke="white" stroke-width="2.54623" stroke-linecap="round"/>
<path d="M106.23 126.84C106.23 131.272 102.522 134.926 97.8708 134.926C93.22 134.926 89.5117 131.272 89.5117 126.84C89.5117 122.408 93.22 118.754 97.8708 118.754C102.522 118.754 106.23 122.408 106.23 126.84Z" fill="#F9380F" stroke="black" stroke-width="2.5"/>
<path opacity="0.8" d="M97.7957 122.506C96.9231 122.546 94.7832 123.495 94.0145 125.655" stroke="white" stroke-width="2.54623" stroke-linecap="round"/>
<path opacity="0.6" d="M94.0261 129.377C94.0261 129.377 93.8487 129.764 94.3632 129.907" stroke="white" stroke-width="2.54623" stroke-linecap="round"/>
<path d="M126.342 122.515C123.007 125.607 117.728 125.485 114.548 122.249C111.369 119.012 111.491 113.882 114.825 110.791C118.159 107.699 123.439 107.821 126.618 111.057C129.797 114.293 129.676 119.423 126.342 122.515Z" fill="#F9380F" stroke="black" stroke-width="2.5"/>
<path opacity="0.8" d="M123.757 113.607C123.125 113.022 120.941 112.173 118.802 113.123" stroke="white" stroke-width="2.54623" stroke-linecap="round"/>
<path opacity="0.6" d="M116.04 115.703C116.04 115.703 115.629 115.846 115.878 116.306" stroke="white" stroke-width="2.54623" stroke-linecap="round"/>
<path d="M132.903 100.59C130.47 104.368 125.327 105.536 121.405 103.152C117.483 100.769 116.313 95.7652 118.745 91.9865C121.178 88.2078 126.321 87.0402 130.243 89.4236C134.165 91.8071 135.335 96.8109 132.903 100.59Z" fill="#F9380F" stroke="black" stroke-width="2.5"/>
<path opacity="0.8" d="M128.125 92.5761C127.364 92.1608 125.032 91.8626 123.201 93.2976" stroke="white" stroke-width="2.54623" stroke-linecap="round"/>
<path opacity="0.6" d="M121.179 96.4564C121.179 96.4564 120.817 96.6938 121.176 97.0795" stroke="white" stroke-width="2.54623" stroke-linecap="round"/>
<path d="M62.3129 121.119C61.2336 125.431 56.7393 128.126 52.225 127.059C47.7108 125.992 44.9929 121.592 46.0723 117.281C47.1517 112.97 51.6459 110.274 56.1602 111.341C60.6744 112.408 63.3923 116.808 62.3129 121.119Z" fill="#F05910" stroke="black" stroke-width="2.5"/>
<path opacity="0.8" d="M55.174 114.975C54.3162 114.814 52.0062 115.244 50.7338 117.167" stroke="white" stroke-width="2.54623" stroke-linecap="round"/>
<path opacity="0.6" d="M49.8396 120.782C49.8396 120.782 49.5729 121.119 50.0383 121.375" stroke="white" stroke-width="2.54623" stroke-linecap="round"/>
<path d="M49.4486 143.817C49.4486 148.249 45.7403 151.903 41.0895 151.903C36.4388 151.903 32.7305 148.249 32.7305 143.817C32.7305 139.384 36.4388 135.73 41.0895 135.73C45.7403 135.73 49.4486 139.384 49.4486 143.817Z" fill="#F9380F" stroke="black" stroke-width="2.5"/>
<path opacity="0.8" d="M41.0145 139.483C40.1419 139.523 38.002 140.472 37.2332 142.631" stroke="white" stroke-width="2.54623" stroke-linecap="round"/>
<path opacity="0.6" d="M37.2448 146.353C37.2448 146.353 37.0675 146.741 37.582 146.883" stroke="white" stroke-width="2.54623" stroke-linecap="round"/>
<path d="M66.9193 131.082C66.9193 135.514 63.211 139.168 58.5602 139.168C53.9095 139.168 50.2012 135.514 50.2012 131.082C50.2012 126.65 53.9095 122.996 58.5602 122.996C63.211 122.996 66.9193 126.65 66.9193 131.082Z" fill="#F9380F" stroke="black" stroke-width="2.5"/>
<path opacity="0.8" d="M58.4852 126.748C57.6126 126.788 55.4727 127.737 54.7039 129.897" stroke="white" stroke-width="2.54623" stroke-linecap="round"/>
<path opacity="0.6" d="M54.7155 133.619C54.7155 133.619 54.5382 134.007 55.0527 134.149" stroke="white" stroke-width="2.54623" stroke-linecap="round"/>
<path d="M59.2453 150.39C54.9891 152.178 50.0885 150.264 48.2724 146.183C46.4564 142.102 48.3784 137.323 52.6346 135.535C56.8908 133.747 61.7913 135.66 63.6074 139.741C65.4235 143.822 63.5014 148.602 59.2453 150.39Z" fill="#F9380F" stroke="black" stroke-width="2.5"/>
<path opacity="0.8" d="M60.0033 141.176C59.6189 140.414 57.8734 138.882 55.5279 139.053" stroke="white" stroke-width="2.54623" stroke-linecap="round"/>
<path opacity="0.6" d="M52.0173 140.536C52.0173 140.536 51.5805 140.532 51.6504 141.047" stroke="white" stroke-width="2.54623" stroke-linecap="round"/>
<path d="M141.638 86.2567C122.408 94.381 121.745 121.158 123.817 133.531C152.151 126.536 164.774 118.753 166.975 115.666C176.978 101.633 175.045 80.6228 171.417 69.1769C167.588 76.0332 149.969 83.4202 141.638 86.2567Z" fill="#77DB6E" stroke="#12913C" stroke-width="3" stroke-linecap="round" stroke-linejoin="round"/>
<path d="M239.702 195.879C241.38 203.12 236.441 217.386 191.949 232.583C138.928 248.153 104.958 249.881 88.5743 235.476C78.8905 226.961 52.3535 203.747 112.357 197.586C155.565 187.826 236.597 182.478 239.702 195.879Z" fill="#0B0C0D"/>
<path d="M83.9114 161.628L82.4604 161.825L81.5822 162.997C79.5587 165.697 78.2173 169.993 77.7978 174.044C77.4458 177.442 77.654 181.529 79.3861 184.779C79.3456 184.919 79.3029 185.065 79.258 185.219C79.1392 185.626 79.0052 186.086 78.8558 186.622C78.4878 187.943 78.0862 189.55 77.921 191.219C77.7563 192.882 77.8035 194.812 78.5023 196.702C78.8744 197.708 79.4116 198.648 80.1256 199.491C79.2836 201.767 79.1298 204.135 79.6998 206.348C80.3188 208.752 81.7623 210.827 83.8268 212.23C84.0046 214.36 84.4745 217.16 85.8783 219.682C86.8825 221.486 88.377 223.18 90.5511 224.377C92.1521 225.259 94.0039 225.807 96.1081 226.005C97.448 228.19 99.5829 230.178 102.268 231.325C105.408 232.666 109.139 232.791 112.99 231.059C117.403 234.505 124.476 235.6 132.622 231.279C133.739 232.096 135.01 232.611 136.118 232.935C138.507 233.633 141.313 233.811 143.975 233.647C146.656 233.482 149.436 232.955 151.811 232.067C153.16 231.562 154.659 230.837 155.911 229.793C157.814 230.279 160.229 230.654 162.775 230.522C165.85 230.363 169.329 229.437 172.193 226.884C173.265 227.203 174.357 227.327 175.376 227.339C177.442 227.363 179.577 226.936 181.508 226.333C183.458 225.724 185.345 224.89 186.949 223.986C187.896 223.453 188.834 222.846 189.655 222.188C191.54 222.325 193.785 222.366 195.965 221.922C198.232 221.461 200.56 220.447 202.399 218.458C205.071 218.778 208.129 218.529 211.005 217.63C214.17 216.64 217.411 214.76 219.643 211.649C220.044 211.623 220.431 211.57 220.798 211.499C222.137 211.24 223.454 210.696 224.65 209.988C226.484 208.901 228.287 207.273 229.569 205.217C229.671 205.205 229.779 205.193 229.897 205.179C230.842 205.069 232.097 204.904 233.404 204.549C235.885 203.876 238.897 202.413 240.646 199.038C240.885 198.977 241.164 198.917 241.557 198.834L241.725 198.798C242.237 198.689 242.886 198.548 243.564 198.348C244.937 197.942 246.617 197.243 248.097 195.804C249.311 194.624 250.226 193.109 250.812 191.233C251.617 190.549 252.284 189.723 252.812 188.884C253.66 187.536 254.296 185.921 254.603 184.196C255.062 181.624 254.802 178.65 253.269 175.943C253.986 174.94 254.6 173.738 254.899 172.367C255.232 170.846 255.161 169.15 254.426 167.452C254.049 166.581 253.525 165.773 252.87 165.024C252.876 164.998 252.881 164.973 252.887 164.949C253.139 163.82 253.255 162.419 252.999 161.031C252.747 159.661 252.028 157.842 250.194 156.723C249.829 156.5 249.453 156.325 249.07 156.193C248.991 155.043 248.763 153.84 248.299 152.691C247.713 151.237 246.709 149.776 245.086 148.741C244.434 148.324 243.729 148.007 242.981 147.785C242.954 147.562 242.923 147.339 242.886 147.116C242.662 145.753 242.196 144.11 241.188 142.716C240.084 141.19 238.337 140.008 236.001 139.955C234.14 139.913 232.293 140.602 230.504 141.695L83.9114 161.628ZM240.214 199.175C240.213 199.175 240.227 199.167 240.259 199.155C240.232 199.169 240.215 199.175 240.214 199.175Z" fill="white" stroke="black" stroke-width="7"/>
<path d="M142.997 185.042C136.882 165.096 120.721 140.058 111.549 128.6C120.721 123.932 142.997 117.142 151.732 115.02C163.597 112.139 179.831 154.062 186.237 172.735C190.081 188.691 189.586 213.899 187.985 223.235C183.792 229.007 155.954 233.279 142.123 235.117C146.316 215.087 144.744 193.388 142.997 185.042Z" fill="#141414" stroke="black" stroke-width="7"/>
<path d="M107.604 202.022C115.042 207.254 123.778 205.233 135.932 202.199C160.467 196.075 212.443 183.343 239.923 167.747C247.928 163.204 252.195 160.092 251.753 151.94C250.443 127.75 245.638 137.512 237.339 134.54C222.489 145.574 194.015 155.276 183.616 157.033C163.524 160.426 115.059 127.127 83.5944 141.754C79.3111 146.422 78.3432 163.823 81.0583 171.988C83.5661 179.53 93.8509 192.348 107.604 202.022Z" fill="#FFE34F" stroke="black" stroke-width="7"/>
<path d="M110.225 188.442C115.042 191.83 123.066 190.981 135.932 187.77C160.467 181.645 212.443 168.914 239.923 153.318C247.928 148.775 251.654 145.515 250.006 137.511C248.696 131.146 240.221 118.7 234.282 109.077C228.343 99.4538 218.475 97.9854 208.076 99.7416C187.984 103.135 127.181 118.721 95.7167 133.348C85.5106 138.417 79.2169 142.604 81.9319 150.769C84.4397 158.31 96.4717 178.768 110.225 188.442Z" fill="#FFFC56" stroke="black" stroke-width="7"/>
<path d="M169.44 148.73C166.822 160.952 154.53 168.813 141.985 166.287C129.44 163.761 121.392 151.805 124.01 139.583C126.628 127.361 138.92 119.501 151.465 122.027C164.01 124.552 172.058 136.508 169.44 148.73Z" fill="white"/>
<path fill-rule="evenodd" clip-rule="evenodd" d="M143.265 160.309C152.395 162.147 161.372 156.428 163.286 147.491C165.201 138.554 159.314 129.843 150.185 128.005C141.055 126.166 132.078 131.885 130.164 140.822C128.249 149.759 134.135 158.471 143.265 160.309ZM141.985 166.287C154.53 168.813 166.822 160.952 169.44 148.73C172.058 136.508 164.01 124.552 151.465 122.027C138.92 119.501 126.628 127.361 124.01 139.583C121.392 151.805 129.44 163.761 141.985 166.287Z" fill="black"/>
<path d="M210.571 139.405C207.828 152.207 195.241 160.499 182.455 157.925C169.67 155.35 161.528 142.885 164.27 130.083C167.012 117.281 179.6 108.989 192.386 111.563C205.171 114.138 213.313 126.603 210.571 139.405Z" fill="white"/>
<path fill-rule="evenodd" clip-rule="evenodd" d="M183.736 151.947C192.948 153.801 202.345 147.839 204.417 138.166C206.489 128.493 200.318 119.396 191.105 117.541C181.893 115.687 172.496 121.649 170.424 131.322C168.352 140.995 174.523 150.092 183.736 151.947ZM182.455 157.925C195.241 160.499 207.828 152.207 210.571 139.405C213.313 126.603 205.171 114.138 192.386 111.563C179.6 108.989 167.012 117.281 164.27 130.083C161.528 142.885 169.67 155.35 182.455 157.925Z" fill="black"/>
<path d="M156.158 142.263C155.236 146.571 150.728 149.305 146.088 148.37C141.447 147.434 138.433 143.184 139.355 138.875C140.276 134.567 144.785 131.833 149.425 132.768C154.065 133.703 157.08 137.954 156.158 142.263Z" fill="black"/>
<path d="M192.696 134.956C190.826 138.964 185.812 140.672 181.496 138.77C177.18 136.868 175.197 132.078 177.067 128.07C178.936 124.062 183.951 122.354 188.267 124.256C192.583 126.157 194.566 130.948 192.696 134.956Z" fill="black"/>
<path d="M176.819 163.047C176.819 163.047 204.556 156.62 191.825 148.835C182.968 143.419 170.83 140.157 165.764 142.327C158.651 145.373 150.929 154.556 150.52 162.715C152.54 171.076 162.82 166.998 176.819 163.047Z" fill="#FFD336"/>
<path fill-rule="evenodd" clip-rule="evenodd" d="M171.324 161.447C172.783 161.022 174.322 160.573 175.944 160.115L176.018 160.095L176.091 160.078L176.091 160.078L176.092 160.077L176.093 160.077L176.103 160.075L176.153 160.063C176.198 160.052 176.269 160.035 176.362 160.013C176.548 159.967 176.824 159.898 177.175 159.807C177.876 159.624 178.87 159.354 180.024 159.006C182.358 158.302 185.246 157.312 187.699 156.127C188.926 155.535 189.964 154.932 190.746 154.342C191.56 153.728 191.894 153.28 192 153.059C192.007 153.043 192.013 153.033 192.017 153.027C192.014 153.027 192.011 153.024 192.007 153.017C191.909 152.821 191.499 152.246 190.148 151.42C185.997 148.881 181.043 146.833 176.569 145.689C174.336 145.118 172.294 144.791 170.585 144.717C168.825 144.642 167.667 144.847 167.029 145.121C164.077 146.384 160.766 149.053 158.135 152.441C155.615 155.686 153.974 159.258 153.689 162.418C154.031 163.519 154.516 163.918 154.95 164.134C155.614 164.466 156.797 164.673 158.85 164.462C162.117 164.128 166.232 162.929 171.324 161.447ZM177.625 165.998C176.247 166.387 174.877 166.787 173.527 167.181C168.322 168.701 163.414 170.134 159.503 170.534C156.984 170.792 154.343 170.698 152.074 169.566C149.625 168.344 148.129 166.184 147.46 163.416L147.36 162.998L147.381 162.57C147.626 157.677 150.016 152.763 153.119 148.767C156.23 144.762 160.337 141.316 164.498 139.534C166.393 138.722 168.652 138.522 170.869 138.617C173.137 138.715 175.634 139.135 178.175 139.784C183.251 141.083 188.795 143.374 193.5 146.252C195.332 147.372 196.84 148.701 197.662 150.346C198.564 152.152 198.473 154.004 197.701 155.623C196.996 157.099 195.789 158.265 194.596 159.165C193.371 160.088 191.936 160.897 190.492 161.594C187.602 162.99 184.351 164.092 181.882 164.837C180.635 165.213 179.561 165.505 178.795 165.705C178.412 165.804 178.105 165.881 177.891 165.933C177.784 165.959 177.701 165.98 177.642 165.994L177.625 165.998Z" fill="black"/>
<path d="M233.584 132.966C216.94 145.565 222.873 171.685 227.921 183.17C253.669 169.429 263.994 158.785 265.369 155.252C271.619 139.192 264.585 119.3 258.257 109.095C256.229 116.682 240.964 128.17 233.584 132.966Z" fill="#77DB6E" stroke="#12913C" stroke-width="3" stroke-linecap="round" stroke-linejoin="round"/>
<path d="M260.822 139.048C239.964 139.91 229.949 164.753 227.549 177.066C256.537 180.455 271.088 177.596 274.232 175.477C288.522 165.845 294.082 145.492 294.7 133.501C288.71 138.578 269.618 139.315 260.822 139.048Z" fill="#77DB6E" stroke="#12913C" stroke-width="3" stroke-linecap="round" stroke-linejoin="round"/>
<path d="M329.062 207.438C331.099 214.586 326.878 229.081 283.201 246.48C231.023 264.678 197.182 268.1 180.099 254.531C170.003 246.51 183.179 226.111 242.8 216.961C285.467 205.056 325.292 194.209 329.062 207.438Z" fill="#0B0C0D"/>
<path d="M173.546 199.376L171.495 199.941L171.051 202.022C170.943 202.53 170.792 203.071 170.598 203.763C170.488 204.156 170.365 204.599 170.227 205.113C169.885 206.393 169.513 207.94 169.348 209.544C169.097 211.983 169.301 215.06 171.234 217.585C169.633 222.142 170.627 227.178 174.339 229.991C174.469 232.052 174.85 234.761 176.06 237.218C176.925 238.973 178.249 240.681 180.247 241.92C181.663 242.797 183.297 243.364 185.14 243.609C186.311 245.701 188.184 247.653 190.611 248.824C193.471 250.204 196.854 250.38 200.314 248.842C202.091 250.303 204.389 251.38 207.106 251.7C210.365 252.085 213.973 251.357 217.774 249.278C218.713 249.978 219.76 250.453 220.708 250.769C222.917 251.505 225.493 251.71 227.915 251.575C230.355 251.44 232.898 250.944 235.084 250.078C236.263 249.612 237.556 248.95 238.665 248.02C240.349 248.483 242.431 248.832 244.634 248.733C247.44 248.606 250.563 247.73 253.158 245.372C254.054 245.634 254.961 245.748 255.812 245.768C257.746 245.816 259.723 245.402 261.484 244.823C263.266 244.236 264.986 243.427 266.449 242.549C267.251 242.067 268.049 241.521 268.762 240.928C270.413 241.066 272.378 241.107 274.305 240.701C276.393 240.261 278.485 239.286 280.151 237.449C282.546 237.74 285.239 237.501 287.773 236.666C290.674 235.71 293.586 233.895 295.617 230.949C295.912 230.922 296.197 230.879 296.468 230.825C297.75 230.568 298.988 230.02 300.093 229.322C301.794 228.247 303.434 226.65 304.599 224.66C304.69 224.642 304.787 224.621 304.891 224.599C305.783 224.411 306.926 224.133 308.12 223.661C310.53 222.708 313.311 220.888 314.792 217.306C314.824 217.275 314.886 217.217 314.997 217.129C315.169 216.993 315.374 216.849 315.701 216.621L315.726 216.603C316.022 216.397 316.405 216.131 316.799 215.826C318.4 214.587 320.031 212.825 321.018 209.78C322.643 208.535 324.243 206.645 325.163 204.414C326.214 201.868 326.399 198.748 324.703 195.805C325.758 193.084 326.009 190.564 325.288 188.245C324.71 186.387 323.613 185.011 322.462 183.975C322.578 182.239 322.474 180.161 321.917 178.229C321.491 176.75 320.72 175.082 319.304 173.786C318.683 173.218 317.983 172.763 317.216 172.432C317.096 170.476 316.737 168.222 315.946 166.326C315.317 164.818 314.1 162.785 311.761 161.944C309.484 161.125 307.249 161.805 305.36 163.018L173.546 199.376Z" fill="white" stroke="black" stroke-width="7"/>
<path d="M183.131 220.028C187.5 223.155 206.044 230.406 217.729 227.711C240.013 222.572 266.124 217.692 295.096 201.882C302.37 197.913 311.928 188.573 316.04 178.321C318.215 172.897 316.958 166.145 311.579 157.385C306.199 148.624 277.538 152.002 268.094 153.424C249.849 156.171 228.438 163.658 199.852 176.349C190.579 180.757 172.071 191.552 172.055 201.873C172.046 207.608 175.605 214.642 183.131 220.028Z" fill="#FFA533" stroke="black" stroke-width="7"/>
<path d="M195.772 183.498C195.657 188.488 197.632 201.197 206.448 205.509C209.77 207.453 219.816 209.807 223.281 210.276C232.074 211.464 238.734 216.266 240.528 217.757" stroke="#FFCA8B" stroke-width="2.54623" stroke-linecap="round"/>
<path d="M236.301 166.574C236.583 169.188 242.557 177.718 250.673 181.021C259.69 184.323 268.954 186.386 276.879 196.705C278.148 198.356 281.275 202.566 283.643 202.897M221.507 171.527C221.648 176.067 223.451 185.561 236.301 190.514C243.769 193.816 250.673 196.705 261.24 206.199C262.65 207.466 266.566 209.913 267.58 209.913M206.713 178.131C206.995 179.92 208.479 188.713 214.744 193.403C227.425 202.897 233.765 198.975 242.219 206.199C245.6 209.088 252.617 214.784 253.632 214.454M270.116 157.493C273.357 162.171 280.515 170.867 289.983 174.829C295.901 177.443 303.086 178.131 306.89 186.386M253.632 160.796C255.604 164.51 261.578 172.848 269.694 176.48C277.161 178.957 291.082 185.313 293.787 197.531M288.292 155.43C288.997 157.769 293.449 162.199 302.241 164.51C306.951 165.749 310.948 171.527 311.963 176.48" stroke="#FFCA8B" stroke-width="2.54623" stroke-linecap="round" stroke-linejoin="bevel"/>
<path d="M185.528 190.609C184.948 194.071 183.409 205.092 192.039 211.576C195.421 214.052 206.057 216.578 211.399 216.775C218.125 216.775 221.98 220.004 222.643 222.223" stroke="#FFCA8B" stroke-width="2.54623" stroke-linecap="round" stroke-linejoin="bevel"/>
</g>
<defs>
<clipPath id="clip0_2270_17457">
<rect width="336" height="280" fill="white"/>
</clipPath>
</defs>
</svg>
