<svg width="336" height="280" viewBox="0 0 336 280" fill="none" xmlns="http://www.w3.org/2000/svg">
<g clip-path="url(#clip0_2447_20444)">
<path d="M251.999 252.689C251.653 261.522 250.537 273.172 184.374 275.363C118.211 277.554 97.0845 272.172 82.7012 250.728C74.2 238.054 98.1273 228.183 168.06 230.276C221.055 231.862 252.64 236.342 251.999 252.689Z" fill="#0B0C0D"/>
<path d="M111.818 252.103C62.8124 238 44.4986 189 45.9987 167L291.999 169.265C286.499 213 258.724 245.81 219.105 253.99C189.999 260 140.999 260.5 111.818 252.103Z" fill="white" stroke="black" stroke-width="7"/>
<path d="M292.5 163.5C292.5 178.988 279.802 193.96 257.096 205.268C234.603 216.471 203.285 223.5 168.5 223.5C133.715 223.5 102.397 216.471 79.9042 205.268C57.1982 193.96 44.5 178.988 44.5 163.5C44.5 148.012 57.1982 133.04 79.9042 121.732C102.397 110.529 133.715 103.5 168.5 103.5C203.285 103.5 234.603 110.529 257.096 121.732C279.802 133.04 292.5 148.012 292.5 163.5Z" fill="#943011" stroke="black" stroke-width="7"/>
<path d="M115.598 81.4752C118.871 43.4806 155.416 27.7807 172.443 24.5868C209.209 20.1986 227.922 43.2375 234.84 57.0214C254.23 95.6528 251.21 136.47 247.865 151.09C244.519 165.71 234.444 186.476 186.692 187.015C164.106 185.849 157.968 184.908 145.717 182.417C118.349 176.851 115.783 155.452 117.716 141.542C122.01 110.639 114.48 98.8895 115.598 81.4752Z" fill="#FFFC56"/>
<path fill-rule="evenodd" clip-rule="evenodd" d="M172.066 21.4073C210.675 16.7993 230.44 41.1244 237.697 55.5825C257.508 95.0541 254.443 136.674 250.981 151.804C249.221 159.496 245.609 169.129 235.919 176.839C226.271 184.517 211.031 189.942 186.727 190.217L186.626 190.218L186.526 190.213C163.823 189.041 157.522 188.085 145.079 185.555C130.522 182.594 122.159 175.281 117.859 166.522C113.648 157.941 113.537 148.391 114.549 141.101C116.647 126.007 115.857 115.645 114.68 106.878C114.435 105.058 114.167 103.277 113.903 101.513C112.904 94.869 111.945 88.4821 112.408 81.2708L112.41 81.236L112.413 81.2012C114.144 61.1107 124.704 46.9336 136.904 37.4514C149.041 28.0176 162.926 23.1147 171.856 21.4395L171.961 21.4199L172.066 21.4073ZM172.927 27.7537C164.825 29.2917 151.985 33.834 140.823 42.5101C129.682 51.1693 120.338 63.8288 118.787 81.7144C118.377 88.1635 119.205 93.6998 120.179 100.216C120.455 102.059 120.742 103.98 121.017 106.022C122.251 115.21 123.079 126.174 120.882 141.982C119.963 148.602 120.168 156.706 123.598 163.695C126.94 170.504 133.544 176.674 146.354 179.279C158.396 181.728 164.372 182.655 186.757 183.812C210.144 183.533 223.791 178.312 231.943 171.826C240.065 165.363 243.163 157.304 244.749 150.376C247.977 136.265 250.952 96.2515 231.984 58.4603C225.41 45.3639 207.781 23.6422 172.927 27.7537Z" fill="black"/>
<path d="M127.356 169.639C134.723 165.155 136.637 159.56 140.466 148.37L140.466 148.37C143.082 140.722 142.451 127.944 149.414 118.195C150.699 112.046 169.797 104.944 188.24 108.695C192.778 110.169 204.594 112.079 210.953 128.399C213.366 134.59 212.52 144.63 217.55 154.112C220.525 158.555 224.687 164.663 233.894 168.91C232.256 170.946 225.645 177.108 218.351 179.606C210.526 183.254 194.717 185.452 175.968 184.339C171.914 184.25 162.903 183.616 158.901 182.607C150.917 181.157 149.181 180.077 146.331 179.599C143.481 179.122 130.91 176.114 127.356 169.639Z" fill="white"/>
<path d="M171.18 66.8395C165.169 78.4596 150.899 83.0285 139.307 77.0444C127.715 71.0603 123.192 56.7892 129.203 45.169C135.215 33.5489 149.485 28.98 161.076 34.9641C172.668 40.9483 177.192 55.2194 171.18 66.8395Z" fill="white"/>
<path fill-rule="evenodd" clip-rule="evenodd" d="M142.247 71.3609C150.683 75.7158 161.099 72.4009 165.494 63.9041C169.89 55.4074 166.572 45.0026 158.136 40.6477C149.7 36.2927 139.285 39.6077 134.889 48.1044C130.494 56.6012 133.812 67.0059 142.247 71.3609ZM139.307 77.0444C150.899 83.0285 165.169 78.4596 171.18 66.8395C177.192 55.2194 172.668 40.9483 161.076 34.9641C149.485 28.98 135.215 33.5489 129.203 45.169C123.192 56.7892 127.715 71.0603 139.307 77.0444Z" fill="black"/>
<path d="M214.145 68.6908C207.849 80.8624 193.167 85.7855 181.354 79.6868C169.54 73.588 165.068 58.7769 171.364 46.6052C177.661 34.4335 192.342 29.5104 204.156 35.6092C215.97 41.708 220.442 56.5191 214.145 68.6908Z" fill="white"/>
<path fill-rule="evenodd" clip-rule="evenodd" d="M184.294 74.0032C192.806 78.3976 203.702 74.9517 208.459 65.7554C213.217 56.5591 209.728 45.6871 201.216 41.2927C192.704 36.8983 181.808 40.3443 177.05 49.5406C172.293 58.7369 175.782 69.6088 184.294 74.0032ZM181.354 79.6868C193.167 85.7855 207.849 80.8624 214.145 68.6908C220.442 56.5191 215.97 41.708 204.156 35.6092C192.342 29.5104 177.661 34.4335 171.364 46.6052C165.068 58.7769 169.54 73.588 181.354 79.6868Z" fill="black"/>
<path d="M155.38 58.7182C153.262 62.8147 148.069 64.3403 143.782 62.1257C139.495 59.9111 137.737 54.795 139.855 50.6986C141.973 46.6021 147.165 45.0765 151.452 47.2911C155.739 49.5057 157.498 54.6218 155.38 58.7182Z" fill="black"/>
<path d="M194.106 61.5424C191.143 65.0762 185.744 65.4269 182.047 62.3259C178.351 59.2249 177.756 53.8463 180.719 50.3125C183.682 46.7787 189.081 46.428 192.778 49.529C196.475 52.63 197.069 58.0086 194.106 61.5424Z" fill="black"/>
<path d="M170.308 86.4601C170.308 86.4601 199.321 87.5674 189.029 76.2236C181.869 68.3317 170.884 61.7165 165.305 62.5192C157.47 63.6464 147.309 70.8016 144.61 78.9254C144.234 87.9175 155.466 86.6162 170.308 86.4601Z" fill="#FFD336"/>
<path fill-rule="evenodd" clip-rule="evenodd" d="M165.371 83.3411C166.921 83.3116 168.557 83.2805 170.277 83.2624L170.355 83.2616L170.432 83.2646L170.432 83.2646L170.433 83.2646L170.433 83.2646L170.444 83.265L170.496 83.2667C170.544 83.2683 170.618 83.2705 170.715 83.273C170.911 83.2779 171.201 83.284 171.571 83.2879C172.31 83.2956 173.361 83.2947 174.591 83.2594C177.078 83.188 180.189 82.979 182.929 82.455C184.299 82.1929 185.487 81.8685 186.42 81.4876C187.392 81.0906 187.846 80.7293 188.011 80.5351C188.023 80.5211 188.031 80.5128 188.037 80.5081C188.034 80.5066 188.032 80.5028 188.031 80.4947C187.99 80.27 187.749 79.5775 186.658 78.3739C183.301 74.6743 179.02 71.2517 174.955 68.8719C172.925 67.6837 171.016 66.7945 169.36 66.2525C167.655 65.6942 166.461 65.5847 165.758 65.6859C162.507 66.1536 158.509 67.9409 154.974 70.6403C151.588 73.2254 148.972 76.3825 147.802 79.494C147.827 80.699 148.19 81.2337 148.555 81.5711C149.113 82.0875 150.215 82.6202 152.288 82.9702C155.586 83.5269 159.959 83.4438 165.371 83.3411ZM170.268 89.66C168.807 89.6758 167.35 89.7044 165.916 89.7327C160.382 89.8417 155.165 89.9444 151.217 89.278C148.674 88.8487 146.11 88.0305 144.204 86.2667C142.146 84.3622 141.288 81.7732 141.412 78.7953L141.431 78.3465L141.573 77.9202C143.192 73.0481 146.92 68.7422 151.09 65.5583C155.269 62.3675 160.268 60.0135 164.851 59.3541C166.938 59.0538 169.21 59.4702 171.357 60.1731C173.554 60.8924 175.884 61.9996 178.194 63.3514C182.806 66.0515 187.598 69.8825 191.401 74.0749C192.882 75.7073 193.986 77.4615 194.329 79.3476C194.704 81.4165 194.094 83.2621 192.88 84.6839C191.773 85.9811 190.26 86.828 188.837 87.4091C187.375 88.0062 185.74 88.4295 184.127 88.7381C180.9 89.3552 177.401 89.5783 174.77 89.6538C173.441 89.692 172.305 89.6931 171.498 89.6846C171.094 89.6804 170.772 89.6737 170.547 89.668C170.435 89.6651 170.347 89.6625 170.286 89.6606L170.268 89.66Z" fill="black"/>
<mask id="mask0_2447_20444" style="mask-type:alpha" maskUnits="userSpaceOnUse" x="48" y="95" width="241" height="126">
<path d="M285.463 165.769C284.612 176.809 274.21 189.019 253.778 198.87C233.545 208.625 204.416 215.551 168.407 216.452C142.878 217.092 113.256 211.689 90.1155 201.958C78.5441 197.092 68.7822 191.222 61.9682 184.649C55.1634 178.085 51.5293 171.064 51.5293 163.761C51.5293 156.041 57.048 144.272 67.4368 133.008C77.6928 121.889 92.1838 111.844 109.112 107.305C142.812 98.2693 187.783 96.3297 223.975 105.226C242.064 109.672 257.681 116.758 268.626 126.749C279.449 136.629 285.798 149.417 285.463 165.769Z" fill="#CF6240" stroke="black" stroke-width="7"/>
</mask>
<g mask="url(#mask0_2447_20444)">
<path d="M54.5001 164.501C47.3001 172.101 60.5 191.501 66.5 195.501C88.1 217.9 142.5 223.001 166.5 224.001C234.5 223.601 271.5 196.501 281.5 183.001C289 165.001 278 158.001 277 155.501C276.2 153.501 274.667 149.001 274 147C274 133 242 137.834 226 142.001C220.001 150 194.512 150 170.518 150H170.5C146.5 150 131.333 140.333 123.5 134.5C111.9 122.9 105.5 117.5 99 126C98.6 131.6 90.3333 136.5 87.5 136.5C66.7 132.9 61.6666 142.834 62.5 147C60 161.001 57.5001 162.501 54.5001 164.501Z" fill="#D13706"/>
<path d="M177.546 109.459C173.984 113.957 176.062 118.206 177.546 119.769C195.354 129.141 197.931 141.013 196.994 145.778C195.682 152.714 202.54 154.448 206.132 154.448C215.318 154.635 214.802 144.841 213.396 139.92C210.959 123.986 194.729 112.036 186.918 108.053C182.794 105.616 178.952 107.975 177.546 109.459Z" fill="#FDB91A" stroke="#FB6904" stroke-width="3"/>
<path d="M188 113.502C196 119 194.333 116.5 191 114.002C187.666 111.503 188.831 112.501 187.5 111.502C186.168 110.503 186.5 111.024 185 110.001C183.5 108.978 180.5 109.501 179.5 111.502C178.994 112.514 182.047 110.706 184 111.502C185.227 112.002 186.748 112.641 188 113.502Z" fill="#FFDB5A"/>
<path d="M205.664 136.874C199.853 137.061 197.619 142.732 197.228 145.543C196.666 152.479 203.399 154.682 206.836 154.916C213.771 153.604 214.256 146.715 213.631 143.435C213.068 137.061 208.085 136.405 205.664 136.874Z" fill="#FB6904" stroke="#FB6904" stroke-width="3"/>
<path d="M82.602 137.658C82.1232 133.985 83.3642 126.349 92.1586 125.184C94.1293 124.62 98.9187 124.868 102.31 130.369C103.28 131.944 103.773 132.807 103.944 133.183C108.076 137.721 115.256 143.876 122.821 145.212C127.212 145.478 136.195 147.37 137.002 152.803C138.039 156.921 138.169 164.965 130.39 164.196C122.985 163.52 105.622 159.835 95.4152 150.501C92.2139 147.742 85.1693 141.311 82.602 137.658Z" fill="#FDB91A" stroke="#FB6904" stroke-width="3"/>
<path d="M119.46 148.941C112 147 110.5 143.501 113 145.001C115.5 146.501 120.992 147.637 123.176 148.114C125.361 148.59 128.307 149.179 130.74 150.062C133.173 150.945 134.787 153.232 134.651 154.639C134.542 155.765 132.883 153.389 131.096 152.269C126.88 149.762 126.439 150.077 119.46 148.941Z" fill="#FFDB5A"/>
<path d="M221.754 187.133C219.745 184.021 217.588 176.592 225.031 171.765C226.569 170.41 231.001 168.578 236.425 172.091C237.978 173.097 238.794 173.665 239.109 173.931C244.789 176.256 253.916 178.734 261.322 176.693C265.402 175.049 274.327 172.902 277.388 177.463C280.093 180.737 283.663 187.946 276.307 190.591C269.328 193.159 252.064 197.283 238.839 193.234C234.764 192.116 225.64 189.33 221.754 187.133Z" fill="#FDB91A" stroke="#FB6904" stroke-width="3"/>
<path d="M164.158 172.294C155.364 171.128 154.123 163.493 154.601 159.82C157.169 156.167 164.213 149.736 167.415 146.977C177.621 137.643 194.984 133.958 202.39 133.282C210.169 132.513 210.039 140.557 209.001 144.674C208.194 150.108 199.255 151.483 194.82 152.266C185.526 153.907 182.497 155.567 179.302 159.82C177.425 162.32 177.5 162.504 174.309 167.108C170.628 172.42 166.129 172.858 164.158 172.294Z" fill="#FDB91A" stroke="#FB6904" stroke-width="3"/>
<path d="M162.114 155.527C156.114 161.527 155.05 160.874 155.114 160.027C155.76 157.715 166.265 148.62 168.614 147.027C174.574 142.047 186.139 138.195 190.254 137.095C194.369 135.995 196.089 136.65 196.783 137.882C197.338 138.868 193.266 139.321 191.16 139.425C177.172 141.527 164.18 152.47 162.114 155.527Z" fill="#FFDB5A"/>
<path d="M68.6214 205.88C61.5893 200.472 64.3342 193.239 66.5856 190.299C70.636 188.42 79.9529 186.374 84.1051 185.586C97.6117 182.61 114.49 188.103 121.241 191.222C128.361 194.448 124.225 201.348 121.267 204.394C117.85 208.696 109.422 205.415 105.19 203.875C96.3214 200.647 92.8679 200.569 87.9745 202.654C85.0981 203.88 85.071 204.076 80.0052 206.467C74.161 209.226 70.046 207.354 68.6214 205.88Z" fill="#FDB91A" stroke="#FB6904" stroke-width="3"/>
<path d="M75.723 191.831C85.1252 189.417 82.146 189.03 78.0717 189.899C73.9975 190.769 75.5151 190.547 73.8871 190.894C72.2592 191.24 72.8698 191.333 71.1129 191.791C69.3559 192.249 67.7782 194.854 68.6286 196.922C69.0588 197.969 69.704 194.48 71.5866 193.531C72.7702 192.935 74.2521 192.209 75.723 191.831Z" fill="#FFDB5A"/>
<path d="M111.233 188.66C115.545 201.406 124.902 212.872 129.041 217.012C136.539 223.385 141.226 218.106 142.632 214.669C145.631 210.17 141.382 204.828 138.883 202.719C132.322 195.783 126.464 184.676 124.355 179.99C122.48 174.366 116.388 174.835 113.576 175.772C107.578 178.209 109.515 185.379 111.233 188.66Z" fill="#FDB91A" stroke="#FB6904" stroke-width="3"/>
<path d="M128 208.5C134.232 212.704 129.297 212.254 128 211.5C126.019 210.926 122.027 204.725 120.802 202.855C119.576 200.985 117.765 197.625 117.375 196.813C116.985 196.001 114.367 190.502 115 190.501C115.634 190.5 117.5 194.5 119 196.813C121.067 200 123 202.855 128 208.5Z" fill="#FFDB5A"/>
<path d="M130.681 205.531C126.744 210.03 127.166 213.498 127.869 214.669C128.994 217.293 132.399 219.043 133.961 219.591C139.585 220.903 142.397 215.138 143.1 212.092C144.037 207.593 140.679 204.594 138.882 203.656C135.508 202.157 132.009 204.281 130.681 205.531Z" fill="#FB6904" stroke="#FB6904" stroke-width="3"/>
<path d="M227.477 176.083C214.661 180.185 199.879 179.466 194.09 178.594C184.509 176.347 185.974 169.441 187.903 166.269C189.742 161.184 196.563 161.429 199.744 162.188C209.221 163.347 221.636 161.464 226.659 160.377C232.297 158.546 235.538 163.725 236.454 166.544C238.056 172.818 231.136 175.518 227.477 176.083Z" fill="#FDB91A" stroke="#FB6904" stroke-width="3"/>
<path d="M202.353 170.455C201.072 176.294 198.031 178.015 196.671 178.145C193.892 178.798 190.462 177.098 189.094 176.166C184.698 172.421 187.666 166.735 189.699 164.361C192.762 160.935 197.17 161.855 198.991 162.744C202.201 164.568 202.57 168.645 202.353 170.455Z" fill="#FB6904" stroke="#FB6904" stroke-width="3"/>
<path d="M174.24 218.624C161.493 214.314 150.026 204.958 145.886 200.818C139.512 193.321 144.791 188.634 148.228 187.228C152.727 184.228 158.069 188.477 160.178 190.976C167.115 197.536 178.222 203.393 182.909 205.502C188.532 207.376 188.064 213.468 187.127 216.28C184.691 222.279 177.52 220.342 174.24 218.624Z" fill="#FDB91A" stroke="#FB6904" stroke-width="3"/>
<path d="M157.367 199.178C152.869 203.114 149.401 202.693 148.229 201.99C145.605 200.866 143.855 197.46 143.307 195.898C141.995 190.275 147.759 187.462 150.805 186.759C155.304 185.822 158.304 189.18 159.241 190.976C160.741 194.35 158.617 197.85 157.367 199.178Z" fill="#FB6904" stroke="#FB6904" stroke-width="3"/>
<path d="M158.255 181.42C148.806 175.775 137.525 176.119 133.05 177.229C128.482 177.833 123.33 181.638 121.34 183.233C116.426 186.273 111.503 183.376 109.655 181.547C105.456 176.427 108.475 170.592 110.509 168.315C114.863 162.255 132.524 159.789 140.811 159.314C157.832 158.734 168.635 166.782 171.909 170.879C175.895 176.358 172.141 180.685 169.765 182.163C163.418 185.483 158.959 181.466 158.255 181.42Z" fill="#FDB91A" stroke="#FB6904" stroke-width="3"/>
<path d="M126.628 166.568C118.392 168.609 117.818 167.5 118.31 166.808C120.057 165.161 133.75 162.796 136.583 162.644C144.258 161.457 156.152 164.129 160.244 165.311C164.335 166.494 165.471 167.942 165.429 169.356C165.396 170.487 161.674 168.773 159.817 167.775C146.752 162.353 129.975 165.017 126.628 166.568Z" fill="#FFDB5A"/>
<path d="M195.347 192.775C204.795 198.42 216.077 198.076 220.552 196.966C225.12 196.362 230.272 192.557 232.261 190.962C237.175 187.922 242.099 190.82 243.947 192.649C248.145 197.768 245.127 203.603 243.093 205.881C238.739 211.94 221.077 214.406 212.791 214.881C195.77 215.461 184.967 207.413 181.693 203.316C177.706 197.837 181.461 193.511 183.837 192.032C190.184 188.712 194.642 192.73 195.347 192.775Z" fill="#FDB91A" stroke="#FB6904" stroke-width="3"/>
<path d="M241 194.5C243 196.5 243 199.251 243.5 197.501C244 195.752 242.5 194 241.5 193.25C240.5 192.5 240.939 192.5 238.5 191.5C236.06 190.5 232 193.001 230.5 194.5C229.699 195.299 234.928 192.61 237 193C238.327 193.25 240.391 193.892 241 194.5Z" fill="#FFDB5A"/>
<path d="M169.19 162.438C172.317 160.353 177.985 164.718 180.428 167.161C191.503 178.237 203.176 183.612 207.628 184.915C213.882 187.781 216.423 192.298 216.912 194.198C218.215 203.059 212.569 205.165 209.583 205.111C184.044 200.941 168.865 182.634 164.467 174.002C161.079 168.008 166.204 163.795 169.19 162.438Z" fill="#FDB91A" stroke="#FB6904" stroke-width="3"/>
<path d="M182.5 174.499C186.5 177.998 189.55 179.895 189 178.5C188.451 177.104 182.664 172.494 181 170.999C179.337 169.505 177.138 167.457 175 165.999C172.863 164.54 170.063 164.566 169 165.499C168.15 166.246 171.048 166.204 173.001 166.999C177.499 168.957 177.5 169.498 182.5 174.499Z" fill="#FFDB5A"/>
<path d="M203.828 186.828C208.259 184.222 212.949 188.023 214.741 190.248C221.125 200.021 214.904 203.767 210.995 204.418C203.568 205.33 199.539 200.129 198.454 197.415C197.281 193.376 201.548 188.674 203.828 186.828Z" fill="#FB6904" stroke="#FB6904" stroke-width="3"/>
</g>
<path d="M271.674 168.722C260.188 179.519 244.737 183.09 238.447 183.526C230.482 182.863 228.717 176.396 228.831 173.246C229.333 163.56 236.979 161.676 240.74 161.945C252.394 161.221 262.884 151.634 266.672 146.931C272.15 141.538 277.153 146.094 278.97 149.047C283.856 155.859 276.142 165.002 271.674 168.722Z" fill="#FDB91A" stroke="#FB6904" stroke-width="3"/>
<path d="M267 166.496C263.009 170.005 260.545 172.359 262 171.997C263.455 171.634 269.801 166.451 271.5 164.997C273.199 163.543 275 161.497 276.5 158.997C278 156.497 278.763 153.67 277.976 152.494C277.347 151.554 277.01 154.433 275.967 156.265L275.942 156.308C274.392 159.031 272.58 162.214 267 166.496Z" fill="#FFDB5A"/>
<path d="M248.038 172.261C248.773 176.623 245.354 180.315 243.553 181.615C241.798 183.308 238.535 183.607 237.123 183.545C230.739 182.325 229.261 175.832 229.32 172.738C227.737 165.208 234.851 163.2 238.606 163.138C244.563 162.641 247.376 169.013 248.038 172.261Z" fill="#FB6904" stroke="#FB6904" stroke-width="3"/>
<path d="M231.285 133.9C218.609 152.016 227.358 163.225 234.879 168.083C246.949 175.877 259.096 163.75 262.1 156.936C271.545 138.168 264.142 125.508 257.512 123.08C245.863 118.813 235.732 127.542 231.285 133.9Z" fill="white" stroke="black" stroke-width="5"/>
<path d="M243.411 140.349C236.362 147.036 234.748 154.142 236.474 158.018C239.588 165.015 247.982 163.335 250.956 159.525C256.366 152.594 255.996 146.574 255.041 143.448C252.483 135.068 246.119 137.969 243.411 140.349Z" fill="#EFEC35"/>
<path d="M201.986 138.85C205.342 124.943 206.625 120.929 204.123 107.882C218.132 94.8357 227.938 98.673 233.359 100.268C236.59 105.167 240.051 120.73 235.239 131.137C231.213 139.841 222.046 156.63 210.481 155.717C196.813 156.016 200.835 143.648 201.986 138.85Z" fill="#FFFC56"/>
<path d="M203.397 105.625C203.397 105.625 206.499 119.698 203.397 130.496C200.812 139.496 195.231 152.334 203.397 155.496C214.999 159.989 226.499 147.496 230.999 141.496C235.499 135.496 238.436 125.996 238.436 119.698" stroke="black" stroke-width="6" stroke-linecap="round"/>
<path d="M100.584 61.3728C107.786 73.7219 114.301 80.0932 122.575 81.289C127.638 103.363 129.713 122.573 125.076 124.945C119.642 123.475 87.8543 99.4491 83.9746 88.7064C80.7296 79.7209 75.3918 61.4741 83.6003 54.5949C92.369 45.4567 98.0937 57.1164 100.584 61.3728Z" fill="#FFFC56"/>
<path d="M116 79C108.001 75.5 102.065 62.2222 100.16 58.8633C93.5006 47.1202 83.0053 48.6861 81.5006 58.8633C78.8932 76.4999 84.4247 87.9999 88.0006 94.9999C94.2542 107.241 108.001 113.999 108.001 113.999C113.001 116.5 119.001 115.5 119.001 124.499" stroke="black" stroke-width="6" stroke-linecap="round"/>
<path d="M105.029 33.4343C101.901 31.3495 96.2335 35.7145 93.7904 38.1575C82.7153 49.2326 71.0426 54.6077 66.5906 55.9108C60.3363 58.7773 57.7955 63.2943 57.3069 65.1945C56.004 74.0547 61.6502 76.1612 64.6362 76.1069C90.1744 71.9373 105.354 53.6304 109.752 44.9982C113.14 39.0045 108.015 34.7915 105.029 33.4343Z" fill="#FDB91A" stroke="#FB6904" stroke-width="3"/>
<path d="M105 42.4988C107 40.0989 107.833 41.1655 107.999 41.9988C107.999 44.3994 104.333 48.3319 102.5 50.498C98.1001 56.898 89.6666 62.8314 85.9998 64.998C82.333 67.1647 80.4996 66.998 79.4996 65.998C78.6996 65.198 82.4996 63.6647 84.4996 62.998C98.0996 54.998 103.833 45.9986 105 42.4988Z" fill="#FFDB5A"/>
<path d="M70.3913 57.8243C65.9612 55.2183 61.2705 59.0187 59.4789 61.2446C53.0943 71.0169 59.316 74.7629 63.225 75.4144C70.6519 76.3264 74.6802 71.1254 75.766 68.4109C76.9387 64.3717 72.6715 59.6702 70.3913 57.8243Z" fill="#FB6904" stroke="#FB6904" stroke-width="3"/>
<path d="M108.181 127.014C103.156 136.806 104.226 148.042 105.622 152.436C106.519 156.956 110.648 161.852 112.368 163.735C115.718 168.443 113.144 173.543 111.438 175.505C106.599 180.024 100.582 177.388 98.1781 175.505C91.8507 171.55 88.2527 154.084 87.2446 145.845C85.5697 128.897 92.9052 117.598 96.7823 114.067C101.993 109.736 106.553 113.204 108.181 115.48C111.903 121.6 108.181 126.308 108.181 127.014Z" fill="#FDB91A" stroke="#FB6904" stroke-width="3"/>
<path d="M91.5557 135.435C91.0562 142.936 89.5552 137.935 89.5551 136.435C89.0553 134.434 91.5559 126.934 92.5559 124.934C93.5559 122.934 94.6002 121.075 96.055 118.935C97.5098 116.794 100.438 115.144 101.769 115.622C102.833 116.005 100.581 116.981 99.056 118.436C95.5877 121.905 93.556 126.436 91.5557 135.435Z" fill="#FFDB5A"/>
<path d="M68.722 173.726C80.2085 184.522 95.6597 188.094 101.949 188.53C109.915 187.867 111.679 181.4 111.566 178.249C111.064 168.564 103.417 166.68 99.6566 166.949C88.0026 166.225 77.5125 156.638 73.7242 151.935C68.2461 146.541 63.2432 151.098 61.4265 154.051C56.5407 160.863 64.2544 170.006 68.722 173.726Z" fill="#FDB91A" stroke="#FB6904" stroke-width="3"/>
<path d="M79.0002 176.499C81.6778 178.108 84.7979 179.208 83.9998 179.5C83.2018 179.792 82.9211 180.48 80.5 179C73.5023 175.631 68.5003 169.499 66.0003 165.999C63.5003 162.499 61.8818 160.068 62.7171 158.927C63.3853 158.014 65.0479 161.999 67.5003 165C74.8538 173.999 75.5002 173.499 79.0002 176.499Z" fill="#FFDB5A"/>
<path d="M92.3589 177.265C91.6235 181.627 95.042 185.319 96.8432 186.619C98.5984 188.312 101.862 188.611 103.274 188.549C109.657 187.329 111.135 180.836 111.076 177.742C112.66 170.212 105.545 168.204 101.79 168.142C95.8331 167.645 93.0205 174.017 92.3589 177.265Z" fill="#FB6904" stroke="#FB6904" stroke-width="3"/>
<path d="M96.2261 162.144C95.0212 161.422 94.1442 160.564 94.0168 159.519C93.8927 158.501 94.4279 156.816 97.3259 154.293C98.0548 153.795 99.1033 153.385 100.003 153.506C100.43 153.564 100.838 153.741 101.207 154.12C101.587 154.51 101.971 155.164 102.241 156.245C102.55 157.478 102.888 159.216 102.762 160.666C102.7 161.386 102.53 161.943 102.266 162.323C102.028 162.667 101.676 162.925 101.07 163.012C99.7299 163.203 97.6442 162.995 96.2261 162.144Z" fill="#1B8302" stroke="#389E1E" stroke-width="2"/>
<path d="M133.135 152.313L133.135 152.313C133.845 151.817 135.49 151.074 137.032 151.005C137.786 150.971 138.432 151.102 138.928 151.415C139.401 151.715 139.844 152.246 140.092 153.236C140.393 154.441 140.45 155.432 140.177 156.129C139.951 156.709 139.414 157.29 137.921 157.504L138.062 158.493L137.921 157.504C136.617 157.69 134.992 157.485 133.577 156.636C132.434 155.95 131.848 155.179 131.734 154.543C131.64 154.016 131.82 153.234 133.135 152.313Z" fill="#1B8302" stroke="#389E1E" stroke-width="2"/>
<path d="M167.868 176.254L167.868 176.254C168.288 175.889 169.127 175.672 169.954 175.854C170.724 176.024 171.315 176.496 171.485 177.342C171.742 178.618 171.802 179.723 171.551 180.522C171.432 180.9 171.25 181.19 170.994 181.411C170.737 181.634 170.351 181.832 169.754 181.938C168.737 182.119 167.446 181.927 166.297 181.071C165.912 180.784 165.725 180.494 165.641 180.225C165.556 179.95 165.552 179.614 165.671 179.201C165.92 178.344 166.667 177.298 167.868 176.254Z" fill="#1B8302" stroke="#389E1E" stroke-width="2"/>
<path d="M214.712 172.501L214.712 172.5L214.712 172.501ZM214.712 172.501L214.716 172.506M214.712 172.501L214.716 172.506M214.716 172.506L214.717 172.506L214.716 172.506ZM215.364 173.258L215.364 173.258C215.661 173.003 216.197 172.755 216.924 172.622C217.636 172.491 218.45 172.485 219.234 172.636C220.812 172.94 222.065 173.816 222.402 175.369C222.811 177.259 222.899 178.79 222.529 179.886C222.353 180.408 222.074 180.825 221.666 181.151C221.251 181.481 220.651 181.759 219.774 181.913C218.308 182.171 216.459 181.895 214.821 180.686C213.639 179.814 213.07 178.61 213.109 177.343C213.149 176.063 213.815 174.592 215.364 173.258Z" fill="#1B8302" stroke="#389E1E" stroke-width="2"/>
<path d="M188.048 205.347L188.048 205.347C188.201 205.246 188.534 205.12 189.033 205.05C189.511 204.984 190.06 204.98 190.588 205.058C191.739 205.227 192.348 205.686 192.486 206.173C192.761 207.137 192.767 207.759 192.601 208.133C192.48 208.406 192.149 208.796 190.96 208.955C189.964 209.088 188.727 208.94 187.657 208.339C186.897 207.911 186.698 207.427 186.713 207.066C186.729 206.667 187.018 206.022 188.048 205.347Z" fill="#1B8302" stroke="#389E1E" stroke-width="2"/>
<path d="M119.336 168.369C118.394 168.918 118.418 169.647 119.203 170.039C119.717 170.296 120.301 170.356 120.772 170.3C121.87 170.169 121.942 169.577 121.714 168.862C121.467 168.09 119.859 168.064 119.336 168.369Z" fill="#FFD687"/>
<path d="M205.677 168.369C204.736 168.918 204.76 169.647 205.544 170.039C206.059 170.296 206.643 170.356 207.114 170.3C208.212 170.169 208.284 169.577 208.055 168.862C207.808 168.09 206.201 168.064 205.677 168.369Z" fill="#FFD687"/>
<path d="M140.473 168.721C139.383 168.725 138.716 168.692 139.199 169.424C139.516 169.904 139.992 170.248 140.428 170.435C141.444 170.871 141.803 170.394 141.962 169.661C142.134 168.869 141.078 168.718 140.473 168.721Z" fill="#FFD687"/>
<path d="M164.105 153.444C163.164 153.993 163.187 154.722 163.972 155.114C164.486 155.371 165.071 155.431 165.541 155.375C165.821 155.342 165.77 155.043 165.541 154.329C165.295 153.556 164.628 153.139 164.105 153.444Z" fill="#FFD687"/>
<path d="M190.55 183.21C189.608 183.759 190.117 184.235 190.901 184.627C191.415 184.884 191.515 185.197 191.986 185.141C193.085 185.01 192.728 184.808 192.5 184.094C192.253 183.322 191.073 182.905 190.55 183.21Z" fill="#FFD687"/>
<path d="M166.171 200.29C165.23 200.839 165.386 201.479 166.171 201.871C166.685 202.128 167.27 201.927 167.741 201.871C168.211 201.815 168.292 201.357 167.741 200.824C167.157 200.261 166.694 199.985 166.171 200.29Z" fill="#FFD687"/>
<path d="M219.535 187.557C218.593 188.106 218.617 188.835 219.402 189.227C219.916 189.484 220.5 189.545 220.971 189.489C222.07 189.358 221.714 189.156 221.485 188.442C221.238 187.67 220.058 187.252 219.535 187.557Z" fill="#FFD687"/>
<path d="M211.007 157.71C210.066 158.259 210.09 158.987 210.874 159.38C211.389 159.637 211.954 160.249 212.425 160.193C213.523 160.062 212.653 159.308 212.425 158.594C212.178 157.822 211.531 157.405 211.007 157.71Z" fill="#FFD687"/>
<path d="M177.81 167.582C177.543 166.525 176.836 166.346 176.242 166.992C175.853 167.415 175.633 167.96 175.556 168.427C175.378 169.519 175.928 169.752 176.677 169.73C177.487 169.707 177.958 168.169 177.81 167.582Z" fill="#FFD687"/>
<path d="M144.918 183.784C143.977 184.333 144.134 184.85 144.918 185.242C145.432 185.499 146.336 184.708 146.336 184.708C146.869 184.175 147.525 184.499 147.296 183.785C147.049 183.013 145.441 183.479 144.918 183.784Z" fill="#FFD687"/>
<path d="M127.863 185.425C126.921 185.973 126.945 186.702 127.73 187.094C128.244 187.351 128.829 187.412 129.299 187.356C130.398 187.225 129.509 186.49 129.28 185.776C129.033 185.004 128.386 185.12 127.863 185.425Z" fill="#FFD687"/>
<path d="M121.881 187.342C121.086 186.597 120.394 186.828 120.243 187.692C120.144 188.258 120.253 188.836 120.441 189.271C120.881 190.286 121.469 190.185 122.088 189.762C122.758 189.304 122.323 187.756 121.881 187.342Z" fill="#FFD687"/>
<path d="M145.006 194.263C144.195 194.068 143.609 194.502 143.591 195.155C143.579 195.583 143.755 195.936 143.982 196.16C144.512 196.683 145.023 196.379 145.518 195.842C146.054 195.262 145.456 194.372 145.006 194.263Z" fill="#FFD687"/>
<path d="M179.116 149.494C178.306 149.298 177.72 149.732 177.702 150.386C177.69 150.814 177.865 151.167 178.092 151.391C178.622 151.913 179.134 151.61 179.629 151.073C180.164 150.493 179.567 149.602 179.116 149.494Z" fill="#FFD687"/>
<path d="M175.831 183.291C174.889 183.84 175.931 184.316 176.715 184.708C177.229 184.965 177.31 185.297 177.781 185.241C178.88 185.111 178.437 184.498 178.209 183.784C177.962 183.012 176.354 182.986 175.831 183.291Z" fill="#FFD687"/>
<path d="M140.769 160.912C140.08 160.826 139.796 161.209 140.026 161.718C140.176 162.051 140.441 162.31 140.696 162.466C141.293 162.828 141.569 162.551 141.746 162.095C141.937 161.602 141.152 160.96 140.769 160.912Z" fill="#FFD687"/>
</g>
<defs>
<clipPath id="clip0_2447_20444">
<rect width="336" height="280" fill="white"/>
</clipPath>
</defs>
</svg>
