<svg width="129" height="28" viewBox="0 0 129 28" fill="none" xmlns="http://www.w3.org/2000/svg">
<mask id="path-1-outside-1_2248_11511" maskUnits="userSpaceOnUse" x="0" y="0" width="54" height="28" fill="black">
<rect fill="white" width="54" height="28"/>
<path d="M27.2024 1L22.5989 27H19.2414L21.5577 14H19.0956L17.011 25.8444H13.6987L17.9619 1.57778H21.3249L19.6746 10.8222H22.1367L23.8739 1H27.2024ZM11.5272 3.88764H14.8974L11.6547 22.0889H1L4.24256 3.88889L7.65917 3.88764L6.53 10.2444H10.3518L11.5272 3.88764ZM9.77273 13.5149H6.00885L5.02445 18.9111H8.81728L9.77273 13.5149Z"/>
<path d="M52.8571 5.91111L52.337 9.08889H49.1379L48.2693 14H45.0988L47.4151 1H50.5999L49.7313 5.91111H52.8571ZM43.2176 12.2041C42.8578 12.4111 41.2729 12.7761 40.9489 12.8444C40.2637 12.9889 38.2369 13.2778 38.2369 13.2778C38.2369 13.2778 35.4865 13.5302 35.1969 13.5352C34.9073 13.5402 31.4331 13.7111 31.1038 13.7111H29.2326L31.2303 2.44444H41.5279L40.9489 5.57058H34.2125L33.3439 10.1477C34.4497 10.1477 34.8776 10.1383 35.7959 10.1196C36.7143 10.082 37.5764 10.0257 38.3823 9.95055C39.1882 9.87543 39.9472 9.79092 40.6594 9.69703C41.6997 9.55986 43.0489 9.23333 43.767 9.01377L43.2176 12.2041ZM33.923 23.8222H47.8422L47.2631 27H30.1302L31.4331 19.4889H44.1434L44.3461 18.3333H31.6473L32.2148 15.1556H48.0809L46.7781 22.6667H34.1257L33.923 23.8222Z"/>
</mask>
<path d="M27.2024 1L22.5989 27H19.2414L21.5577 14H19.0956L17.011 25.8444H13.6987L17.9619 1.57778H21.3249L19.6746 10.8222H22.1367L23.8739 1H27.2024ZM11.5272 3.88764H14.8974L11.6547 22.0889H1L4.24256 3.88889L7.65917 3.88764L6.53 10.2444H10.3518L11.5272 3.88764ZM9.77273 13.5149H6.00885L5.02445 18.9111H8.81728L9.77273 13.5149Z" fill="#36EDC1"/>
<path d="M52.8571 5.91111L52.337 9.08889H49.1379L48.2693 14H45.0988L47.4151 1H50.5999L49.7313 5.91111H52.8571ZM43.2176 12.2041C42.8578 12.4111 41.2729 12.7761 40.9489 12.8444C40.2637 12.9889 38.2369 13.2778 38.2369 13.2778C38.2369 13.2778 35.4865 13.5302 35.1969 13.5352C34.9073 13.5402 31.4331 13.7111 31.1038 13.7111H29.2326L31.2303 2.44444H41.5279L40.9489 5.57058H34.2125L33.3439 10.1477C34.4497 10.1477 34.8776 10.1383 35.7959 10.1196C36.7143 10.082 37.5764 10.0257 38.3823 9.95055C39.1882 9.87543 39.9472 9.79092 40.6594 9.69703C41.6997 9.55986 43.0489 9.23333 43.767 9.01377L43.2176 12.2041ZM33.923 23.8222H47.8422L47.2631 27H30.1302L31.4331 19.4889H44.1434L44.3461 18.3333H31.6473L32.2148 15.1556H48.0809L46.7781 22.6667H34.1257L33.923 23.8222Z" fill="#36EDC1"/>
<path d="M27.2024 1L27.3468 1.02557L27.3773 0.853333H27.2024V1ZM22.5989 27V27.1467H22.7218L22.7433 27.0256L22.5989 27ZM19.2414 27L19.0971 26.9743L19.0663 27.1467H19.2414V27ZM21.5577 14L21.7021 14.0257L21.7328 13.8533H21.5577V14ZM19.0956 14V13.8533H18.9725L18.9511 13.9746L19.0956 14ZM17.011 25.8444V25.9911H17.1341L17.1554 25.8699L17.011 25.8444ZM13.6987 25.8444L13.5542 25.8191L13.524 25.9911H13.6987V25.8444ZM17.9619 1.57778V1.43111H17.8388L17.8175 1.5524L17.9619 1.57778ZM21.3249 1.57778L21.4693 1.60355L21.5001 1.43111H21.3249V1.57778ZM19.6746 10.8222L19.5302 10.7964L19.4995 10.9689H19.6746V10.8222ZM22.1367 10.8222V10.9689H22.2597L22.2812 10.8478L22.1367 10.8222ZM23.8739 1V0.853333H23.7509L23.7295 0.974457L23.8739 1ZM11.5272 3.88764V3.74097H11.4052L11.383 3.86097L11.5272 3.88764ZM14.8974 3.88764L15.0418 3.91336L15.0725 3.74097H14.8974V3.88764ZM11.6547 22.0889V22.2356H11.7775L11.7991 22.1146L11.6547 22.0889ZM1 22.0889L0.855607 22.0632L0.824893 22.2356H1V22.0889ZM4.24256 3.88889L4.2425 3.74222L4.1197 3.74227L4.09816 3.86316L4.24256 3.88889ZM7.65917 3.88764L7.80357 3.91329L7.83419 3.74091L7.65911 3.74097L7.65917 3.88764ZM6.53 10.2444L6.3856 10.2188L6.35499 10.3911H6.53V10.2444ZM10.3518 10.2444V10.3911H10.4738L10.496 10.2711L10.3518 10.2444ZM9.77273 13.5149L9.91715 13.5404L9.94765 13.3682H9.77273V13.5149ZM6.00885 13.5149V13.3682H5.88652L5.86457 13.4885L6.00885 13.5149ZM5.02445 18.9111L4.88017 18.8848L4.84861 19.0578H5.02445V18.9111ZM8.81728 18.9111V19.0578H8.94026L8.9617 18.9367L8.81728 18.9111ZM52.8571 5.91111L53.0019 5.9348L53.0298 5.76444H52.8571V5.91111ZM52.337 9.08889V9.23555H52.4616L52.4817 9.11258L52.337 9.08889ZM49.1379 9.08889V8.94222H49.0149L48.9935 9.06334L49.1379 9.08889ZM48.2693 14V14.1467H48.3923L48.4138 14.0255L48.2693 14ZM45.0988 14L44.9544 13.9743L44.9237 14.1467H45.0988V14ZM47.4151 1V0.853333H47.2922L47.2707 0.974273L47.4151 1ZM50.5999 1L50.7443 1.02554L50.7748 0.853333H50.5999V1ZM49.7313 5.91111L49.5869 5.88557L49.5564 6.05778H49.7313V5.91111ZM43.2176 12.2041L43.2907 12.3312L43.3504 12.2968L43.3621 12.229L43.2176 12.2041ZM40.9489 12.8444L40.9186 12.7009L40.9489 12.8444ZM38.2369 13.2778L38.2504 13.424L38.2576 13.423L38.2369 13.2778ZM29.2326 13.7111L29.0882 13.6855L29.0576 13.8578H29.2326V13.7111ZM31.2303 2.44444V2.29778H31.1074L31.0859 2.41884L31.2303 2.44444ZM41.5279 2.44444L41.6722 2.47116L41.7043 2.29778H41.5279V2.44444ZM40.9489 5.57058V5.71725H41.0709L41.0931 5.59729L40.9489 5.57058ZM34.2125 5.57058V5.42391H34.091L34.0684 5.54323L34.2125 5.57058ZM33.3439 10.1477L33.1998 10.1204L33.1668 10.2944H33.3439V10.1477ZM35.7959 10.1196L35.7989 10.2662L35.8019 10.2661L35.7959 10.1196ZM40.6594 9.69703L40.6785 9.84243L40.6594 9.69703ZM43.767 9.01377L43.9115 9.03866L43.952 8.80385L43.7241 8.87351L43.767 9.01377ZM33.923 23.8222L33.7785 23.7969L33.7484 23.9689H33.923V23.8222ZM47.8422 23.8222L47.9864 23.8485L48.018 23.6756H47.8422V23.8222ZM47.2631 27V27.1467H47.3854L47.4074 27.0263L47.2631 27ZM30.1302 27L29.9857 26.9749L29.9559 27.1467H30.1302V27ZM31.4331 19.4889V19.3422H31.3096L31.2885 19.4638L31.4331 19.4889ZM44.1434 19.4889V19.6356H44.2666L44.2878 19.5142L44.1434 19.4889ZM44.3461 18.3333L44.4905 18.3587L44.5207 18.1867H44.3461V18.3333ZM31.6473 18.3333L31.5029 18.3075L31.4721 18.48H31.6473V18.3333ZM32.2148 15.1556V15.0089H32.092L32.0704 15.1298L32.2148 15.1556ZM48.0809 15.1556L48.2254 15.1806L48.2552 15.0089H48.0809V15.1556ZM46.7781 22.6667V22.8133H46.9015L46.9226 22.6917L46.7781 22.6667ZM34.1257 22.6667V22.52H34.0025L33.9812 22.6413L34.1257 22.6667ZM27.058 0.974429L22.4544 26.9744L22.7433 27.0256L27.3468 1.02557L27.058 0.974429ZM22.5989 26.8533H19.2414V27.1467H22.5989V26.8533ZM19.3858 27.0257L21.7021 14.0257L21.4133 13.9743L19.0971 26.9743L19.3858 27.0257ZM21.5577 13.8533H19.0956V14.1467H21.5577V13.8533ZM18.9511 13.9746L16.8665 25.819L17.1554 25.8699L19.24 14.0254L18.9511 13.9746ZM17.011 25.6978H13.6987V25.9911H17.011V25.6978ZM13.8431 25.8698L18.1064 1.60316L17.8175 1.5524L13.5542 25.8191L13.8431 25.8698ZM17.9619 1.72444H21.3249V1.43111H17.9619V1.72444ZM21.1806 1.552L19.5302 10.7964L19.819 10.848L21.4693 1.60355L21.1806 1.552ZM19.6746 10.9689H22.1367V10.6756H19.6746V10.9689ZM22.2812 10.8478L24.0183 1.02554L23.7295 0.974457L21.9923 10.7967L22.2812 10.8478ZM23.8739 1.14667H27.2024V0.853333H23.8739V1.14667ZM11.5272 4.0343H14.8974V3.74097H11.5272V4.0343ZM14.753 3.86191L11.5103 22.0632L11.7991 22.1146L15.0418 3.91336L14.753 3.86191ZM11.6547 21.9422H1V22.2356H11.6547V21.9422ZM1.14439 22.1146L4.38695 3.91461L4.09816 3.86316L0.855607 22.0632L1.14439 22.1146ZM4.24261 4.03556L7.65922 4.0343L7.65911 3.74097L4.2425 3.74222L4.24261 4.03556ZM7.51476 3.86199L6.3856 10.2188L6.67441 10.2701L7.80357 3.91329L7.51476 3.86199ZM6.53 10.3911H10.3518V10.0978H6.53V10.3911ZM10.496 10.2711L11.6714 3.9143L11.383 3.86097L10.2076 10.2178L10.496 10.2711ZM9.77273 13.3682H6.00885V13.6615H9.77273V13.3682ZM5.86457 13.4885L4.88017 18.8848L5.16874 18.9374L6.15314 13.5412L5.86457 13.4885ZM5.02445 19.0578H8.81728V18.7644H5.02445V19.0578ZM8.9617 18.9367L9.91715 13.5404L9.62831 13.4893L8.67286 18.8855L8.9617 18.9367ZM52.7124 5.88742L52.1922 9.0652L52.4817 9.11258L53.0019 5.9348L52.7124 5.88742ZM52.337 8.94222H49.1379V9.23555H52.337V8.94222ZM48.9935 9.06334L48.1249 13.9745L48.4138 14.0255L49.2824 9.11443L48.9935 9.06334ZM48.2693 13.8533H45.0988V14.1467H48.2693V13.8533ZM45.2432 14.0257L47.5594 1.02573L47.2707 0.974273L44.9544 13.9743L45.2432 14.0257ZM47.4151 1.14667H50.5999V0.853333H47.4151V1.14667ZM50.4555 0.974457L49.5869 5.88557L49.8757 5.93665L50.7443 1.02554L50.4555 0.974457ZM49.7313 6.05778H52.8571V5.76444H49.7313V6.05778ZM43.1444 12.0769C43.0701 12.1197 42.9182 12.1772 42.7128 12.242C42.5118 12.3054 42.2725 12.3718 42.0328 12.4344C41.5534 12.5595 41.0784 12.6673 40.9186 12.7009L40.9791 12.988C41.1434 12.9533 41.6229 12.8445 42.1068 12.7182C42.3488 12.6551 42.5934 12.5872 42.801 12.5217C43.004 12.4577 43.1851 12.392 43.2907 12.3312L43.1444 12.0769ZM40.9186 12.7009C40.5809 12.7721 39.9073 12.8798 39.3139 12.9703C39.0181 13.0154 38.7436 13.0559 38.5431 13.0853C38.4429 13.0999 38.3611 13.1117 38.3044 13.1199C38.2761 13.124 38.254 13.1272 38.2391 13.1293C38.2316 13.1304 38.2259 13.1312 38.222 13.1318C38.2201 13.132 38.2186 13.1322 38.2177 13.1324C38.2172 13.1324 38.2168 13.1325 38.2166 13.1325C38.2165 13.1325 38.2164 13.1326 38.2163 13.1326C38.2163 13.1326 38.2163 13.1326 38.2163 13.1326C38.2162 13.1326 38.2162 13.1326 38.2369 13.2778C38.2576 13.423 38.2576 13.423 38.2577 13.423C38.2577 13.423 38.2577 13.423 38.2577 13.423C38.2578 13.423 38.2579 13.4229 38.258 13.4229C38.2583 13.4229 38.2586 13.4228 38.2591 13.4228C38.2601 13.4226 38.2616 13.4224 38.2635 13.4221C38.2674 13.4216 38.2731 13.4208 38.2807 13.4197C38.2957 13.4175 38.3179 13.4143 38.3463 13.4102C38.4031 13.4021 38.4851 13.3902 38.5855 13.3755C38.7864 13.3461 39.0615 13.3055 39.3581 13.2603C39.9493 13.1702 40.6317 13.0612 40.9791 12.988L40.9186 12.7009ZM38.2369 13.2778C38.2235 13.1317 38.2235 13.1317 38.2235 13.1317C38.2235 13.1317 38.2234 13.1317 38.2234 13.1317C38.2233 13.1317 38.2232 13.1318 38.223 13.1318C38.2227 13.1318 38.2222 13.1318 38.2215 13.1319C38.2202 13.132 38.2183 13.1322 38.2156 13.1324C38.2104 13.1329 38.2027 13.1336 38.1926 13.1346C38.1724 13.1364 38.1427 13.1391 38.1049 13.1426C38.0291 13.1495 37.9206 13.1594 37.7894 13.1712C37.5271 13.195 37.1744 13.2267 36.8126 13.2585C36.0843 13.3226 35.3323 13.3862 35.1943 13.3886L35.1994 13.6819C35.351 13.6792 36.119 13.6141 36.8384 13.5507C37.2004 13.5188 37.5534 13.4871 37.8159 13.4634C37.9471 13.4515 38.0557 13.4416 38.1315 13.4347C38.1694 13.4312 38.1991 13.4285 38.2193 13.4267C38.2295 13.4257 38.2372 13.425 38.2424 13.4246C38.245 13.4243 38.247 13.4241 38.2483 13.424C38.249 13.424 38.2495 13.4239 38.2498 13.4239C38.25 13.4239 38.2501 13.4238 38.2502 13.4238C38.2502 13.4238 38.2503 13.4238 38.2503 13.4238C38.2503 13.4238 38.2503 13.4238 38.2369 13.2778ZM35.1943 13.3886C35.0468 13.3911 34.1019 13.4353 33.1585 13.4785C32.2093 13.522 31.264 13.5644 31.1038 13.5644V13.8578C31.2729 13.8578 32.2293 13.8147 33.1719 13.7715C34.1203 13.7281 35.0574 13.6843 35.1994 13.6819L35.1943 13.3886ZM29.377 13.7367L31.3747 2.47005L31.0859 2.41884L29.0882 13.6855L29.377 13.7367ZM31.2303 2.59111H41.5279V2.29778H31.2303V2.59111ZM41.3837 2.41773L40.8047 5.54387L41.0931 5.59729L41.6722 2.47116L41.3837 2.41773ZM40.9489 5.42391H34.2125V5.71725H40.9489V5.42391ZM34.0684 5.54323L33.1998 10.1204L33.488 10.1751L34.3566 5.59792L34.0684 5.54323ZM33.3439 10.2944C34.4511 10.2944 34.8802 10.285 35.7989 10.2662L35.7929 9.97292C34.875 9.9917 34.4482 10.0011 33.3439 10.0011V10.2944ZM35.8019 10.2661C36.7225 10.2285 37.5872 10.172 38.3959 10.0966L38.3687 9.80451C37.5656 9.87936 36.7061 9.93555 35.79 9.97302L35.8019 10.2661ZM38.3959 10.0966C39.2034 10.0213 39.9643 9.9366 40.6785 9.84243L40.6402 9.55162C39.9301 9.64524 39.1729 9.72955 38.3687 9.80451L38.3959 10.0966ZM40.6785 9.84243C41.7285 9.704 43.0858 9.37542 43.8099 9.15403L43.7241 8.87351C43.012 9.09124 41.6708 9.41573 40.6402 9.55162L40.6785 9.84243ZM43.6225 8.98888L43.073 12.1792L43.3621 12.229L43.9115 9.03866L43.6225 8.98888ZM33.923 23.9689H47.8422V23.6756H33.923V23.9689ZM47.6979 23.7959L47.1188 26.9737L47.4074 27.0263L47.9864 23.8485L47.6979 23.7959ZM47.2631 26.8533H30.1302V27.1467H47.2631V26.8533ZM30.2747 27.0251L31.5776 19.514L31.2885 19.4638L29.9857 26.9749L30.2747 27.0251ZM31.4331 19.6356H44.1434V19.3422H31.4331V19.6356ZM44.2878 19.5142L44.4905 18.3587L44.2016 18.308L43.9989 19.4636L44.2878 19.5142ZM44.3461 18.1867H31.6473V18.48H44.3461V18.1867ZM31.7917 18.3591L32.3592 15.1813L32.0704 15.1298L31.5029 18.3075L31.7917 18.3591ZM32.2148 15.3022H48.0809V15.0089H32.2148V15.3022ZM47.9364 15.1305L46.6336 22.6416L46.9226 22.6917L48.2254 15.1806L47.9364 15.1305ZM46.7781 22.52H34.1257V22.8133H46.7781V22.52ZM33.9812 22.6413L33.7785 23.7969L34.0675 23.8476L34.2701 22.692L33.9812 22.6413ZM31.1038 13.5644H29.2326V13.8578H31.1038V13.5644Z" fill="#36EDC1" mask="url(#path-1-outside-1_2248_11511)"/>
<mask id="path-3-outside-2_2248_11511" maskUnits="userSpaceOnUse" x="53.1748" y="0" width="76" height="28" fill="black">
<rect fill="white" x="53.1748" width="76" height="28"/>
<path d="M73.3127 7.06667L74.3723 1H77.5571L74.859 16.3111H71.6507L72.722 10.2444H68.1011L68.6802 7.06667H73.3127ZM67.7248 15.1556C66.5087 15.0111 65.4721 14.525 64.6152 13.9014C63.7582 13.2778 62.7329 11.809 62.5879 11.2961C62.1158 11.9925 61.2972 12.8444 59.9089 13.9224C59.1092 14.5432 57.8229 15.4444 55.8242 16.3111L54.1748 13.5089C55.4198 12.7867 56.812 11.9822 57.5616 11.4C58.3113 10.8178 58.7497 10.5333 59.2705 9.95555C59.7913 9.37778 60.2417 8.51111 60.4598 7.98592C60.7522 7.28169 60.9096 6.05556 60.9096 5.62222H56.1726L56.7227 2.44444H70.0264L69.4792 5.62222H64.9943C64.9047 6.34444 64.8088 7.06667 64.8088 7.76056C64.8088 8.45446 64.9057 8.78642 64.9943 9.08889C65.2059 9.81111 65.8176 10.3223 66.2192 10.7151C66.6208 11.1079 67.2984 11.6629 68.3038 11.9925L67.7248 15.1556ZM65.5371 17.0282C66.9052 17.0282 68.1328 17.1408 69.2198 17.3662C70.3255 17.5915 70.9637 17.9202 71.7134 18.3521C72.4818 18.7653 73.0721 19.2817 73.4844 19.9014C73.8967 20.5211 74.1029 21.2254 74.1029 22.0141C74.1029 22.8028 73.8967 23.507 73.4844 24.1268C73.0721 24.7465 72.4818 25.2629 71.7134 25.6761C70.9637 26.108 70.3255 26.4366 69.2198 26.662C68.1328 26.8873 66.9052 27 65.5371 27C64.169 27 63.2215 26.8873 62.1158 26.662C61.0101 26.4366 60.073 26.108 59.3046 25.6761C58.5549 25.2629 57.9739 24.7465 57.5616 24.1268C57.1493 23.507 56.9432 22.8028 56.9432 22.0141C56.9432 21.2254 57.1493 20.5211 57.5616 19.9014C57.9739 19.2817 58.5549 18.7653 59.3046 18.3521C60.073 17.9202 61.0101 17.5915 62.1158 17.3662C63.2215 17.1408 64.169 17.0282 65.5371 17.0282ZM65.5371 24.1831C68.9668 24.1831 70.3921 23.4601 70.3921 22.0141C70.3921 20.5681 68.9668 19.8451 65.5371 19.8451C62.0886 19.8451 60.654 20.5681 60.654 22.0141C60.654 23.4601 62.0886 24.1831 65.5371 24.1831Z"/>
<path d="M101.508 1.58427L97.178 25.8315H93.7023L95.8836 14H91.7482L92.3273 10.8222H96.4379L98.0911 1.58427H101.508ZM92.2064 3.88889C92.2064 5.62222 91.5253 8.38529 91.1692 10.1693C90.9236 11.4 90.1268 13.5487 89.2378 14.9299C88.3489 16.3111 86.6635 18.0578 84.5657 19.3524C83.5594 19.9735 81.6064 21.107 79.3384 21.9444L77.6302 18.9111C79.1155 18.2025 80.5434 17.6125 82.0194 16.7393C82.8006 16.2771 84.0461 15.4444 85.274 14.0423C86.502 12.6401 87.0016 11.5915 87.3346 10.6056C87.6677 9.61972 88.0187 8.47512 88.1499 7.06667H79.7443L80.3234 3.88889H92.2064Z"/>
<path d="M122.789 10.2444L121.729 16.3111H118.544L121.242 1H124.451L123.379 7.06667H128L127.421 10.2444H122.789ZM115.852 15.1556C114.636 15.0111 113.599 14.525 112.742 13.9014C111.885 13.2778 110.916 11.809 110.715 11.2961C110.243 11.9925 109.424 12.8444 108.036 13.9224C107.236 14.5432 105.95 15.4444 103.951 16.3111L102.302 13.5089C103.547 12.7867 104.939 11.9822 105.688 11.4C106.438 10.8178 106.877 10.5333 107.397 9.95555C107.918 9.37778 108.369 8.51111 108.587 7.98591C108.879 7.28169 109.036 6.05556 109.036 5.62222H104.299L104.849 2.44444H111.501H118.153L117.606 5.62222H113.121C113.032 6.34444 112.936 7.06667 112.936 7.76056C112.936 8.45446 113.033 8.78642 113.121 9.08889C113.333 9.81111 113.944 10.3223 114.346 10.7151C114.748 11.1079 115.482 11.6629 116.431 11.9925L115.852 15.1556ZM113.664 17.0282C115.032 17.0282 116.26 17.1408 117.347 17.3662C118.452 17.5915 119.091 17.9202 119.84 18.3521C120.609 18.7653 121.199 19.2817 121.611 19.9014C122.024 20.5211 122.23 21.2254 122.23 22.0141C122.23 22.8028 122.024 23.507 121.611 24.1268C121.199 24.7465 120.609 25.2629 119.84 25.6761C119.091 26.108 118.452 26.4366 117.347 26.662C116.26 26.8873 115.032 27 113.664 27C112.296 27 111.348 26.8873 110.243 26.662C109.137 26.4366 108.2 26.108 107.431 25.6761C106.682 25.2629 106.101 24.7465 105.688 24.1268C105.276 23.507 105.07 22.8028 105.07 22.0141C105.07 21.2254 105.276 20.5211 105.688 19.9014C106.101 19.2817 106.682 18.7653 107.431 18.3521C108.2 17.9202 109.137 17.5915 110.243 17.3662C111.348 17.1408 112.296 17.0282 113.664 17.0282ZM113.664 24.1831C117.094 24.1831 118.519 23.4601 118.519 22.0141C118.519 20.5681 117.094 19.8451 113.664 19.8451C110.215 19.8451 108.781 20.5681 108.781 22.0141C108.781 23.4601 110.215 24.1831 113.664 24.1831Z"/>
</mask>
<path d="M73.3127 7.06667L74.3723 1H77.5571L74.859 16.3111H71.6507L72.722 10.2444H68.1011L68.6802 7.06667H73.3127ZM67.7248 15.1556C66.5087 15.0111 65.4721 14.525 64.6152 13.9014C63.7582 13.2778 62.7329 11.809 62.5879 11.2961C62.1158 11.9925 61.2972 12.8444 59.9089 13.9224C59.1092 14.5432 57.8229 15.4444 55.8242 16.3111L54.1748 13.5089C55.4198 12.7867 56.812 11.9822 57.5616 11.4C58.3113 10.8178 58.7497 10.5333 59.2705 9.95555C59.7913 9.37778 60.2417 8.51111 60.4598 7.98592C60.7522 7.28169 60.9096 6.05556 60.9096 5.62222H56.1726L56.7227 2.44444H70.0264L69.4792 5.62222H64.9943C64.9047 6.34444 64.8088 7.06667 64.8088 7.76056C64.8088 8.45446 64.9057 8.78642 64.9943 9.08889C65.2059 9.81111 65.8176 10.3223 66.2192 10.7151C66.6208 11.1079 67.2984 11.6629 68.3038 11.9925L67.7248 15.1556ZM65.5371 17.0282C66.9052 17.0282 68.1328 17.1408 69.2198 17.3662C70.3255 17.5915 70.9637 17.9202 71.7134 18.3521C72.4818 18.7653 73.0721 19.2817 73.4844 19.9014C73.8967 20.5211 74.1029 21.2254 74.1029 22.0141C74.1029 22.8028 73.8967 23.507 73.4844 24.1268C73.0721 24.7465 72.4818 25.2629 71.7134 25.6761C70.9637 26.108 70.3255 26.4366 69.2198 26.662C68.1328 26.8873 66.9052 27 65.5371 27C64.169 27 63.2215 26.8873 62.1158 26.662C61.0101 26.4366 60.073 26.108 59.3046 25.6761C58.5549 25.2629 57.9739 24.7465 57.5616 24.1268C57.1493 23.507 56.9432 22.8028 56.9432 22.0141C56.9432 21.2254 57.1493 20.5211 57.5616 19.9014C57.9739 19.2817 58.5549 18.7653 59.3046 18.3521C60.073 17.9202 61.0101 17.5915 62.1158 17.3662C63.2215 17.1408 64.169 17.0282 65.5371 17.0282ZM65.5371 24.1831C68.9668 24.1831 70.3921 23.4601 70.3921 22.0141C70.3921 20.5681 68.9668 19.8451 65.5371 19.8451C62.0886 19.8451 60.654 20.5681 60.654 22.0141C60.654 23.4601 62.0886 24.1831 65.5371 24.1831Z" fill="white"/>
<path d="M101.508 1.58427L97.178 25.8315H93.7023L95.8836 14H91.7482L92.3273 10.8222H96.4379L98.0911 1.58427H101.508ZM92.2064 3.88889C92.2064 5.62222 91.5253 8.38529 91.1692 10.1693C90.9236 11.4 90.1268 13.5487 89.2378 14.9299C88.3489 16.3111 86.6635 18.0578 84.5657 19.3524C83.5594 19.9735 81.6064 21.107 79.3384 21.9444L77.6302 18.9111C79.1155 18.2025 80.5434 17.6125 82.0194 16.7393C82.8006 16.2771 84.0461 15.4444 85.274 14.0423C86.502 12.6401 87.0016 11.5915 87.3346 10.6056C87.6677 9.61972 88.0187 8.47512 88.1499 7.06667H79.7443L80.3234 3.88889H92.2064Z" fill="white"/>
<path d="M122.789 10.2444L121.729 16.3111H118.544L121.242 1H124.451L123.379 7.06667H128L127.421 10.2444H122.789ZM115.852 15.1556C114.636 15.0111 113.599 14.525 112.742 13.9014C111.885 13.2778 110.916 11.809 110.715 11.2961C110.243 11.9925 109.424 12.8444 108.036 13.9224C107.236 14.5432 105.95 15.4444 103.951 16.3111L102.302 13.5089C103.547 12.7867 104.939 11.9822 105.688 11.4C106.438 10.8178 106.877 10.5333 107.397 9.95555C107.918 9.37778 108.369 8.51111 108.587 7.98591C108.879 7.28169 109.036 6.05556 109.036 5.62222H104.299L104.849 2.44444H111.501H118.153L117.606 5.62222H113.121C113.032 6.34444 112.936 7.06667 112.936 7.76056C112.936 8.45446 113.033 8.78642 113.121 9.08889C113.333 9.81111 113.944 10.3223 114.346 10.7151C114.748 11.1079 115.482 11.6629 116.431 11.9925L115.852 15.1556ZM113.664 17.0282C115.032 17.0282 116.26 17.1408 117.347 17.3662C118.452 17.5915 119.091 17.9202 119.84 18.3521C120.609 18.7653 121.199 19.2817 121.611 19.9014C122.024 20.5211 122.23 21.2254 122.23 22.0141C122.23 22.8028 122.024 23.507 121.611 24.1268C121.199 24.7465 120.609 25.2629 119.84 25.6761C119.091 26.108 118.452 26.4366 117.347 26.662C116.26 26.8873 115.032 27 113.664 27C112.296 27 111.348 26.8873 110.243 26.662C109.137 26.4366 108.2 26.108 107.431 25.6761C106.682 25.2629 106.101 24.7465 105.688 24.1268C105.276 23.507 105.07 22.8028 105.07 22.0141C105.07 21.2254 105.276 20.5211 105.688 19.9014C106.101 19.2817 106.682 18.7653 107.431 18.3521C108.2 17.9202 109.137 17.5915 110.243 17.3662C111.348 17.1408 112.296 17.0282 113.664 17.0282ZM113.664 24.1831C117.094 24.1831 118.519 23.4601 118.519 22.0141C118.519 20.5681 117.094 19.8451 113.664 19.8451C110.215 19.8451 108.781 20.5681 108.781 22.0141C108.781 23.4601 110.215 24.1831 113.664 24.1831Z" fill="white"/>
<path d="M73.3127 7.06667V7.21333H73.4359L73.4572 7.0919L73.3127 7.06667ZM74.3723 1V0.853333H74.249L74.2278 0.974765L74.3723 1ZM77.5571 1L77.7015 1.02545L77.7319 0.853333H77.5571V1ZM74.859 16.3111V16.4578H74.9821L75.0035 16.3366L74.859 16.3111ZM71.6507 16.3111L71.5063 16.2856L71.4759 16.4578H71.6507V16.3111ZM72.722 10.2444L72.8664 10.2699L72.8968 10.0978H72.722V10.2444ZM68.1011 10.2444L67.9569 10.2182L67.9253 10.3911H68.1011V10.2444ZM68.6802 7.06667V6.92H68.5579L68.5359 7.04037L68.6802 7.06667ZM67.7248 15.1556L67.7075 15.3012L67.8442 15.3174L67.869 15.182L67.7248 15.1556ZM62.5879 11.2961L62.7291 11.2562L62.6434 10.9529L62.4665 11.2138L62.5879 11.2961ZM59.9089 13.9224L59.9988 14.0382L59.9089 13.9224ZM55.8242 16.3111L55.6978 16.3855L55.7636 16.4973L55.8825 16.4457L55.8242 16.3111ZM54.1748 13.5089L54.1012 13.382L53.9735 13.4561L54.0484 13.5833L54.1748 13.5089ZM60.4598 7.98592L60.5953 8.04216L60.4598 7.98592ZM60.9096 5.62222H61.0563V5.47556H60.9096V5.62222ZM56.1726 5.62222L56.028 5.5972L55.9983 5.76889H56.1726V5.62222ZM56.7227 2.44444V2.29778H56.5992L56.5781 2.41943L56.7227 2.44444ZM70.0264 2.44444L70.1709 2.46933L70.2004 2.29778H70.0264V2.44444ZM69.4792 5.62222V5.76889H69.6028L69.6238 5.64711L69.4792 5.62222ZM64.9943 5.62222V5.47556H64.8647L64.8487 5.60417L64.9943 5.62222ZM64.9943 9.08889L64.8535 9.13012L64.9943 9.08889ZM68.3038 11.9925L68.4481 12.0189L68.4711 11.893L68.3495 11.8531L68.3038 11.9925ZM69.2198 17.3662L69.19 17.5098L69.1905 17.5099L69.2198 17.3662ZM71.7134 18.3521L71.6401 18.4792L71.6439 18.4813L71.7134 18.3521ZM73.4844 19.9014L73.3623 19.9826L73.4844 19.9014ZM73.4844 24.1268L73.3623 24.0455L73.4844 24.1268ZM71.7134 25.6761L71.6439 25.5468L71.6401 25.549L71.7134 25.6761ZM69.2198 26.662L69.1905 26.5183L69.19 26.5184L69.2198 26.662ZM62.1158 26.662L62.0865 26.8057L62.1158 26.662ZM59.3046 25.6761L59.3765 25.5482L59.3754 25.5476L59.3046 25.6761ZM59.3046 18.3521L59.3754 18.4806L59.3764 18.48L59.3046 18.3521ZM62.1158 17.3662L62.0865 17.2225L62.1158 17.3662ZM101.508 1.58427L101.652 1.61005L101.683 1.4376H101.508V1.58427ZM97.178 25.8315V25.9781H97.3008L97.3224 25.8572L97.178 25.8315ZM93.7023 25.8315L93.5581 25.8049L93.5261 25.9781H93.7023V25.8315ZM95.8836 14L96.0279 14.0266L96.0598 13.8533H95.8836V14ZM91.7482 14L91.604 13.9737L91.5724 14.1467H91.7482V14ZM92.3273 10.8222V10.6756H92.2049L92.183 10.7959L92.3273 10.8222ZM96.4379 10.8222V10.9689H96.5607L96.5823 10.8481L96.4379 10.8222ZM98.0911 1.58427V1.4376H97.9683L97.9467 1.55843L98.0911 1.58427ZM92.2064 3.88889H92.3531V3.74222H92.2064V3.88889ZM91.1692 10.1693L91.313 10.198L91.1692 10.1693ZM84.5657 19.3524L84.4887 19.2276L84.5657 19.3524ZM79.3384 21.9444L79.2106 22.0164L79.272 22.1253L79.3892 22.082L79.3384 21.9444ZM77.6302 18.9111L77.5671 18.7787L77.4254 18.8463L77.5024 18.9831L77.6302 18.9111ZM82.0194 16.7393L82.0941 16.8655L82.0194 16.7393ZM88.1499 7.06667L88.2959 7.08027L88.3109 6.92H88.1499V7.06667ZM79.7443 7.06667L79.6 7.04037L79.5685 7.21333H79.7443V7.06667ZM80.3234 3.88889V3.74222H80.201L80.1791 3.8626L80.3234 3.88889ZM122.789 10.2444V10.0978H122.665L122.644 10.2192L122.789 10.2444ZM121.729 16.3111V16.4578H121.852L121.874 16.3363L121.729 16.3111ZM118.544 16.3111L118.4 16.2857L118.369 16.4578H118.544V16.3111ZM121.242 1V0.853333H121.119L121.098 0.974547L121.242 1ZM124.451 1L124.595 1.0255L124.625 0.853333H124.451V1ZM123.379 7.06667L123.235 7.04116L123.205 7.21333H123.379V7.06667ZM128 7.06667L128.144 7.09296L128.176 6.92H128V7.06667ZM127.421 10.2444V10.3911H127.543L127.565 10.2707L127.421 10.2444ZM115.852 15.1556L115.834 15.3012L115.971 15.3174L115.996 15.182L115.852 15.1556ZM110.715 11.2961L110.851 11.2424L110.749 10.9835L110.593 11.2138L110.715 11.2961ZM108.036 13.9224L108.126 14.0382L108.036 13.9224ZM103.951 16.3111L103.825 16.3855L103.89 16.4973L104.009 16.4457L103.951 16.3111ZM102.302 13.5089L102.228 13.382L102.1 13.4561L102.175 13.5833L102.302 13.5089ZM108.587 7.98591L108.722 8.04216L108.587 7.98591ZM109.036 5.62222H109.183V5.47556H109.036V5.62222ZM104.299 5.62222L104.155 5.5972L104.125 5.76889H104.299V5.62222ZM104.849 2.44444V2.29778H104.726L104.705 2.41943L104.849 2.44444ZM118.153 2.44444L118.298 2.46933L118.327 2.29778H118.153V2.44444ZM117.606 5.62222V5.76889H117.73L117.751 5.64711L117.606 5.62222ZM113.121 5.62222V5.47556H112.992L112.976 5.60417L113.121 5.62222ZM113.121 9.08889L112.98 9.13012L113.121 9.08889ZM116.431 11.9925L116.575 12.0189L116.598 11.8952L116.479 11.8539L116.431 11.9925ZM117.347 17.3662L117.317 17.5098L117.317 17.5099L117.347 17.3662ZM119.84 18.3521L119.767 18.4792L119.771 18.4813L119.84 18.3521ZM121.611 19.9014L121.489 19.9826L121.611 19.9014ZM121.611 24.1268L121.489 24.0455L121.611 24.1268ZM119.84 25.6761L119.771 25.5468L119.767 25.549L119.84 25.6761ZM117.347 26.662L117.317 26.5183L117.317 26.5184L117.347 26.662ZM110.243 26.662L110.213 26.8057L110.243 26.662ZM107.431 25.6761L107.503 25.5482L107.502 25.5476L107.431 25.6761ZM107.431 18.3521L107.502 18.4806L107.503 18.48L107.431 18.3521ZM110.243 17.3662L110.213 17.2225L110.243 17.3662ZM73.4572 7.0919L74.5168 1.02523L74.2278 0.974765L73.1682 7.04143L73.4572 7.0919ZM74.3723 1.14667H77.5571V0.853333H74.3723V1.14667ZM77.4126 0.974547L74.7146 16.2857L75.0035 16.3366L77.7015 1.02545L77.4126 0.974547ZM74.859 16.1644H71.6507V16.4578H74.859V16.1644ZM71.7951 16.3366L72.8664 10.2699L72.5775 10.2189L71.5063 16.2856L71.7951 16.3366ZM72.722 10.0978H68.1011V10.3911H72.722V10.0978ZM68.2454 10.2707L68.8245 7.09296L68.5359 7.04037L67.9569 10.2182L68.2454 10.2707ZM68.6802 7.21333H73.3127V6.92H68.6802V7.21333ZM67.7421 15.0099C66.5555 14.869 65.5421 14.3946 64.7015 13.7828L64.5288 14.02C65.402 14.6555 66.462 15.1533 67.7075 15.3012L67.7421 15.0099ZM64.7015 13.7828C64.2902 13.4836 63.8299 12.9738 63.4519 12.4693C63.2638 12.2182 63.0983 11.9715 62.9715 11.7572C62.8429 11.5398 62.7599 11.3653 62.7291 11.2562L62.4468 11.336C62.4884 11.4833 62.5879 11.6848 62.7191 11.9065C62.8521 12.1313 63.0237 12.387 63.2172 12.6452C63.6023 13.1592 64.0831 13.6956 64.5288 14.02L64.7015 13.7828ZM62.4665 11.2138C62.0065 11.8923 61.2012 12.7333 59.8189 13.8065L59.9988 14.0382C61.3933 12.9555 62.2251 12.0927 62.7093 11.3784L62.4665 11.2138ZM59.8189 13.8065C59.0265 14.4218 57.7507 15.3159 55.7658 16.1765L55.8825 16.4457C57.895 15.573 59.1919 14.6647 59.9988 14.0382L59.8189 13.8065ZM55.9506 16.2367L54.3012 13.4345L54.0484 13.5833L55.6978 16.3855L55.9506 16.2367ZM54.2484 13.6358C55.4888 12.9162 56.8921 12.1057 57.6516 11.5158L57.4717 11.2842C56.7319 11.8587 55.3509 12.6571 54.1012 13.382L54.2484 13.6358ZM57.6516 11.5158C58.3927 10.9403 58.8473 10.6442 59.3795 10.0538L59.1616 9.85736C58.6522 10.4225 58.2299 10.6954 57.4717 11.2842L57.6516 11.5158ZM59.3795 10.0538C59.9161 9.45846 60.3741 8.5747 60.5953 8.04216L60.3243 7.92967C60.1093 8.44753 59.6666 9.2971 59.1616 9.85736L59.3795 10.0538ZM60.5953 8.04216C60.7478 7.67475 60.8625 7.17933 60.939 6.72694C61.0155 6.27429 61.0563 5.85043 61.0563 5.62222H60.7629C60.7629 5.82735 60.725 6.23323 60.6497 6.67802C60.5745 7.12309 60.4642 7.59285 60.3243 7.92967L60.5953 8.04216ZM60.9096 5.47556H56.1726V5.76889H60.9096V5.47556ZM56.3171 5.64724L56.8672 2.46946L56.5781 2.41943L56.028 5.5972L56.3171 5.64724ZM56.7227 2.59111H70.0264V2.29778H56.7227V2.59111ZM69.8818 2.41956L69.3347 5.59734L69.6238 5.64711L70.1709 2.46933L69.8818 2.41956ZM69.4792 5.47556H64.9943V5.76889H69.4792V5.47556ZM64.8487 5.60417C64.7595 6.32324 64.6621 7.05561 64.6621 7.76056H64.9555C64.9555 7.07773 65.0498 6.36565 65.1398 5.64028L64.8487 5.60417ZM64.6621 7.76056C64.6621 8.47308 64.7626 8.81963 64.8535 9.13012L65.135 9.04765C65.0488 8.75322 64.9555 8.43584 64.9555 7.76056H64.6621ZM64.8535 9.13012C65.0786 9.89854 65.7293 10.441 66.1167 10.8199L66.3218 10.6102C65.9059 10.2035 65.3331 9.72368 65.135 9.04765L64.8535 9.13012ZM66.1167 10.8199C66.528 11.2223 67.2243 11.793 68.2581 12.1319L68.3495 11.8531C67.3724 11.5328 66.7136 10.9934 66.3218 10.6102L66.1167 10.8199ZM68.1596 11.9661L67.5805 15.1291L67.869 15.182L68.4481 12.0189L68.1596 11.9661ZM65.5371 17.1748C66.8974 17.1748 68.1147 17.2869 69.19 17.5098L69.2496 17.2226C68.1508 16.9948 66.913 16.8815 65.5371 16.8815V17.1748ZM69.1905 17.5099C70.2747 17.7309 70.8974 18.0512 71.6401 18.4792L71.7866 18.225C71.03 17.7891 70.3764 17.4522 69.2491 17.2225L69.1905 17.5099ZM71.6439 18.4813C72.3947 18.885 72.9655 19.3862 73.3623 19.9826L73.6065 19.8202C73.1787 19.1772 72.5688 18.6455 71.7828 18.2229L71.6439 18.4813ZM73.3623 19.9826C73.7576 20.5768 73.9562 21.2524 73.9562 22.0141H74.2496C74.2496 21.1983 74.0358 20.4654 73.6065 19.8202L73.3623 19.9826ZM73.9562 22.0141C73.9562 22.7757 73.7576 23.4513 73.3623 24.0455L73.6065 24.208C74.0358 23.5627 74.2496 22.8299 74.2496 22.0141H73.9562ZM73.3623 24.0455C72.9655 24.642 72.3947 25.1432 71.6439 25.5469L71.7828 25.8052C72.5688 25.3826 73.1787 24.851 73.6065 24.208L73.3623 24.0455ZM71.6401 25.549C70.8974 25.9769 70.2747 26.2973 69.1905 26.5183L69.2491 26.8057C70.3764 26.5759 71.03 26.239 71.7866 25.8031L71.6401 25.549ZM69.19 26.5184C68.1147 26.7413 66.8974 26.8533 65.5371 26.8533V27.1467C66.913 27.1467 68.1508 27.0334 69.2496 26.8056L69.19 26.5184ZM65.5371 26.8533C64.1792 26.8533 63.2416 26.7417 62.1451 26.5183L62.0865 26.8057C63.2015 27.0329 64.1587 27.1467 65.5371 27.1467V26.8533ZM62.1451 26.5183C61.0503 26.2951 60.1284 25.9709 59.3764 25.5482L59.2327 25.8039C60.0175 26.2451 60.9698 26.5781 62.0865 26.8057L62.1451 26.5183ZM59.3754 25.5476C58.6433 25.1441 58.0811 24.6428 57.6837 24.0455L57.4395 24.208C57.8667 24.8501 58.4666 25.3817 59.2338 25.8045L59.3754 25.5476ZM57.6837 24.0455C57.2884 23.4513 57.0898 22.7757 57.0898 22.0141H56.7965C56.7965 22.8299 57.0102 23.5627 57.4395 24.208L57.6837 24.0455ZM57.0898 22.0141C57.0898 21.2524 57.2884 20.5768 57.6837 19.9826L57.4395 19.8202C57.0102 20.4654 56.7965 21.1983 56.7965 22.0141H57.0898ZM57.6837 19.9826C58.0811 19.3853 58.6433 18.884 59.3754 18.4806L59.2338 18.2237C58.4666 18.6465 57.8667 19.1781 57.4395 19.8202L57.6837 19.9826ZM59.3764 18.48C60.1284 18.0573 61.0503 17.733 62.1451 17.5099L62.0865 17.2225C60.9698 17.4501 60.0175 17.7831 59.2327 18.2243L59.3764 18.48ZM62.1451 17.5099C63.2416 17.2864 64.1792 17.1748 65.5371 17.1748V16.8815C64.1587 16.8815 63.2015 16.9953 62.0865 17.2225L62.1451 17.5099ZM65.5371 24.3298C67.2568 24.3298 68.4971 24.1494 69.3121 23.7741C69.722 23.5853 70.0307 23.3443 70.2365 23.0464C70.443 22.7473 70.5387 22.4009 70.5387 22.0141H70.2454C70.2454 22.3503 70.163 22.6365 69.9951 22.8797C69.8264 23.124 69.5645 23.3349 69.1894 23.5076C68.4343 23.8553 67.247 24.0364 65.5371 24.0364V24.3298ZM70.5387 22.0141C70.5387 21.6273 70.443 21.2809 70.2365 20.9818C70.0307 20.6838 69.722 20.4429 69.3121 20.2541C68.4971 19.8788 67.2568 19.6984 65.5371 19.6984V19.9917C67.247 19.9917 68.4343 20.1728 69.1894 20.5205C69.5645 20.6933 69.8264 20.9042 69.9951 21.1485C70.163 21.3917 70.2454 21.6779 70.2454 22.0141H70.5387ZM65.5371 19.6984C63.808 19.6984 62.5609 19.8788 61.7413 20.254C61.3291 20.4427 61.0186 20.6835 60.8116 20.9815C60.6038 21.2805 60.5073 21.6271 60.5073 22.0141H60.8006C60.8006 21.6781 60.8835 21.392 61.0525 21.1488C61.2222 20.9045 61.4859 20.6935 61.8634 20.5207C62.6233 20.1728 63.8177 19.9917 65.5371 19.9917V19.6984ZM60.5073 22.0141C60.5073 22.4011 60.6038 22.7476 60.8116 23.0467C61.0186 23.3447 61.3291 23.5855 61.7413 23.7742C62.5609 24.1494 63.808 24.3298 65.5371 24.3298V24.0364C63.8177 24.0364 62.6233 23.8553 61.8634 23.5075C61.4859 23.3347 61.2222 23.1237 61.0525 22.8793C60.8835 22.6362 60.8006 22.3501 60.8006 22.0141H60.5073ZM101.363 1.55849L97.0336 25.8057L97.3224 25.8572L101.652 1.61005L101.363 1.55849ZM97.178 25.6848H93.7023V25.9781H97.178V25.6848ZM93.8465 25.8581L96.0279 14.0266L95.7394 13.9734L93.5581 25.8049L93.8465 25.8581ZM95.8836 13.8533H91.7482V14.1467H95.8836V13.8533ZM91.8925 14.0263L92.4716 10.8485L92.183 10.7959L91.604 13.9737L91.8925 14.0263ZM92.3273 10.9689H96.4379V10.6756H92.3273V10.9689ZM96.5823 10.8481L98.2355 1.61011L97.9467 1.55843L96.2936 10.7964L96.5823 10.8481ZM98.0911 1.73094H101.508V1.4376H98.0911V1.73094ZM92.0598 3.88889C92.0598 4.74063 91.8919 5.85298 91.6773 6.98271C91.4621 8.11529 91.2051 9.24007 91.0254 10.1406L91.313 10.198C91.4894 9.31455 91.751 8.16577 91.9654 7.03747C92.1804 5.90633 92.3531 4.77048 92.3531 3.88889H92.0598ZM91.0254 10.1406C90.783 11.3549 89.9926 13.4861 89.1145 14.8505L89.3612 15.0093C90.261 13.6112 91.0641 11.4451 91.313 10.198L91.0254 10.1406ZM89.1145 14.8505C88.238 16.2124 86.5688 17.9439 84.4887 19.2276L84.6427 19.4772C86.7582 18.1717 88.4598 16.4098 89.3612 15.0093L89.1145 14.8505ZM84.4887 19.2276C83.4859 19.8465 81.5424 20.9743 79.2876 21.8069L79.3892 22.082C81.6704 21.2397 83.6329 20.1005 84.6427 19.4772L84.4887 19.2276ZM79.4662 21.8725L77.758 18.8391L77.5024 18.9831L79.2106 22.0164L79.4662 21.8725ZM77.6934 19.0435C79.1701 18.3389 80.6106 17.7432 82.0941 16.8655L81.9447 16.613C80.4762 17.4819 79.0609 18.0661 77.5671 18.7787L77.6934 19.0435ZM82.0941 16.8655C82.8835 16.3985 84.1429 15.5565 85.3844 14.1389L85.1637 13.9456C83.9493 15.3323 82.7177 16.1558 81.9447 16.613L82.0941 16.8655ZM85.3844 14.1389C86.6255 12.7216 87.1346 11.656 87.4736 10.6526L87.1957 10.5587C86.8686 11.5271 86.3784 12.5585 85.1637 13.9456L85.3844 14.1389ZM87.4736 10.6526C87.8077 9.6633 88.1631 8.50587 88.2959 7.08027L88.0039 7.05306C87.8743 8.44437 87.5276 9.57614 87.1957 10.5587L87.4736 10.6526ZM88.1499 6.92H79.7443V7.21333H88.1499V6.92ZM79.8886 7.09296L80.4677 3.91518L80.1791 3.8626L79.6 7.04037L79.8886 7.09296ZM80.3234 4.03556H92.2064V3.74222H80.3234V4.03556ZM122.644 10.2192L121.585 16.2859L121.874 16.3363L122.933 10.2697L122.644 10.2192ZM121.729 16.1644H118.544V16.4578H121.729V16.1644ZM118.689 16.3366L121.387 1.02545L121.098 0.974547L118.4 16.2857L118.689 16.3366ZM121.242 1.14667H124.451V0.853333H121.242V1.14667ZM124.306 0.974496L123.235 7.04116L123.524 7.09217L124.595 1.0255L124.306 0.974496ZM123.379 7.21333H128V6.92H123.379V7.21333ZM127.856 7.04037L127.277 10.2182L127.565 10.2707L128.144 7.09296L127.856 7.04037ZM127.421 10.0978H122.789V10.3911H127.421V10.0978ZM115.869 15.0099C114.682 14.869 113.669 14.3946 112.828 13.7828L112.656 14.02C113.529 14.6555 114.589 15.1533 115.834 15.3012L115.869 15.0099ZM112.828 13.7828C112.418 13.4843 111.972 12.9756 111.601 12.4703C111.229 11.9642 110.945 11.481 110.851 11.2424L110.578 11.3497C110.686 11.6241 110.988 12.1317 111.364 12.6441C111.742 13.1574 112.209 13.6949 112.656 14.02L112.828 13.7828ZM110.593 11.2138C110.133 11.8923 109.328 12.7333 107.946 13.8065L108.126 14.0382C109.52 12.9555 110.352 12.0927 110.836 11.3784L110.593 11.2138ZM107.946 13.8065C107.153 14.4218 105.878 15.3159 103.893 16.1765L104.009 16.4457C106.022 15.573 107.319 14.6647 108.126 14.0382L107.946 13.8065ZM104.077 16.2367L102.428 13.4345L102.175 13.5833L103.825 16.3855L104.077 16.2367ZM102.375 13.6358C103.616 12.9162 105.019 12.1057 105.778 11.5158L105.599 11.2842C104.859 11.8587 103.478 12.6571 102.228 13.382L102.375 13.6358ZM105.778 11.5158C106.52 10.9403 106.974 10.6442 107.506 10.0538L107.288 9.85736C106.779 10.4225 106.357 10.6954 105.599 11.2842L105.778 11.5158ZM107.506 10.0538C108.043 9.45846 108.501 8.5747 108.722 8.04216L108.451 7.92967C108.236 8.44752 107.793 9.2971 107.288 9.85736L107.506 10.0538ZM108.722 8.04216C108.875 7.67475 108.989 7.17933 109.066 6.72694C109.142 6.27428 109.183 5.85043 109.183 5.62222H108.89C108.89 5.82735 108.852 6.23323 108.777 6.67803C108.701 7.12309 108.591 7.59285 108.451 7.92967L108.722 8.04216ZM109.036 5.47556H104.299V5.76889H109.036V5.47556ZM104.444 5.64724L104.994 2.46946L104.705 2.41943L104.155 5.5972L104.444 5.64724ZM118.009 2.41956L117.462 5.59734L117.751 5.64711L118.298 2.46933L118.009 2.41956ZM117.606 5.47556H113.121V5.76889H117.606V5.47556ZM112.976 5.60417C112.886 6.32323 112.789 7.0556 112.789 7.76056H113.082C113.082 7.07773 113.177 6.36565 113.267 5.64028L112.976 5.60417ZM112.789 7.76056C112.789 8.47308 112.889 8.81964 112.98 9.13012L113.262 9.04765C113.176 8.75321 113.082 8.43583 113.082 7.76056H112.789ZM112.98 9.13012C113.205 9.89854 113.856 10.441 114.243 10.8199L114.449 10.6102C114.033 10.2035 113.46 9.72368 113.262 9.04765L112.98 9.13012ZM114.243 10.8199C114.657 11.2246 115.409 11.793 116.383 12.131L116.479 11.8539C115.554 11.5328 114.838 10.9912 114.449 10.6102L114.243 10.8199ZM116.286 11.9661L115.707 15.1291L115.996 15.182L116.575 12.0189L116.286 11.9661ZM113.664 17.1748C115.024 17.1748 116.242 17.2869 117.317 17.5098L117.376 17.2226C116.278 16.9948 115.04 16.8815 113.664 16.8815V17.1748ZM117.317 17.5099C118.401 17.7309 119.024 18.0512 119.767 18.4792L119.913 18.225C119.157 17.7891 118.503 17.4522 117.376 17.2225L117.317 17.5099ZM119.771 18.4813C120.522 18.885 121.092 19.3862 121.489 19.9826L121.733 19.8202C121.306 19.1772 120.696 18.6455 119.91 18.2229L119.771 18.4813ZM121.489 19.9826C121.884 20.5768 122.083 21.2524 122.083 22.0141H122.376C122.376 21.1983 122.163 20.4654 121.733 19.8202L121.489 19.9826ZM122.083 22.0141C122.083 22.7757 121.884 23.4513 121.489 24.0455L121.733 24.208C122.163 23.5627 122.376 22.8299 122.376 22.0141H122.083ZM121.489 24.0455C121.092 24.642 120.522 25.1432 119.771 25.5469L119.91 25.8052C120.696 25.3826 121.306 24.851 121.733 24.208L121.489 24.0455ZM119.767 25.549C119.024 25.9769 118.401 26.2973 117.317 26.5183L117.376 26.8057C118.503 26.5759 119.157 26.239 119.913 25.8031L119.767 25.549ZM117.317 26.5184C116.242 26.7413 115.024 26.8533 113.664 26.8533V27.1467C115.04 27.1467 116.278 27.0334 117.376 26.8056L117.317 26.5184ZM113.664 26.8533C112.306 26.8533 111.368 26.7417 110.272 26.5183L110.213 26.8057C111.328 27.0329 112.286 27.1467 113.664 27.1467V26.8533ZM110.272 26.5183C109.177 26.2951 108.255 25.9709 107.503 25.5482L107.36 25.8039C108.144 26.2451 109.097 26.5781 110.213 26.8057L110.272 26.5183ZM107.502 25.5476C106.77 25.1441 106.208 24.6428 105.811 24.0455L105.566 24.208C105.994 24.8501 106.593 25.3817 107.361 25.8045L107.502 25.5476ZM105.811 24.0455C105.415 23.4513 105.217 22.7757 105.217 22.0141H104.923C104.923 22.8299 105.137 23.5627 105.566 24.208L105.811 24.0455ZM105.217 22.0141C105.217 21.2524 105.415 20.5768 105.811 19.9826L105.566 19.8202C105.137 20.4654 104.923 21.1983 104.923 22.0141H105.217ZM105.811 19.9826C106.208 19.3853 106.77 18.884 107.502 18.4806L107.361 18.2237C106.593 18.6465 105.994 19.1781 105.566 19.8202L105.811 19.9826ZM107.503 18.48C108.255 18.0573 109.177 17.733 110.272 17.5099L110.213 17.2225C109.097 17.4501 108.144 17.7831 107.36 18.2243L107.503 18.48ZM110.272 17.5099C111.368 17.2864 112.306 17.1748 113.664 17.1748V16.8815C112.286 16.8815 111.328 16.9953 110.213 17.2225L110.272 17.5099ZM113.664 24.3298C115.384 24.3298 116.624 24.1494 117.439 23.7741C117.849 23.5853 118.158 23.3443 118.363 23.0464C118.57 22.7473 118.666 22.4009 118.666 22.0141H118.372C118.372 22.3503 118.29 22.6365 118.122 22.8797C117.953 23.124 117.691 23.3349 117.316 23.5076C116.561 23.8553 115.374 24.0364 113.664 24.0364V24.3298ZM118.666 22.0141C118.666 21.6273 118.57 21.2809 118.363 20.9818C118.158 20.6838 117.849 20.4429 117.439 20.2541C116.624 19.8788 115.384 19.6984 113.664 19.6984V19.9917C115.374 19.9917 116.561 20.1728 117.316 20.5205C117.691 20.6933 117.953 20.9042 118.122 21.1485C118.29 21.3917 118.372 21.6779 118.372 22.0141H118.666ZM113.664 19.6984C111.935 19.6984 110.688 19.8788 109.868 20.254C109.456 20.4427 109.145 20.6835 108.938 20.9815C108.731 21.2805 108.634 21.6271 108.634 22.0141H108.927C108.927 21.6781 109.01 21.392 109.179 21.1488C109.349 20.9045 109.613 20.6935 109.99 20.5207C110.75 20.1728 111.945 19.9917 113.664 19.9917V19.6984ZM108.634 22.0141C108.634 22.4011 108.731 22.7476 108.938 23.0467C109.145 23.3447 109.456 23.5855 109.868 23.7742C110.688 24.1494 111.935 24.3298 113.664 24.3298V24.0364C111.945 24.0364 110.75 23.8553 109.99 23.5075C109.613 23.3347 109.349 23.1237 109.179 22.8793C109.01 22.6362 108.927 22.3501 108.927 22.0141H108.634ZM104.849 2.59111H111.501V2.29778H104.849V2.59111ZM111.501 2.59111H118.153V2.29778H111.501V2.59111Z" fill="white" mask="url(#path-3-outside-2_2248_11511)"/>
</svg>
